<svg width="424" height="432" viewBox="0 0 424 432" fill="none" xmlns="http://www.w3.org/2000/svg">
<path fill-rule="evenodd" clip-rule="evenodd" d="M297.234 0.20724C292.994 1.49558 292.494 7.11763 296.445 9.06149L297.596 9.62736V26.973V44.3186L306.109 44.2722L314.621 44.2258L314.711 38.1059L314.801 31.986L321.508 31.9395L328.216 31.892L328.314 32.2992C328.368 32.5227 328.391 37.6858 328.363 43.7711L328.313 54.836L327.306 55.3187C322.288 57.7215 324.604 65.3209 330.042 64.2906C334.628 63.4213 335.223 56.6956 330.843 55.2366L330.115 54.9947L330.069 42.6351L330.022 30.2765H321.466H312.909V36.3964V42.5152H306.153H299.397L299.37 26.2268C299.356 17.2678 299.335 9.84335 299.326 9.72779C299.315 9.61224 299.667 9.39842 300.108 9.25155C305.551 7.43837 302.723 -1.46123 297.234 0.20724ZM7.80187 12.1803C7.75322 12.3099 7.69269 17.4978 7.6689 37.1879L7.62458 72.9872L6.936 73.2248C2.01865 74.9257 3.39905 82.2713 8.63962 82.2886C13.8694 82.3058 15.1103 74.9149 10.167 73.187L9.60601 72.9915L9.51629 37.0098L9.42549 12.0562L8.658 12C8.14994 11.9633 7.86132 12.0238 7.80187 12.1803ZM23.1571 2.57559C23.0858 2.64579 23.0285 25.7095 23.0285 55.6913V110.203L22.261 110.532C16.7815 112.878 19.565 121.128 25.2769 119.468C29.4214 118.265 29.9251 112.761 26.0747 110.761L24.9202 110.16L24.8294 55.5941L24.7397 2.554L24.0122 2.5C23.6122 2.47084 23.2274 2.50432 23.1571 2.57559ZM38.4778 27.1533L38.4324 53.3684L37.7438 53.607C32.8816 55.2884 34.1625 62.7194 39.3144 62.7194C44.3918 62.7194 45.8889 55.9926 41.3099 53.755C40.5759 53.3954 40.323 53.174 40.3219 52.8889C40.3208 52.6772 40.3219 41.0325 40.3241 27.0108C40.3252 12.9891 40.2776 1.38759 40.216 1.22776C40.1371 1.02258 39.8744 0.938344 39.3144 0.938344H38.5232L38.4778 27.1533ZM53.9238 1.15325C53.8741 1.28284 53.8146 21.0702 53.7898 45.1253L53.7455 88.862L46.1786 88.9516L38.6118 89.0424L38.5221 119.82L38.4324 150.598L23.983 150.643L9.53359 150.689L9.15957 149.843C7.203 145.425 1.18089 145.914 0.136671 150.576C-1.03511 155.805 6.43335 158.44 8.87527 153.658C9.17795 153.065 9.50656 152.52 9.60601 152.446C9.70546 152.373 16.6075 152.312 24.9461 152.31C38.601 152.307 40.1154 152.279 40.2149 152.022C40.2744 151.865 40.3241 138.017 40.3241 121.247V90.7562L47.9352 90.7087L55.5474 90.6622V45.8456V1.02906L54.7799 0.972901C54.2708 0.936184 53.9822 0.99666 53.9238 1.15325ZM69.265 1.7688C69.2012 2.23533 69.1493 27.6512 69.1493 58.2485C69.1504 88.8458 69.1504 114.022 69.1504 114.195C69.1494 114.49 68.678 114.51 61.7782 114.51C57.7234 114.51 54.2773 114.56 54.1206 114.619C53.8622 114.718 53.8363 117.66 53.8363 146.115V177.502L46.224 177.548L38.6118 177.596L38.5221 191.454L38.4324 205.313L31.633 205.36L24.8337 205.408L24.7861 197.711L24.7397 190.015L17.0658 189.967L9.39198 189.921L9.18767 189.239C7.79754 184.605 0.78958 185.435 0.0566791 190.319C-0.731352 195.568 6.92195 197.558 9.09147 192.669L9.51089 191.724H16.2681H23.0242L23.0717 199.419L23.1182 207.113L31.6082 207.159L40.0981 207.207L40.2106 206.642C40.2733 206.332 40.3241 200.055 40.3241 192.694V179.309L47.9352 179.262L55.5474 179.215L55.6372 147.807L55.728 116.4L63.3402 116.353L70.9524 116.306L70.907 58.6675L70.8616 1.02906L70.1211 0.975061L69.3818 0.919985L69.265 1.7688ZM84.644 33.4266V65.9138H92.3027H99.9625L100.383 66.8641C102.448 71.5293 109.378 70.106 109.388 65.0142C109.398 59.9548 102.59 58.5304 100.41 63.1362L99.9474 64.1135H93.1956H86.4449V32.811C86.4449 15.5939 86.3963 1.38003 86.3358 1.22344C86.259 1.02366 85.9909 0.938344 85.4353 0.938344H84.644V33.4266ZM100.086 1.05066C100.016 1.12085 99.9571 8.98373 99.9571 18.5237V35.8694L99.1021 36.2333C94.3458 38.2603 95.7089 45.2744 100.859 45.2744C105.952 45.2744 107.38 38.3445 102.711 36.2819L101.761 35.8618L101.715 18.4449L101.669 1.02906L100.942 0.975061C100.542 0.945903 100.157 0.979381 100.086 1.05066ZM130.765 18.3887V35.8391L129.92 36.2128C125.082 38.351 126.344 45.2538 131.576 45.2776C136.743 45.3014 138.202 37.6653 133.311 36.202L132.567 35.9795V18.744C132.567 -0.422352 132.644 0.938344 131.557 0.938344H130.765V18.3887ZM146.208 1.05066C146.137 1.12085 146.079 15.3391 146.079 32.6458V64.1135H139.247H132.414L132.211 63.498C130.564 58.5131 123.117 59.7539 123.117 65.0142C123.117 70.2432 130.048 71.5563 132.184 66.7323L132.545 65.9181L140.167 65.8706L147.79 65.8241V33.4266V1.02906L147.064 0.975061C146.664 0.945903 146.278 0.979381 146.208 1.05066ZM161.573 58.6222V116.306L169.185 116.353L176.797 116.4L176.887 147.807L176.977 179.215L184.588 179.262L192.199 179.309L192.244 193.211L192.291 207.113L200.803 207.159L209.316 207.207L209.319 199.691C209.32 195.557 209.386 192.072 209.466 191.947C209.579 191.77 211.076 191.73 216.339 191.767L223.068 191.814L223.32 192.57C224.936 197.412 232.356 195.974 232.373 190.815C232.391 185.698 225.455 184.353 223.371 189.068L222.994 189.921L215.389 189.967L207.784 190.015L207.695 197.664L207.605 205.313L200.805 205.36L194.004 205.408L193.959 191.502L193.912 177.596L186.3 177.548L178.689 177.502V146.208C178.689 120.283 178.647 114.879 178.448 114.714C178.281 114.576 175.887 114.499 170.746 114.467L163.285 114.42L163.24 57.6794L163.194 0.938344H162.383H161.573V58.6222ZM176.974 1.15325C176.925 1.28284 176.905 21.4751 176.931 46.0249L176.977 90.6622L184.589 90.7087L192.2 90.7562L192.245 121.486L192.291 152.218L207.59 152.307L222.889 152.397L223.394 153.387C226.147 158.782 233.901 155.721 232.163 149.925C230.955 145.898 224.055 145.953 223.246 149.996C223.099 150.73 223.763 150.701 208.235 150.647L194.093 150.598L194.002 119.82L193.912 89.0424L186.301 88.9948L178.689 88.9484L178.643 44.9882L178.598 1.02906L177.831 0.972901C177.322 0.936184 177.034 0.997739 176.974 1.15325ZM192.33 1.05066C192.258 1.12085 192.201 12.906 192.201 27.2387V53.2982L191.345 53.6751C186.675 55.7366 188.001 62.7442 193.059 62.7312C198.164 62.7183 199.631 55.8975 194.993 53.7409L194.093 53.323L194.002 27.176L193.912 1.02906L193.185 0.975061C192.785 0.945903 192.4 0.979381 192.33 1.05066ZM207.695 55.5563V110.173L206.849 110.548C201.982 112.698 203.243 119.635 208.5 119.628C213.721 119.62 215.036 112.504 210.179 110.54C209.853 110.409 209.527 110.215 209.454 110.11C209.381 110.006 209.32 85.3998 209.319 55.4299L209.316 0.938344H208.505H207.695V55.5563ZM223.096 1.15325C223.047 1.28284 222.987 17.4989 222.962 37.1901L222.918 72.9915L222.345 73.187C217.329 74.9008 218.605 82.2713 223.919 82.2886C229.041 82.3058 230.388 75.3771 225.666 73.2939L224.811 72.917L224.765 36.973L224.72 1.02906L223.952 0.972901C223.443 0.936184 223.156 0.99666 223.096 1.15325ZM266.917 1.05066C266.846 1.12085 266.788 14.5615 266.788 30.9169C266.788 57.8684 266.761 60.6654 266.503 60.7647C266.346 60.8252 262.901 60.8738 258.846 60.8738H251.475L251.43 84.6773L251.384 108.481L243.907 108.526C237.169 108.567 236.409 108.602 236.208 108.872C235.951 109.217 235.871 157.44 236.126 157.84C236.236 158.01 238.056 158.074 243.826 158.11L251.384 158.157V176.59V195.024L250.657 195.266C245.749 196.9 247.173 204.464 252.375 204.394C257.427 204.326 258.75 197.679 254.177 195.349L253.185 194.844L253.14 175.645L253.093 156.447L245.663 156.444C241.576 156.442 238.131 156.377 238.006 156.299C237.827 156.184 237.79 151.467 237.826 133.307L237.872 110.46L245.483 110.414L253.096 110.366V86.632C253.096 67.0239 253.138 62.863 253.337 62.6978C253.503 62.5606 255.896 62.4839 261.039 62.4515L268.499 62.404V31.716V1.02906L267.772 0.975061C267.372 0.945903 266.987 0.979381 266.917 1.05066ZM387.806 1.05066C387.735 1.12085 387.677 14.5615 387.677 30.9169C387.677 57.8684 387.65 60.6654 387.392 60.7647C387.235 60.8252 383.79 60.8738 379.735 60.8738H372.363L372.361 84.497C372.358 97.4906 372.294 108.221 372.216 108.344C372.108 108.513 370.287 108.578 364.517 108.614L356.959 108.66V133.319V157.977L364.436 158.022C371.209 158.064 371.934 158.097 372.138 158.372C372.371 158.687 372.49 194.064 372.259 194.665C372.202 194.814 371.717 195.149 371.183 195.41C366.248 197.822 368.735 205.519 374.065 204.326C378.694 203.289 379.194 196.293 374.716 195.202C374.462 195.139 374.195 195 374.123 194.892C374.05 194.783 373.989 186.088 373.988 175.571L373.984 156.447L366.553 156.444C362.465 156.442 359.019 156.377 358.895 156.299C358.715 156.184 358.679 151.467 358.716 133.307L358.761 110.46L366.373 110.414L373.984 110.366V86.632C373.984 67.0239 374.026 62.863 374.225 62.6978C374.392 62.5606 376.786 62.4839 381.927 62.4515L389.388 62.404V31.716V1.02906L388.662 0.975061C388.262 0.945903 387.876 0.979381 387.806 1.05066ZM299.749 2.19429C301.357 3.01395 301.857 5.17162 300.77 6.59603C298.591 9.45026 294.169 6.62411 295.848 3.45131C296.605 2.02258 298.325 1.46858 299.749 2.19429ZM238.772 9.28179C235.121 10.9794 235.183 15.9524 238.879 17.8175L239.854 18.3099L239.9 32.7387L239.946 47.1675L238.998 47.6016C234.91 49.4709 235.229 55.2334 239.489 56.471C245.042 58.0833 247.967 50.1254 242.731 47.6502L241.745 47.1847V32.7095V18.2343L242.602 17.8563C247.383 15.7473 245.882 8.8509 240.644 8.85954C240.008 8.86062 239.362 9.00641 238.772 9.28179ZM362.897 9.09712C358.811 10.6695 358.677 16.0907 362.679 17.8563L363.536 18.2343V32.7214V47.2085L362.768 47.5368C357.282 49.8856 360.081 58.1178 365.805 56.4699C370.045 55.2485 370.3 49.3662 366.193 47.5552L365.336 47.1783V32.7171V18.257L366.092 17.9546C370.932 16.0205 369.692 8.8293 364.526 8.87574C363.931 8.88114 363.198 8.98049 362.897 9.09712ZM415.101 9.32174C411.534 11.0982 411.697 16.1166 415.377 17.8088L416.323 18.244V32.7149V47.1847L415.417 47.5746C410.719 49.594 412.124 56.6243 417.223 56.6167C422.37 56.6092 423.72 49.647 418.98 47.5562L418.125 47.1783V32.7063V18.2343L418.98 17.8563C422.68 16.2246 422.932 11.2008 419.407 9.36062C418.083 8.66948 416.442 8.65436 415.101 9.32174ZM242.561 11.1576C243.708 12.0032 244.076 13.8682 243.317 14.9913C241.95 17.0183 239.269 16.9168 238.176 14.7958C236.792 12.1133 240.116 9.35522 242.561 11.1576ZM365.906 10.9503C367.376 11.6878 367.867 13.6285 366.959 15.1144C365.487 17.527 361.553 16.3898 361.553 13.5507C361.553 11.2667 363.828 9.90706 365.906 10.9503ZM418.754 10.9967C420.582 12.0496 420.586 14.9049 418.76 15.974C416.75 17.1511 414.299 15.825 414.299 13.5593C414.299 11.1814 416.689 9.80663 418.754 10.9967ZM342.715 17.4773C338.946 19.1879 338.894 24.3283 342.628 26.1166L343.627 26.595V48.729V70.863L336.015 70.9105L328.404 70.957V87.7821V104.607L336.015 104.654L343.627 104.701L343.673 124.546L343.719 144.391L342.77 144.811C338.311 146.781 339.195 153.247 344.006 153.847C349.272 154.505 351.344 147.32 346.582 144.918L345.52 144.384L345.475 123.642L345.429 102.901L337.772 102.811L330.115 102.721V87.7821V72.8436L337.772 72.7529L345.429 72.6632L345.475 49.5951L345.52 26.5259L346.326 26.2181C349.572 24.9806 350.276 20.6166 347.608 18.271C346.298 17.1188 344.241 16.7851 342.715 17.4773ZM346.432 19.5756C349.367 22.3628 345.596 26.6274 342.555 23.96C341.075 22.662 341.326 20.3628 343.066 19.2699C343.954 18.7127 345.691 18.8715 346.432 19.5756ZM101.99 37.9039C103.974 38.7517 104.41 41.1707 102.856 42.7214C101.023 44.553 97.9454 43.2398 97.9454 40.6253C97.9454 38.5044 100.062 37.08 101.99 37.9039ZM133.365 38.2635C135.528 39.9115 134.613 43.2214 131.912 43.526C130.705 43.6621 129.593 43.0692 129.018 41.9828C127.559 39.2268 130.889 36.378 133.365 38.2635ZM281.496 39.5584C277.336 40.8867 277.383 47.2387 281.561 48.5433C282.283 48.7679 282.277 48.6847 282.279 57.8597L282.282 66.6341H289.654C293.709 66.6341 297.154 66.6827 297.311 66.7431C297.564 66.8403 297.596 67.5952 297.596 73.4019V79.9527H290.065C284.448 79.9527 282.48 80.0078 282.318 80.1687C282.155 80.3307 282.101 82.6957 282.101 89.7033V99.0208L281.205 99.4063C276.502 101.428 277.992 108.432 283.124 108.434C288.218 108.438 289.533 100.937 284.721 99.334L283.993 99.091V90.4668V81.8425L291.551 81.795C297.322 81.7594 299.142 81.6957 299.25 81.525C299.414 81.267 299.451 65.7237 299.288 65.2982C299.191 65.0455 298.348 65.0142 291.651 65.0142C284.952 65.0142 284.11 64.9829 284.013 64.7291C283.953 64.5725 283.903 60.9267 283.903 56.6275V48.81L284.849 48.3845C290.346 45.9115 287.237 37.7268 281.496 39.5584ZM402.303 39.607C398.236 41.0573 398.174 46.7398 402.206 48.4666L402.991 48.8025V57.7183V66.6341H410.362C414.417 66.6341 417.863 66.6827 418.02 66.7431C418.272 66.8403 418.304 67.5952 418.304 73.4019V79.9527H410.933C406.878 79.9527 403.432 80.0024 403.275 80.0618C403.021 80.16 402.991 81.1676 402.991 89.5877V99.0046L402.045 99.4398C397.335 101.605 398.818 108.472 403.988 108.443C409.316 108.412 410.353 101.052 405.286 99.2184L404.789 99.0392L404.835 90.4408L404.883 81.8425L412.494 81.7961L420.106 81.7486V73.3836V65.0174L412.494 64.971L404.883 64.9235L404.835 56.864L404.789 48.8035L405.587 48.4623C411.229 46.0465 408.077 37.5486 402.303 39.607ZM284.371 41.418C286.505 42.3867 286.554 45.4904 284.451 46.6005C282.384 47.6934 280.21 46.3759 280.21 44.0314C280.21 41.7463 282.258 40.4601 284.371 41.418ZM405.023 41.3229C407.008 42.1718 407.443 44.5897 405.889 46.1415C403.272 48.756 399.295 44.972 401.682 42.1372C402.525 41.1372 403.839 40.8175 405.023 41.3229ZM242.418 49.472C245.364 51.6696 242.804 56.1751 239.512 54.5843C236.603 53.1772 237.764 48.8187 240.988 49.0476C241.567 49.0897 242.127 49.255 242.418 49.472ZM365.907 49.3932C367.963 50.5476 367.909 53.5487 365.813 54.5617C362.933 55.9548 360.172 52.4979 362.22 50.0649C363.15 48.9612 364.651 48.688 365.907 49.3932ZM418.679 49.404C421.22 51.1146 420.235 54.8446 417.242 54.8446C414.237 54.8446 413.129 50.9731 415.693 49.4321C416.649 48.8565 417.849 48.8457 418.679 49.404ZM40.9954 55.5908C42.8849 57.0001 42.6709 59.6891 40.59 60.6967C37.8022 62.0444 35.1419 58.6081 37.0736 56.1545C37.9113 55.0908 39.9349 54.8003 40.9954 55.5908ZM194.525 55.4893C195.766 56.2442 196.321 57.4666 195.987 58.7053C195.079 62.0725 190.222 61.5336 190.22 58.066C190.217 55.8241 192.668 54.3576 194.525 55.4893ZM330.915 57.2669C333.796 59.3165 331.078 63.8587 327.91 62.2896C325.045 60.8695 326.146 56.5509 329.316 56.7723C329.996 56.8198 330.511 56.9785 330.915 57.2669ZM106.22 62.4926C108.329 63.7777 108.078 66.7313 105.774 67.7496C103.781 68.6308 101.557 66.9278 101.808 64.7107C102.041 62.6395 104.462 61.4224 106.22 62.4926ZM129.342 62.539C130.885 63.5606 131.149 65.6675 129.898 66.9796C127.984 68.9883 124.82 67.7367 124.82 64.971C124.82 62.7863 127.521 61.3338 129.342 62.539ZM265.505 67.6762C261.992 69.5099 262.203 74.5272 265.862 76.1784L266.788 76.5974V110.763V144.928H275.344H283.9L283.947 135.253L283.993 125.579H290.749H297.505L297.552 149.448L297.597 173.316L296.446 173.882C292.523 175.812 292.98 181.433 297.158 182.646C302.669 184.247 305.581 176.277 300.384 173.821L299.397 173.355V148.807C299.397 135.305 299.348 124.131 299.288 123.974C299.121 123.54 282.378 123.54 282.211 123.974C282.151 124.131 282.101 128.546 282.101 133.786V143.313L275.391 143.265L268.68 143.217L268.635 109.871L268.588 76.5239L269.084 76.3447C274.184 74.5002 273.07 67.174 267.689 67.174C266.703 67.174 266.283 67.2701 265.505 67.6762ZM386.511 67.5455C382.734 69.4267 382.979 74.7896 386.909 76.2885L387.677 76.5823V110.755V144.928H396.235H404.792V135.209V125.49H411.548H418.304V149.434V173.379L417.538 173.707C412.172 176.005 414.913 184.284 420.502 182.658C424.719 181.433 425.264 175.949 421.368 173.939L420.196 173.335L420.106 148.558L420.017 123.779H411.548H403.081L402.991 133.498L402.9 143.217L396.19 143.265L389.479 143.313V109.931V76.5499L390.334 76.1719C394.201 74.4656 394.177 69.0542 390.295 67.4343C389.375 67.0498 387.386 67.1082 386.511 67.5455ZM269.219 69.3123C270.085 69.8112 270.572 70.6859 270.572 71.7475C270.572 75.5769 265.117 75.8436 264.84 72.0293C264.662 69.5542 267.06 68.0671 269.219 69.3123ZM390.216 69.4148C392.579 70.9699 391.368 74.7345 388.506 74.7324C386.031 74.7302 384.63 71.8868 386.191 70.0336C387.252 68.7734 388.864 68.5261 390.216 69.4148ZM9.98759 75.025C11.9052 75.9343 12.0382 79.011 10.2081 80.1233C8.44288 81.1968 6.27012 80.3263 5.7318 78.3317C5.08213 75.9181 7.65485 73.9192 9.98759 75.025ZM225.364 75.1427C227.616 76.6579 227.147 79.8155 224.569 80.5088C221.935 81.2173 219.853 77.9397 221.56 75.7723C222.397 74.7097 224.264 74.4008 225.364 75.1427ZM311.919 79.8371C308.078 81.6298 308.217 87.0305 312.142 88.5283L312.909 88.821V101.576V114.33H320.454C326.599 114.33 328.036 114.375 328.203 114.575C328.351 114.753 328.393 118.092 328.36 126.766L328.313 138.713L327.413 139.135C322.664 141.365 324.014 148.256 329.195 148.229C334.315 148.202 335.667 140.717 330.843 139.111L330.115 138.869L330.069 125.791L330.022 112.714L322.412 112.667L314.801 112.62L314.76 100.741L314.718 88.862L315.834 88.3221C317.704 87.4171 318.615 85.8242 318.457 83.7346C318.212 80.5088 314.816 78.484 311.919 79.8371ZM84.3738 80.1114C79.971 81.2616 79.5224 87.2141 83.6982 89.0683L84.6451 89.4884L84.5997 112.483L84.5532 135.479H77.7971H71.0411V131.893V128.309L71.5815 128.132C76.0708 126.665 75.7022 119.977 71.08 119.018C65.5086 117.862 63.138 125.782 68.3829 128.027L69.1493 128.356V130.432C69.1493 131.575 69.118 132.509 69.0791 132.509C69.0402 132.509 68.6553 132.348 68.224 132.153C65.1043 130.739 61.5825 133.027 61.5825 136.468C61.5825 139.925 65.1887 142.201 68.3008 140.708C68.6759 140.529 69.0207 140.419 69.0683 140.467C69.1948 140.592 69.1818 193.506 69.0564 193.71C68.9894 193.817 66.0588 193.884 61.3923 193.884H53.8363V208.81V223.735L52.8893 224.168C47.6823 226.549 50.3955 234.64 55.8674 233.05C60.2432 231.779 60.6821 225.92 56.5344 224.137L55.6372 223.751V209.738V195.726L56.0425 195.617C56.2663 195.558 59.7114 195.508 63.6991 195.506L70.9503 195.504L70.9957 166.481L71.0411 137.458H77.7971H84.5532V144.013V150.567L83.5847 151.069C78.0231 153.939 81.7719 162.264 87.4362 159.624C91.1245 157.904 90.9396 152.025 87.1649 150.944L86.5358 150.764L86.4882 144.066L86.4406 137.369H93.2054H99.9701L100.306 138.152C102.363 142.946 109.398 141.642 109.388 136.468C109.378 131.349 102.463 129.933 100.382 134.624L99.9625 135.568H93.2032H86.4449V112.477V89.3847L87.0535 89.1644C92.5027 87.1957 89.9722 78.6482 84.3738 80.1114ZM145.533 80.2291C141.385 81.5067 141.24 87.4063 145.313 89.1514L146.08 89.4797L146.035 112.479L145.989 135.479L139.282 135.525L132.574 135.573L132.047 134.536C129.696 129.911 123.117 131.334 123.117 136.468C123.117 141.728 130.564 142.969 132.211 137.984L132.414 137.369H139.247H146.079V144.004V150.639L145.279 150.943C140.514 152.762 141.883 160.047 146.989 160.047C151.979 160.047 153.502 153.315 149.005 151.138L147.89 150.598L147.885 143.981L147.881 137.364L154.681 137.411L161.483 137.458L161.528 166.481L161.574 195.504L168.825 195.506C172.813 195.508 176.259 195.558 176.483 195.617L176.889 195.726L176.843 209.773L176.797 223.819L176.223 224.016C171.273 225.707 172.486 233.155 177.717 233.182C182.846 233.209 184.26 226.202 179.545 224.123L178.691 223.746L178.645 208.86L178.598 193.974L170.941 193.879C166.73 193.827 163.264 193.766 163.24 193.744C162.965 193.5 163.234 140.399 163.51 140.485C163.683 140.539 164.15 140.708 164.545 140.858C169.237 142.641 173.086 136.643 169.53 133.09C168.226 131.788 165.991 131.387 164.301 132.153C163.869 132.348 163.443 132.509 163.355 132.509C163.267 132.509 163.194 131.581 163.194 130.447V128.386L164.041 128.012C168.86 125.883 167.6 118.999 162.383 118.956C157.291 118.915 155.873 125.673 160.492 127.969L161.483 128.462V131.97V135.479L154.681 135.525L147.881 135.573V112.526V89.4786L148.665 89.1439C154.208 86.7702 151.287 78.457 145.533 80.2291ZM99.221 80.9192C95.15 82.3728 95.2441 88.7324 99.3507 89.8296L99.8674 89.9678L99.9571 108.764L100.048 127.559L107.659 127.606L115.271 127.653V142.66C115.271 156.37 115.245 157.678 114.977 157.781C114.816 157.843 111.438 157.888 107.472 157.883C103.506 157.876 100.193 157.939 100.111 158.022C100.027 158.105 99.9388 165.175 99.9139 173.734L99.8674 189.294L92.2563 189.341L84.6451 189.388L84.5997 207.07L84.5532 224.751L76.8967 224.842L69.2402 224.932L69.1937 240.972L69.1483 257.011L68.3581 257.312C64.4028 258.822 64.553 265.003 68.5743 266.207C74.3218 267.927 77.3734 259.936 71.9426 257.386L71.0411 256.964L70.9957 241.803L70.9492 226.641H78.4814C84.0992 226.641 86.0677 226.587 86.2288 226.425C86.3941 226.261 86.4449 222.079 86.4449 208.698V191.189L94.0572 191.141L101.669 191.095L101.759 175.345L101.849 159.597H116.263H130.675L130.765 175.345L130.856 191.095L138.467 191.141L146.079 191.189V208.825C146.079 218.525 146.1 226.479 146.124 226.502C146.149 226.523 149.615 226.584 153.826 226.637L161.483 226.732L161.529 241.808L161.575 256.883L160.589 257.349C155.884 259.575 157.237 266.415 162.383 266.415C167.386 266.415 168.861 259.544 164.315 257.416C163.847 257.196 163.405 256.925 163.333 256.813C163.26 256.701 163.198 249.462 163.197 240.728L163.194 224.845L155.583 224.799L147.971 224.751L147.881 207.113L147.79 189.475L140.223 189.384L132.657 189.294L132.567 173.636L132.477 157.977L124.82 157.882C120.609 157.83 117.142 157.769 117.117 157.747C117.092 157.725 117.092 150.964 117.117 142.723L117.163 127.739L124.82 127.649L132.477 127.559L132.567 108.757L132.657 89.9549L133.257 89.7832C137.264 88.6352 137.241 82.4765 133.225 80.943C127.58 78.7896 124.296 87.1298 129.775 89.7043L130.675 90.1277V107.943V125.76L116.216 125.805L101.757 125.851L101.803 107.925L101.849 89.9981L102.547 89.7583C105.902 88.6061 106.628 83.8026 103.774 81.6276C102.54 80.6881 100.68 80.3987 99.221 80.9192ZM315.251 81.5942C316.633 82.3695 317.149 84.4333 316.286 85.7302C314.608 88.2529 310.777 87.0035 310.963 83.9948C311.105 81.6827 313.261 80.4764 315.251 81.5942ZM87.2233 82.3447C90.0911 84.5305 87.2827 88.9614 84.096 87.2778C82.0086 86.1752 82.013 83.2205 84.1036 82.146C85.1586 81.6039 86.3498 81.6795 87.2233 82.3447ZM148.111 82.0002C150.096 82.849 150.531 85.267 148.978 86.8177C147.132 88.6622 144.098 87.3598 144.098 84.7227C144.098 82.5715 146.167 81.1687 148.111 82.0002ZM102.404 82.8415C105.005 84.4473 103.825 88.2324 100.722 88.2324C97.8979 88.2324 96.8504 84.4786 99.2286 82.8782C100.034 82.335 101.556 82.3177 102.404 82.8415ZM133.041 82.7659C134.276 83.3512 134.934 85.3523 134.294 86.5758C132.818 89.4009 128.694 88.51 128.694 85.3663C128.694 83.1287 130.954 81.7767 133.041 82.7659ZM284.794 101.363C287.678 103.416 284.927 107.994 281.78 106.376C278.933 104.913 280.028 100.648 283.194 100.87C283.875 100.917 284.389 101.076 284.794 101.363ZM405.264 101.123C407.003 101.947 407.38 104.401 405.983 105.797C404.057 107.721 400.968 106.414 400.968 103.675C400.968 101.526 403.253 100.17 405.264 101.123ZM25.3774 112.404C27.467 113.508 27.4572 116.406 25.3612 117.531C23.8835 118.322 21.9151 117.679 21.2978 116.202C20.1704 113.507 22.8112 111.049 25.3774 112.404ZM209.943 112.402C213.201 114.245 210.639 119.135 207.227 117.587C205.737 116.911 205.12 115.125 205.869 113.657C206.675 112.078 208.421 111.54 209.943 112.402ZM250.575 112.587C246.748 113.805 246.618 119.525 250.377 121.325L251.384 121.808L251.431 133.37L251.476 144.931L250.49 145.398C245.991 147.526 246.943 153.98 251.821 154.417C257.172 154.897 258.973 147.712 254.081 145.399L253.093 144.931L253.139 133.37L253.185 121.808L254.184 121.33C259.639 118.717 256.349 110.75 250.575 112.587ZM371.192 112.774C367.544 114.474 367.583 119.742 371.255 121.32C372.449 121.834 372.369 120.949 372.36 133.474C372.351 145.521 372.396 144.962 371.407 145.375C367.455 147.024 367.547 152.806 371.546 154.167C377.309 156.129 380.471 147.983 374.958 145.377L373.982 144.916L374.029 133.362L374.075 121.808L375.074 121.33C379.667 119.13 378.233 112.353 373.174 112.353C372.419 112.353 371.821 112.481 371.192 112.774ZM253.373 114.308C256.354 115.661 255.529 119.91 252.285 119.91C248.94 119.91 248.217 115.359 251.384 114.24C252.324 113.909 252.505 113.915 253.373 114.308ZM374.003 114.174C375.823 114.782 376.643 116.772 375.735 118.374C374.669 120.256 372.251 120.482 370.86 118.831C369.08 116.716 371.385 113.301 374.003 114.174ZM71.1848 120.873C73.3122 121.761 73.6819 124.726 71.8302 126.046C71.0086 126.631 69.2434 126.663 68.4986 126.108C65.6816 124.007 67.9765 119.534 71.1848 120.873ZM163.429 120.873C164.794 121.443 165.604 123.055 165.199 124.402C164.251 127.564 159.767 127.148 159.452 123.871C159.246 121.739 161.476 120.058 163.429 120.873ZM67.7484 133.879C69.6585 134.867 69.5904 138.131 67.6392 139.056C65.2978 140.166 62.7338 138.162 63.3878 135.735C63.8991 133.842 65.9691 132.96 67.7484 133.879ZM105.57 133.593C106.883 133.957 107.914 135.644 107.626 136.956C107.076 139.457 104.059 140.217 102.419 138.269C100.608 136.12 102.824 132.831 105.57 133.593ZM128.887 133.75C131.832 135.086 130.984 139.345 127.774 139.347C125.499 139.349 124.103 136.981 125.214 135.007C126.009 133.594 127.455 133.1 128.887 133.75ZM167.895 134.035C169.114 134.828 169.504 136.583 168.758 137.908C167.789 139.63 165.136 139.867 163.931 138.338C161.84 135.682 165.059 132.186 167.895 134.035ZM330.915 141.141C332.33 142.147 332.53 144.169 331.343 145.48C329.405 147.624 326.011 146.134 326.286 143.263C326.504 141.009 329.073 139.83 330.915 141.141ZM346.342 146.814C347.191 147.462 347.563 148.354 347.455 149.481C347.176 152.385 343.277 153.118 341.96 150.513C340.549 147.719 343.859 144.923 346.342 146.814ZM253.006 146.925C256.275 147.814 255.712 152.667 252.339 152.667C249.033 152.667 248.171 148.439 251.196 147.066C252.058 146.675 252.078 146.673 253.006 146.925ZM374.012 146.912C375.326 147.277 376.356 148.964 376.068 150.276C375.518 152.776 372.501 153.537 370.86 151.588C369.05 149.439 371.267 146.151 374.012 146.912ZM6.09933 148.932C8.13697 149.958 8.18453 152.939 6.18256 154.059C3.61309 155.494 0.732288 152.617 2.18079 150.061C2.98504 148.643 4.6011 148.178 6.09933 148.932ZM228.824 148.775C231.915 150.097 230.81 154.743 227.482 154.424C224.539 154.141 223.802 150.276 226.436 148.932C227.347 148.467 228.002 148.424 228.824 148.775ZM308.532 152.387C304.12 153.959 304.193 160.103 308.64 161.394C311.075 162.101 313.882 160.605 314.468 158.29C314.621 157.683 314.305 157.694 329.485 157.747L343.627 157.796V170.576V183.355L336.015 183.401L328.404 183.449V197.316V211.183L327.576 211.549C322.621 213.738 323.955 220.71 329.325 220.701C334.282 220.691 335.638 213.889 331.114 211.722L330.115 211.244V198.289V185.334L337.628 185.245C342.544 185.185 345.207 185.089 345.331 184.965C345.462 184.833 345.507 180.326 345.475 170.476L345.429 156.177L330.116 156.087L314.803 155.997L314.31 155.007C313.176 152.728 310.71 151.611 308.532 152.387ZM86.5433 152.645C89.5571 154.013 88.7074 158.249 85.418 158.246C82.1092 158.243 81.4346 153.691 84.5781 152.571C85.4905 152.246 85.6785 152.253 86.5433 152.645ZM148.444 152.769C149.564 153.348 150.2 154.835 149.862 156.088C149.185 158.603 145.485 159.043 144.39 156.738C143.124 154.074 145.834 151.421 148.444 152.769ZM311.18 154.178C313.326 155.074 313.444 158.283 311.374 159.455C309.106 160.738 306.376 158.58 307.121 156.093C307.657 154.306 309.454 153.457 311.18 154.178ZM328.103 160.571C323.709 161.682 323.217 168.217 327.424 169.587C327.814 169.714 328.193 169.908 328.266 170.017C328.444 170.285 328.435 175.557 328.256 175.839C328.148 176.008 326.328 176.073 320.557 176.109L313 176.155L312.953 194.565L312.908 212.976L312.124 213.312C308.133 215.02 308.145 220.649 312.143 222.143C317.925 224.304 321.174 215.743 315.495 213.311L314.711 212.976V195.422V177.869L322.323 177.822L329.935 177.775L330.025 173.831L330.115 169.887L330.689 169.692C336.185 167.816 333.728 159.148 328.103 160.571ZM3.28771 162.343C0.29017 163.412 -0.831882 166.566 0.793904 169.355C2.6694 172.572 7.6354 172.139 9.07633 168.634L9.42549 167.786L24.0122 167.831L38.5988 167.876L38.7686 168.467C39.9165 172.467 46.4705 172.389 47.679 168.361C49.4064 162.601 41.1618 159.463 38.8626 165.005L38.4561 165.987H23.9992H9.54223L9.10876 165.04C8.03427 162.695 5.54046 161.539 3.28771 162.343ZM187.728 162.359C185.021 163.321 183.799 166.348 185.07 168.942C186.85 172.578 191.991 172.344 193.679 168.551L194.019 167.786H208.505H222.992L223.37 168.641C225.449 173.336 232.361 171.989 232.371 166.886C232.381 161.648 224.976 160.275 223.282 165.199L223.042 165.896H208.492H193.942L193.699 165.169C192.93 162.861 190.083 161.522 187.728 162.359ZM330.572 162.62C333.374 164.101 332.148 168.319 328.981 168.093C325.254 167.828 325.492 162.237 329.231 162.21C329.538 162.208 330.141 162.393 330.572 162.62ZM6.10041 164.24C7.51973 164.991 8.04833 166.584 7.37056 168.074C6.11554 170.835 1.76894 169.871 1.76894 166.832C1.76894 165.361 3.28663 163.827 4.74162 163.827C5.05727 163.827 5.66802 164.012 6.10041 164.24ZM44.2307 164.018C46.5472 164.895 46.8197 168.165 44.6772 169.368C42.7563 170.445 40.5176 169.267 40.3608 167.096C40.1965 164.821 42.1812 163.242 44.2307 164.018ZM190.507 164.169C193.069 165.331 192.582 169.254 189.82 169.702C187.03 170.155 185.197 167.047 187.026 164.966C188.031 163.823 189.17 163.562 190.507 164.169ZM229.491 164.52C231.822 166.391 230.417 170.004 227.468 169.721C224.498 169.436 223.785 165.603 226.442 164.22C227.477 163.681 228.582 163.79 229.491 164.52ZM281.201 166.001C277.351 167.739 277.466 173.171 281.387 174.738C282.359 175.127 282.297 173.996 282.242 190.555L282.192 205.313L274.535 205.404L266.878 205.493L266.833 223.175L266.786 240.856L259.175 240.904L251.564 240.95L251.474 256.7L251.384 272.448L243.793 272.494L236.201 272.542L236.093 272.945C235.942 273.51 235.988 305.105 236.142 305.655L236.267 306.106L243.825 306.195L251.384 306.285V324.099V341.914L250.386 342.392C244.84 345.048 248.576 353.526 254.177 350.998C257.911 349.313 257.819 343.234 254.046 342.288C253.772 342.22 253.446 342.079 253.322 341.976C253.143 341.828 253.096 337.875 253.096 323.094V304.4L245.483 304.352L237.872 304.306L237.826 289.378C237.789 277.555 237.827 274.421 238.006 274.307C238.131 274.228 241.577 274.162 245.664 274.161L253.096 274.158L253.099 258.634C253.1 250.096 253.165 243.009 253.243 242.887C253.351 242.717 255.171 242.653 260.942 242.617L268.499 242.57L268.545 224.886L268.591 207.203H276.247H283.901L283.948 191.143L283.993 175.084L284.992 174.605C290.496 171.97 286.759 163.49 281.201 166.001ZM402.36 165.846C398.427 167.239 398.13 172.817 401.895 174.568L402.987 175.075L402.989 190.237L402.991 205.399L395.379 205.447L387.767 205.493L387.721 223.175L387.675 240.856L380.065 240.904L372.454 240.95L372.363 256.555C372.303 266.989 372.211 272.222 372.086 272.347C371.964 272.469 369.291 272.551 364.43 272.581L356.959 272.628V289.367V306.106L364.517 306.152C370.287 306.188 372.108 306.253 372.216 306.422C372.38 306.681 372.418 341.301 372.254 341.728C372.193 341.885 371.768 342.179 371.308 342.382C366.613 344.454 368.047 351.355 373.174 351.366C378.241 351.377 379.683 344.601 375.083 342.396L374.075 341.914L374.029 323.154L373.983 304.395H366.327H358.671V289.385C358.671 275.865 358.699 274.366 358.955 274.267C359.112 274.207 362.557 274.158 366.612 274.158H373.983L374.029 258.454L374.075 242.75L381.732 242.661L389.388 242.57L389.435 224.888L389.48 207.207L397.091 207.159L404.702 207.113L404.749 191.073L404.794 175.034L405.562 174.741C411.223 172.58 408.072 163.823 402.36 165.846ZM114.076 167.083C109.857 168.304 109.532 174.064 113.575 175.975L114.55 176.436V190.807C114.55 206.257 114.603 205.427 113.609 205.677C109.663 206.666 109.939 213.455 113.97 214.574C119.646 216.15 122.64 208.07 117.255 205.708C116.808 205.513 116.383 205.262 116.31 205.153C116.153 204.916 116.127 177.238 116.284 176.658C116.348 176.417 116.62 176.185 116.972 176.069C122.601 174.213 119.772 165.433 114.076 167.083ZM284.581 167.785C286.791 169.131 286.277 172.504 283.76 173.173C281.951 173.656 280.12 172.186 280.12 170.251C280.12 168.119 282.746 166.668 284.581 167.785ZM405.458 167.778C407.639 169.106 407.128 172.509 404.646 173.177C401.37 174.058 399.526 169.381 402.504 167.741C403.283 167.312 404.723 167.33 405.458 167.778ZM117.025 169.163C118.54 170.293 118.783 172.313 117.559 173.611C115.094 176.222 111.047 173.07 112.922 169.999C113.689 168.744 115.867 168.3 117.025 169.163ZM299.65 175.416C301.149 176.043 301.816 178.129 300.977 179.572C299.917 181.396 297.633 181.589 296.214 179.976C294.154 177.632 296.74 174.201 299.65 175.416ZM420.999 175.7C423.933 177.787 421.155 182.333 417.945 180.7C415.826 179.622 415.844 176.544 417.977 175.458C418.804 175.037 420.227 175.151 420.999 175.7ZM355.287 179.892C351.437 181.124 351.271 187.016 355.04 188.636C355.528 188.845 355.976 189.146 356.038 189.305C356.197 189.718 356.17 217.692 356.011 217.932C355.937 218.041 355.559 218.234 355.169 218.361C350.848 219.77 351.464 226.237 356.028 227.374C361.176 228.657 363.867 221.06 359.123 218.642C358.529 218.34 357.983 218.012 357.909 217.912C357.835 217.813 357.793 211.3 357.817 203.438L357.86 189.144L358.829 188.643C364.236 185.853 361.072 178.039 355.287 179.892ZM358.31 181.744C359.801 182.495 360.338 184.247 359.521 185.69C358.454 187.571 356.037 187.798 354.646 186.145C352.659 183.787 355.528 180.34 358.31 181.744ZM6.09284 188.214C7.87861 189.137 8.20831 191.547 6.74143 192.966C4.23789 195.391 0.309627 192.009 2.33321 189.171C3.158 188.014 4.86377 187.579 6.09284 188.214ZM229.067 188.237C230.864 189.089 231.227 191.468 229.781 192.914C227.888 194.804 224.81 193.482 224.81 190.778C224.81 188.704 227.13 187.319 229.067 188.237ZM253.818 197.169C256.246 198.819 255.396 202.341 252.496 202.651C250.07 202.911 248.437 199.891 249.939 197.923C250.847 196.733 252.659 196.381 253.818 197.169ZM374.843 197.243C377.916 199.519 374.813 204.177 371.562 202.169C369.726 201.036 369.777 198.443 371.659 197.153C372.437 196.619 374.064 196.665 374.843 197.243ZM297.203 198.988C292.873 200.188 292.571 206.58 296.778 207.98L297.505 208.223L297.552 222.292C297.577 230.03 297.577 236.378 297.552 236.399C297.527 236.42 294.06 236.48 289.849 236.534L282.192 236.63L282.146 265.653L282.1 294.676H275.345H268.589V288.041V281.406L269.39 281.101C274.431 279.177 272.644 271.609 267.251 272.042C262.498 272.423 261.352 278.82 265.664 280.907L266.779 281.447L266.783 288.061L266.788 294.676H259.966H253.144L252.823 293.835C250.997 289.059 243.825 290.447 243.825 295.577C243.825 300.819 250.98 302.138 252.852 297.241L253.146 296.472L259.922 296.519L266.697 296.566L266.744 319.566L266.789 342.565L266.005 342.901C261.883 344.666 262.089 350.571 266.317 351.826C272.048 353.526 274.879 345.259 269.374 342.901L268.589 342.566V319.521V296.476H275.345H282.101V300.055V303.634L281.116 304.116C276.163 306.537 278.528 314.054 283.92 313.031C288.628 312.139 289.102 305.477 284.567 303.93L283.993 303.734L283.942 301.635C283.887 299.339 283.866 299.374 285.009 299.892C286.593 300.61 288.898 300.235 290.105 299.065C293.881 295.401 289.769 289.104 285.009 291.26C284.578 291.457 284.152 291.617 284.063 291.617C283.739 291.617 283.863 238.395 284.189 238.27C284.346 238.21 287.782 238.161 291.826 238.161C298.365 238.161 299.191 238.129 299.288 237.876C299.348 237.719 299.397 231.006 299.397 222.959V208.325L300.384 207.843C305.518 205.333 302.692 197.467 297.203 198.988ZM418.077 198.992C413.724 200.196 413.363 206.116 417.53 207.958L418.304 208.3V222.307V236.316L417.742 236.428C417.432 236.49 413.987 236.541 410.085 236.541H402.991V265.609V294.676H396.235H389.479V288.041V281.406L390.249 281.112C395.248 279.205 393.465 271.614 388.117 272.043C383.202 272.437 382.172 278.908 386.686 281.029L387.587 281.452V288.019V294.586L380.819 294.634L374.051 294.68L373.631 293.753C371.515 289.076 364.604 290.468 364.62 295.567C364.638 300.806 371.871 302.134 373.741 297.241L374.035 296.472L380.811 296.519L387.587 296.566L387.633 319.562L387.678 342.556L386.732 342.976C381.998 345.079 383.35 352.004 388.488 351.972C393.608 351.94 395.142 345.09 390.481 343.074L389.484 342.643L389.482 319.559L389.479 296.476H396.235H402.991V300.071V303.665L402.084 304.055C397.403 306.068 398.805 313.082 403.892 313.092C409.008 313.1 410.419 306.222 405.739 304.082L404.792 303.649V301.593C404.792 300.461 404.856 299.536 404.935 299.536C405.013 299.536 405.394 299.698 405.783 299.896C409.322 301.699 413.558 297.907 412.259 294.099C411.387 291.542 408.308 290.168 405.899 291.26C405.467 291.457 405.041 291.617 404.952 291.617C404.858 291.617 404.81 280.529 404.836 264.934L404.883 238.25L412.493 238.204L420.104 238.156L420.151 223.193L420.196 208.23L420.901 207.986C426.436 206.071 423.723 197.429 418.077 198.992ZM300.019 201.077C300.933 201.642 301.442 202.707 301.334 203.828C301.044 206.842 296.981 207.494 295.754 204.724C294.579 202.07 297.533 199.544 300.019 201.077ZM420.338 200.791C422.023 201.511 422.725 203.424 421.86 204.936C420.406 207.477 416.634 206.71 416.371 203.82C416.175 201.663 418.399 199.963 420.338 200.791ZM234.483 204.847C230.385 206.5 230.281 211.839 234.313 213.62L235.262 214.039L235.215 228.48L235.17 242.922L234.171 243.4C229.578 245.6 231.011 252.376 236.07 252.376C240.339 252.376 242.382 247.327 239.321 244.344C238.775 243.813 238.13 243.367 237.804 243.296C237.493 243.227 237.158 243.021 237.059 242.838C236.851 242.447 236.811 214.421 237.019 214.123C237.092 214.018 237.418 213.825 237.744 213.693C239.946 212.803 241.264 210.321 240.682 208.165C239.951 205.457 236.951 203.853 234.483 204.847ZM237.508 206.715C239.552 207.871 239.503 210.778 237.42 211.85C234.121 213.546 231.379 208.806 234.513 206.821C235.525 206.179 236.5 206.144 237.508 206.715ZM116.658 207.4C119.46 208.756 118.493 212.964 115.379 212.962C112.725 212.96 111.419 209.791 113.33 207.985C114.38 206.993 115.433 206.808 116.658 207.4ZM37.96 209.78C33.7128 211.368 33.4793 216.789 37.5773 218.674L38.5242 219.11L38.4778 236.599L38.4324 254.089L30.8742 254.137C25.1039 254.173 23.2836 254.236 23.1755 254.407C23.0977 254.529 23.0328 256.308 23.0306 258.358L23.0285 262.088L22.0415 262.554C16.8291 265.018 19.7607 272.979 25.2899 271.374C29.4603 270.162 29.9002 264.543 25.9763 262.613L24.8207 262.045L24.8705 259.057L24.9202 256.069L32.513 256.022L40.1057 255.975L40.2181 255.525C40.2808 255.277 40.3262 246.966 40.3197 237.057C40.3122 227.147 40.3306 219.023 40.3608 219.006C40.39 218.988 40.7759 218.815 41.2191 218.623C46.5159 216.318 43.3616 207.761 37.96 209.78ZM191.549 209.834C187.488 211.273 187.402 217.014 191.415 218.733L192.199 219.069L192.245 237.479L192.291 255.89L199.947 255.979L207.605 256.069V259.114V262.159L206.863 262.406C201.254 264.274 204.091 273.025 209.771 271.375C214.056 270.131 214.255 263.433 210.038 262.364C209.342 262.188 209.322 262.067 209.319 258.006L209.316 254.183L201.704 254.136L194.093 254.089L194.046 236.595L194.001 219.1L194.857 218.722C200.369 216.29 197.219 207.826 191.549 209.834ZM21.9875 211.752C18.2787 213.679 18.4441 218.929 22.2621 220.438L23.0285 220.742V233.771V246.8H15.6562C11.6015 246.8 8.15642 246.85 7.99968 246.909C7.74241 247.007 7.71431 248.46 7.71431 261.488V275.958H22.8328C39.6485 275.958 38.3891 275.875 38.8918 277.012C40.9954 281.771 47.8985 280.256 47.8887 275.037C47.8801 270.073 41.0786 268.714 38.9069 273.242L38.4237 274.248H24.0143H9.60601V261.469V248.69L17.2172 248.643L24.8272 248.596L24.8737 234.696L24.9202 220.798L25.8206 220.374C30.5348 218.159 29.1046 211.334 23.9289 211.35C23.075 211.352 22.5496 211.461 21.9875 211.752ZM41.0959 211.932C42.8546 213.271 42.6309 215.929 40.6765 216.926C38.134 218.222 35.4229 215.474 36.7644 212.963C37.6314 211.341 39.6809 210.853 41.0959 211.932ZM194.326 211.597C196.271 212.611 196.635 214.874 195.102 216.406C193.254 218.252 190.219 216.952 190.219 214.313C190.219 212.162 192.509 210.648 194.326 211.597ZM206.614 211.717C202.845 213.418 202.835 218.516 206.597 220.318L207.605 220.801L207.65 234.698L207.697 248.596L215.308 248.643L222.918 248.69V261.469V274.248H208.506H194.095L193.602 273.274C191.052 268.23 183.499 270.588 184.64 276.073C185.566 280.536 191.594 281.246 193.547 277.123C193.803 276.581 194.031 276.119 194.053 276.095C194.074 276.072 200.984 276.011 209.406 275.96L224.72 275.868L224.766 261.569C224.798 251.719 224.754 247.211 224.622 247.08C224.497 246.956 221.836 246.859 216.919 246.8L209.406 246.71V233.756V220.801L210.413 220.318C215.964 217.659 212.221 209.186 206.614 211.717ZM25.3991 213.435C26.5146 213.994 27.1935 215.541 26.84 216.718C25.8325 220.077 21.046 219.503 21.046 216.022C21.046 213.733 23.3117 212.386 25.3991 213.435ZM209.88 213.427C211.623 214.317 211.988 216.635 210.604 218.018C209.311 219.311 207.538 219.299 206.355 217.992C204.151 215.554 206.948 211.932 209.88 213.427ZM330.589 213.427C331.28 213.78 331.975 214.681 332.109 215.398C332.626 218.15 329.272 220.127 327.286 218.242C324.698 215.785 327.423 211.813 330.589 213.427ZM315.4 215.249C317.8 217.024 316.736 220.612 313.811 220.612C310.61 220.612 309.767 216.199 312.73 214.955C313.393 214.676 314.842 214.835 315.4 215.249ZM358.401 220.21C358.875 220.476 359.259 220.887 359.526 221.415C361.253 224.833 356.312 227.517 354.388 224.208C352.901 221.65 355.802 218.759 358.401 220.21ZM312.993 225.067C312.947 225.191 312.889 231.447 312.864 238.971L312.819 252.65L305.253 252.74L297.686 252.829L297.596 284.237L297.505 315.645L289.849 315.734L282.192 315.825L282.142 373.061C282.115 404.54 282.137 430.478 282.191 430.701C282.274 431.046 282.408 431.106 283.096 431.106H283.903V374.32V317.535H291.368C297.913 317.535 298.866 317.5 299.114 317.252C299.37 316.997 299.397 313.891 299.397 285.756V254.543L307.009 254.497L314.621 254.449L314.667 240.543L314.713 226.637L321.514 226.684L328.313 226.732L328.404 234.381L328.494 242.03L336.098 242.078L343.702 242.124L344.079 242.977C346.095 247.538 352.693 246.477 353.047 241.536C353.436 236.101 346.014 234.489 343.98 239.568L343.677 240.325L336.896 240.277L330.115 240.231L330.069 232.536L330.021 224.842H321.549C314.938 224.842 313.059 224.891 312.993 225.067ZM56.1917 225.971C58.2175 227.334 58.118 230.029 56.0036 231.096C53.3185 232.451 50.5912 229.171 52.3499 226.704C53.1725 225.549 55.0383 225.194 56.1917 225.971ZM179.243 225.971C180.302 226.684 180.714 227.477 180.631 228.649C180.405 231.867 176.379 232.515 175.044 229.548C173.924 227.058 176.985 224.451 179.243 225.971ZM99.6869 227.785C95.2927 229.226 94.8863 234.911 99.0502 236.701L99.9561 237.09L100.001 256.389L100.048 275.688L107.615 275.777L115.182 275.868V298.906V321.944L107.615 322.035L100.048 322.124L100.001 346.015L99.9561 369.906L92.3449 369.954L84.7338 370V400.869V431.736L85.4364 431.793C85.8764 431.83 86.1942 431.762 86.2893 431.614C86.3714 431.483 86.4406 417.952 86.4428 401.545L86.4449 371.714L94.0572 371.668L101.669 371.62L101.759 347.683L101.849 323.744H116.263H130.675L130.765 347.592L130.856 371.441L138.467 371.487L146.078 371.535L146.123 401.455L146.169 431.376H146.98H147.79V400.599V369.821L140.179 369.773L132.568 369.727L132.523 345.836L132.477 321.944L124.82 321.854L117.163 321.765V298.816V275.868L124.72 275.821C130.491 275.785 132.312 275.721 132.42 275.551C132.498 275.429 132.563 266.726 132.564 256.213L132.567 237.098L133.423 236.72C139.065 234.231 135.594 225.758 129.833 227.959C125.968 229.436 126.024 235.585 129.913 236.756C130.841 237.034 130.78 235.614 130.725 255.799L130.675 273.888L116.658 274.04C108.949 274.124 102.443 274.142 102.2 274.082L101.759 273.971V255.539V237.107L102.706 236.674C107.907 234.296 105.094 226.01 99.6869 227.785ZM102.043 229.682C104.977 231.014 104.056 235.281 100.836 235.281C99.8199 235.281 98.6556 234.587 98.2546 233.744C97.0299 231.166 99.4934 228.526 102.043 229.682ZM132.854 229.684C135.624 230.94 134.738 235.281 131.712 235.281C129.08 235.281 127.681 232.408 129.375 230.481C130.379 229.338 131.517 229.077 132.854 229.684ZM349.36 238.421C352.425 239.514 351.832 243.836 348.585 244.062C345.247 244.296 344.286 239.546 347.444 238.421C347.821 238.287 348.253 238.177 348.402 238.177C348.55 238.177 348.981 238.287 349.36 238.421ZM237.421 245.095C238.798 245.801 239.457 247.647 238.789 248.924C237.74 250.927 235.203 251.219 233.757 249.501C231.768 247.14 234.652 243.673 237.421 245.095ZM53.2904 249.406C49.201 250.718 48.9621 256.595 52.9293 258.299L53.8341 258.689L53.8806 283.477L53.926 308.266H62.3933H70.8616L70.9513 298.546L71.0411 288.827H77.7971H84.5532V322.109V355.392L83.5847 355.892C78.9484 358.285 80.3558 364.884 85.498 364.867C90.5472 364.85 91.9882 357.884 87.353 355.892L86.446 355.502L86.4006 321.354L86.3552 287.207L77.8663 287.16L69.3764 287.113L69.2585 288.005C69.1937 288.496 69.1439 292.729 69.1493 297.411C69.1548 302.094 69.158 306.067 69.1547 306.241C69.1504 306.535 68.7062 306.555 62.3933 306.555H55.6372V282.625V258.696L56.4933 258.318C61.9306 255.919 58.9385 247.593 53.2904 249.406ZM176.197 249.472C172.155 250.911 171.994 256.456 175.942 258.271L176.888 258.706L176.843 282.585L176.797 306.465H170.041H163.285L163.238 296.792L163.191 287.117H154.636H146.08L146.035 321.352L145.989 355.589L145.397 355.758C140.496 357.162 141.834 364.871 146.98 364.871C152.391 364.871 153.504 357.555 148.376 355.7L147.88 355.521L147.925 322.174L147.971 288.827L154.681 288.78C158.373 288.754 161.412 288.754 161.434 288.78C161.457 288.806 161.518 293.201 161.569 298.546L161.663 308.266H170.131H178.598L178.645 283.493L178.69 258.721L179.676 258.238C185.016 255.628 181.784 247.481 176.197 249.472ZM56.3268 251.426C58.7266 253.202 57.6629 256.789 54.7367 256.789C51.537 256.789 50.6939 252.377 53.6557 251.133C54.3195 250.853 55.768 251.013 56.3268 251.426ZM179.122 251.348C182.453 253.25 179.907 258.197 176.456 256.529C174.619 255.64 174.219 253.287 175.668 251.889C176.732 250.86 177.939 250.671 179.122 251.348ZM71.521 259.147C73.1479 259.977 73.5338 262.223 72.3015 263.688C71.3502 264.816 69.2758 264.962 68.2229 263.974C65.6167 261.526 68.3484 257.528 71.521 259.147ZM163.104 258.877C166.408 259.772 165.799 264.619 162.383 264.619C158.519 264.619 158.44 259.451 162.294 258.699C162.343 258.689 162.708 258.769 163.104 258.877ZM308.331 260.751C305.141 261.969 304.216 265.925 306.541 268.409C308.852 270.878 312.682 270.276 314.194 267.208L314.761 266.058H329.215H343.668L343.961 266.826C345.799 271.633 353.075 270.429 353.084 265.316C353.093 260.132 346.182 258.648 344.087 263.384C343.585 264.519 344.729 264.438 329.215 264.438C313.873 264.438 314.802 264.5 314.359 263.466C313.355 261.127 310.599 259.885 308.331 260.751ZM311.6 262.756C314.511 264.926 311.946 269.44 308.694 267.868C306.444 266.778 306.433 263.763 308.676 262.552C309.394 262.165 310.953 262.273 311.6 262.756ZM349.826 262.653C353.078 264.635 350.528 269.526 347.135 267.813C346.037 267.259 345.519 266.437 345.519 265.248C345.519 262.988 347.96 261.517 349.826 262.653ZM25.4726 264.346C27.281 265.405 27.4616 267.655 25.8509 269.067C23.9916 270.699 21.046 269.368 21.046 266.898C21.046 264.533 23.4382 263.155 25.4726 264.346ZM210.209 264.433C213.147 266.523 210.37 271.058 207.148 269.433C205.014 268.357 205.037 265.286 207.187 264.191C208.014 263.77 209.437 263.884 210.209 264.433ZM44.7853 272.659C46.4229 273.88 46.6089 276.004 45.1906 277.284C42.9541 279.302 39.6485 277.229 40.3922 274.272C40.8256 272.543 43.3757 271.608 44.7853 272.659ZM190.571 272.534C193.258 273.903 192.465 277.851 189.461 278.065C186.295 278.29 185.068 274.072 187.87 272.593C188.832 272.084 189.654 272.067 190.571 272.534ZM269.089 274.112C270.766 274.881 271.123 277.375 269.75 278.746C267.862 280.633 264.806 279.354 264.806 276.678C264.806 274.365 266.901 273.111 269.089 274.112ZM389.749 273.998C391.704 274.798 392.059 277.822 390.344 279.043C387.669 280.945 384.344 277.903 386.048 275.112C386.815 273.854 388.303 273.406 389.749 273.998ZM346.954 276.043C345.812 276.41 344.676 277.446 344.102 278.641L343.619 279.648L328.264 279.693L312.909 279.74V310.514V341.288L305.298 341.336L297.686 341.382V386.199V431.016L298.388 431.074C298.828 431.11 299.146 431.043 299.241 430.894C299.323 430.763 299.393 410.955 299.395 386.876L299.397 343.096L307.009 343.05L314.621 343.002L314.667 312.325C314.703 288.057 314.759 281.619 314.937 281.505C315.191 281.344 342.999 281.301 343.418 281.461C343.567 281.518 343.903 282.002 344.164 282.537C345.944 286.169 350.963 286.164 352.662 282.527C354.386 278.835 350.833 274.798 346.954 276.043ZM99.5961 276.835C95.2019 278.275 95.0279 284.439 99.341 285.862L99.9571 286.065V298.187V310.309L99.0113 310.744C94.3577 312.884 95.7511 319.694 100.844 319.694C106.257 319.694 107.382 312.378 102.254 310.524L101.759 310.345V298.215V286.086L102.589 285.77C107.963 283.719 105.057 275.045 99.5961 276.835ZM130.29 276.863C126.073 278.167 125.747 283.839 129.779 285.746L130.768 286.214L130.722 298.292L130.675 310.368L129.978 310.608C125.057 312.298 126.431 319.687 131.666 319.687C136.716 319.687 138.113 312.708 133.464 310.711L132.567 310.325L132.569 298.226L132.57 286.127L133.654 285.623C138.77 283.245 135.679 275.196 130.29 276.863ZM349.845 277.983C352.426 279.739 351.449 283.428 348.402 283.428C345.708 283.428 344.466 280.202 346.448 278.353C347.375 277.488 348.876 277.325 349.845 277.983ZM7.44406 278.275C3.11692 279.412 2.66399 285.415 6.76737 287.233L7.71322 287.652L7.75863 308.397L7.80403 329.144L15.4163 329.19L23.0285 329.238V344.263V359.287L15.4163 359.335L7.80403 359.381L7.71431 382.405L7.62458 405.428L6.65495 405.929C2.09756 408.281 3.49634 414.885 8.5553 414.903C13.7245 414.922 15.1611 407.653 10.3508 405.818L9.51629 405.499V383.297V361.095L17.1274 361.048L24.7397 361.001V344.263V327.524L17.1274 327.477L9.51629 327.43V307.537V287.644L10.3 287.309C15.6497 285.017 13.0522 276.802 7.44406 278.275ZM222.647 278.286C218.354 279.591 217.974 285.422 222.063 287.233L223.01 287.653L222.965 307.499L222.918 327.343L215.307 327.391L207.695 327.437V344.263V361.088L215.307 361.134L222.918 361.182L222.965 383.339L223.01 405.498L222.241 405.792C217.454 407.618 218.658 414.884 223.751 414.903C228.996 414.924 230.479 407.662 225.611 405.804L224.81 405.499L224.808 382.62C224.805 370.037 224.741 359.641 224.663 359.519C224.555 359.348 222.734 359.284 216.964 359.249L209.406 359.201V344.263V329.324L216.964 329.277C222.734 329.241 224.555 329.177 224.663 329.007C224.741 328.885 224.805 319.527 224.808 308.214L224.81 287.644L225.577 287.315C230.956 285.012 228.223 276.592 222.647 278.286ZM102.275 278.85C104.347 280.027 104.263 282.933 102.124 284.012C100.168 285 97.9757 283.645 97.9757 281.447C97.9757 279.183 100.344 277.753 102.275 278.85ZM133.11 278.882C134.942 280.128 135.01 282.802 133.235 283.883C130.361 285.636 127.239 282.158 129.316 279.518C130.151 278.458 132.023 278.145 133.11 278.882ZM10.2049 280.404C11.8696 281.635 11.9701 283.894 10.4178 285.199C8.35208 286.935 5.11672 284.906 5.7145 282.249C6.14905 280.317 8.68178 279.276 10.2049 280.404ZM225.499 280.404C227.19 281.655 227.264 283.987 225.651 285.216C223.029 287.214 219.686 284.078 221.411 281.239C222.166 279.997 224.346 279.551 225.499 280.404ZM22.7885 283.948C18.5208 285.128 18.07 291.116 22.1194 292.856L23.0252 293.245L23.0717 306.245L23.1182 319.244L30.7747 319.335L38.4324 319.424L38.4788 331.253L38.5242 343.081L37.5481 343.542C32.7735 345.799 34.369 352.966 39.5631 352.593C44.6091 352.231 45.7776 345.305 41.0937 343.517L40.3241 343.224L40.3208 330.694C40.3198 323.802 40.2549 318.064 40.176 317.942C40.0679 317.771 38.2486 317.707 32.4773 317.672L24.9202 317.624V305.404V293.182L25.6088 292.945C31.1379 291.032 28.429 282.39 22.7885 283.948ZM207.3 283.942C204.03 284.848 202.695 288.708 204.731 291.374C205.275 292.087 206.689 293.056 207.186 293.056C207.699 293.056 207.707 293.261 207.655 305.745L207.605 317.624L199.947 317.715L192.291 317.805L192.244 330.525L192.198 343.245L191.583 343.448C186.709 345.055 187.896 352.62 193.025 352.63C198.151 352.641 199.659 345.94 195.053 343.617L194 343.087L194.046 331.255L194.093 319.424L201.703 319.378L209.314 319.33L209.36 306.343L209.406 293.356L210.375 292.855C215.508 290.206 212.818 282.414 207.3 283.942ZM24.8575 285.681C26.1709 286.046 27.2227 287.771 26.9103 289.051C26.092 292.41 21.3443 292.123 21.0989 288.7C20.9487 286.584 22.7874 285.107 24.8575 285.681ZM209.55 285.741C210.916 286.31 211.726 287.923 211.321 289.27C210.373 292.431 205.888 292.016 205.574 288.738C205.368 286.607 207.598 284.925 209.55 285.741ZM250.08 293.151C252.544 294.825 251.371 298.506 248.38 298.484C246.728 298.471 245.529 297.225 245.529 295.52C245.529 293.307 248.233 291.898 250.08 293.151ZM288.422 293.106C290.917 294.785 289.953 298.46 287.011 298.484C284.007 298.506 282.833 294.758 285.326 293.103C286.171 292.542 287.585 292.543 288.422 293.106ZM370.673 292.989C372.407 293.811 372.738 296.576 371.25 297.825C369.267 299.492 366.376 298.146 366.376 295.555C366.376 293.374 368.637 292.024 370.673 292.989ZM409.299 293.101C411.105 294.329 411.234 296.43 409.591 297.871C407.559 299.652 404.356 297.681 404.867 294.964C405.221 293.077 407.718 292.027 409.299 293.101ZM346.275 293.703C342.707 295.478 342.93 300.595 346.645 302.235L347.5 302.612V317.087V331.564L346.604 331.949C341.872 333.983 343.341 341.009 348.492 340.983C353.444 340.958 354.916 334.285 350.453 332.09L349.302 331.524V317.055V302.586L349.797 302.407C354.95 300.543 353.832 293.246 348.392 293.239C347.48 293.236 346.998 293.342 346.275 293.703ZM349.587 295.198C352.527 296.531 351.612 300.796 348.386 300.796C345.332 300.796 344.424 296.464 347.213 295.2C348.141 294.777 348.66 294.777 349.587 295.198ZM284.377 305.768C286.933 306.981 286.305 310.907 283.488 311.329C281.311 311.656 279.525 309.407 280.312 307.333C280.905 305.769 282.822 305.031 284.377 305.768ZM405.116 305.729C407.515 306.982 407.378 310.203 404.885 311.153C402.715 311.982 400.494 310.004 401.013 307.708C401.395 306.017 403.616 304.946 405.116 305.729ZM102.404 312.504C104.896 314.042 103.785 317.963 100.859 317.963C98.5583 317.963 97.2147 315.542 98.3843 313.503C99.1388 312.188 101.102 311.7 102.404 312.504ZM133.121 312.544C134.534 313.496 134.946 315.07 134.151 316.484C132.322 319.734 127.331 317.142 128.989 313.802C129.794 312.181 131.714 311.596 133.121 312.544ZM328.103 312.477C323.701 313.602 323.21 320.122 327.424 321.496C327.814 321.622 328.193 321.816 328.266 321.926C328.338 322.035 328.4 346.645 328.401 376.615L328.404 431.106H329.215H330.025V376.488V321.872L330.871 321.497C336.202 319.142 333.717 311.044 328.103 312.477ZM330.565 314.519C332.678 315.595 332.678 318.573 330.565 319.661C328.435 320.757 326.055 319.173 326.283 316.812C326.486 314.693 328.64 313.541 330.565 314.519ZM415.476 315.301C411.536 316.744 411.588 322.617 415.555 324.13L416.323 324.423V338.894V353.365L415.539 353.7C410.037 356.056 412.823 364.299 418.557 362.634C422.827 361.394 423.059 355.478 418.909 353.7L418.125 353.365V338.894V324.423L418.937 324.113C422.677 322.686 422.893 317.21 419.278 315.462C418.356 315.016 416.472 314.936 415.476 315.301ZM418.604 317.11C420.392 317.958 420.674 320.778 419.096 322.017C417.098 323.588 414.299 322.211 414.299 319.659C414.299 317.507 416.584 316.153 418.604 317.11ZM69.3072 323.675C64.7022 324.356 63.979 330.746 68.29 332.65L69.1429 333.027L69.1915 341.255C69.2175 345.78 69.2099 349.663 69.1742 349.886L69.1083 350.288L61.5177 350.335L53.926 350.382L53.8795 358.704L53.8319 367.027L61.4463 367.074L69.0596 367.121L69.1061 375.169L69.1537 383.216L68.1419 383.712C64.2396 385.62 64.6071 391.318 68.7105 392.51C74.4429 394.174 77.3356 386.123 71.8983 383.636L70.9513 383.203V374.307V365.411H63.5791C59.5243 365.411 56.0793 365.362 55.9225 365.301C55.6696 365.204 55.6372 364.449 55.6372 358.644V352.096L63.2494 352.049L70.8616 352.002L70.9513 342.477L71.0411 332.954L71.7685 332.711C77.088 330.941 74.8828 322.848 69.3072 323.675ZM161.452 323.674C156.943 324.494 156.3 330.494 160.492 332.629L161.483 333.133L161.573 342.567L161.663 352.002L169.275 352.049L176.887 352.096V358.644C176.887 364.449 176.854 365.204 176.601 365.301C176.445 365.362 173 365.411 168.945 365.411H161.573V374.289V383.167L160.357 383.784C156.465 385.762 156.886 391.319 161.018 392.526C166.602 394.159 169.558 386.014 164.232 383.668C163.81 383.482 163.405 383.247 163.333 383.145C163.07 382.778 163.169 367.455 163.435 367.235C163.602 367.097 165.996 367.021 171.137 366.988L178.598 366.941V358.661V350.382L170.941 350.292L163.285 350.202V341.653V333.106L164.26 332.613C169.293 330.074 166.969 322.671 161.452 323.674ZM70.9784 325.459C72.5923 325.906 73.4895 327.882 72.7933 329.455C71.5448 332.274 67.4403 331.553 67.2209 328.476C67.0706 326.376 68.9234 324.888 70.9784 325.459ZM163.222 325.459C164.648 325.854 165.625 327.626 165.199 329.047C164.258 332.187 159.75 331.813 159.464 328.572C159.276 326.44 161.153 324.885 163.222 325.459ZM349.774 333.665C351.568 334.516 351.889 336.952 350.402 338.436C349.004 339.834 346.518 339.373 345.768 337.579C344.686 334.991 347.262 332.474 349.774 333.665ZM253.546 344.04C256.388 345.441 255.447 349.572 252.285 349.572C248.795 349.572 248.269 344.596 251.676 343.818C252.318 343.671 252.949 343.745 253.546 344.04ZM374.86 344.307C375.76 344.979 376.056 345.568 376.056 346.692C376.056 350.459 370.548 350.594 370.245 346.835C370.054 344.452 372.937 342.872 374.86 344.307ZM269.279 344.839C271.679 346.615 270.615 350.202 267.689 350.202C264.489 350.202 263.646 345.79 266.608 344.545C267.271 344.266 268.72 344.426 269.279 344.839ZM389.844 344.757C392.46 346.078 391.786 349.917 388.881 350.244C386.213 350.544 384.54 347.48 386.286 345.493C387.324 344.312 388.486 344.071 389.844 344.757ZM40.9781 345.447C41.8028 345.957 42.3747 347.212 42.2569 348.255C41.952 350.958 38.3027 351.826 36.8995 349.529C35.2251 346.786 38.2475 343.761 40.9781 345.447ZM194.286 345.233C197.251 346.579 196.315 350.832 193.056 350.832C190.991 350.832 189.593 348.515 190.502 346.601C191.192 345.146 192.807 344.563 194.286 345.233ZM343.808 349.757C339.113 350.444 338.45 357.3 342.93 358.838L343.627 359.078L343.717 395.047L343.808 431.016H344.618H345.429L345.475 395.072L345.52 359.128L346.375 358.751C351.473 356.501 349.318 348.95 343.808 349.757ZM346.256 351.994C348.619 353.549 347.409 357.313 344.546 357.311C342.072 357.309 340.67 354.465 342.231 352.611C343.292 351.351 344.904 351.104 346.256 351.994ZM418.813 355.638C421.669 357.751 419.329 362.227 416.091 360.844C413.713 359.826 413.69 356.495 416.053 355.396C416.774 355.062 418.204 355.187 418.813 355.638ZM86.9876 357.716C88.835 358.972 88.8847 361.598 87.0827 362.705C84.2117 364.467 81.1417 360.959 83.2323 358.305C84.0452 357.271 85.9055 356.981 86.9876 357.716ZM148.352 357.604C150.729 358.73 150.318 362.367 147.735 363.062C144.232 364.005 142.58 358.961 145.899 357.459C146.402 357.231 147.733 357.31 148.352 357.604ZM246.502 362.695C241.963 364.754 243.462 371.711 248.445 371.711C250.313 371.711 252.178 370.459 252.822 368.775L253.144 367.931H259.966H266.787L266.833 399.473L266.878 431.016H267.689H268.499V398.618V366.221L260.821 366.174L253.143 366.127L252.85 365.362C251.904 362.886 248.88 361.616 246.502 362.695ZM367.178 362.816C364.259 364.269 363.687 368.132 366.052 370.425C368.385 372.686 372.547 371.772 373.703 368.744L374.016 367.927L380.802 367.973L387.587 368.021L387.677 399.519L387.767 431.016H388.577H389.388V398.618V366.221L381.71 366.174L374.032 366.127L373.74 365.362C372.747 362.763 369.677 361.571 367.178 362.816ZM249.875 364.433C251.49 365.267 251.883 367.53 250.662 368.979C248.985 370.971 245.529 369.661 245.529 367.033C245.529 364.75 247.828 363.375 249.875 364.433ZM370.831 364.489C372.6 365.508 372.662 368.305 370.945 369.472C369.037 370.767 366.376 369.358 366.376 367.052C366.376 364.674 368.766 363.299 370.831 364.489ZM22.7885 367.826C18.523 368.982 18.0711 374.989 22.1194 376.729L23.0252 377.119L23.0717 389.399L23.1182 401.679L31.5736 401.725C38.2194 401.762 40.0603 401.723 40.1738 401.545C40.2538 401.42 40.3198 398.666 40.3208 395.424L40.3241 389.529H47.078H53.8319L53.8795 405.991L53.926 422.452L53.1325 422.755C49.0086 424.328 49.0929 430.308 53.2579 431.726C58.8823 433.641 62.0311 424.962 56.476 422.855L55.6318 422.535L55.5896 405.177L55.5474 387.819L47.0369 387.772L38.5264 387.726L38.4799 393.892L38.4324 400.059H31.6763H24.9202V388.558V377.056L25.6088 376.818C31.1401 374.905 28.4409 366.296 22.7885 367.826ZM207.3 367.82C202.957 368.999 202.519 374.675 206.614 376.71L207.605 377.202V388.63V400.059H200.849H194.093L194.002 393.939L193.912 387.819H185.445H176.977L176.887 405.147L176.797 422.475L175.892 422.894C171.412 424.967 172.524 431.513 177.432 431.958C182.673 432.434 184.387 424.454 179.399 422.793C178.959 422.646 178.607 422.432 178.616 422.317C178.626 422.201 178.647 414.777 178.662 405.818L178.689 389.529H185.442H192.196L192.243 395.604L192.291 401.679L200.802 401.725L209.314 401.771L209.36 389.487L209.406 377.202L210.381 376.711C215.517 374.119 212.814 366.324 207.3 367.82ZM403.074 368.928C399.085 370.394 399.117 376.238 403.124 377.766L403.892 378.059V392.518V406.978L402.907 407.442C398.259 409.64 399.689 416.452 404.792 416.424C409.995 416.395 411.279 409.392 406.46 407.329L405.694 407V392.53V378.059L406.494 377.754C410.248 376.321 410.437 370.836 406.794 369.073C405.938 368.658 404.012 368.583 403.074 368.928ZM312.67 369.444C308.319 370.633 307.874 376.576 312.003 378.35L312.908 378.739L312.953 404.877L313 431.016H313.811H314.621L314.711 404.869L314.801 378.722L315.702 378.305C320.841 375.92 318.117 367.957 312.67 369.444ZM24.8575 369.555C26.4703 370.002 27.3675 371.98 26.6714 373.552C25.4228 376.371 21.3195 375.65 21.0989 372.573C20.9487 370.457 22.7874 368.981 24.8575 369.555ZM209.755 369.728C212.387 371.012 211.722 374.986 208.829 375.265C205.573 375.577 204.254 371.309 207.138 369.79C208.11 369.277 208.797 369.26 209.755 369.728ZM406.329 370.894C408.796 372.338 407.7 376.252 404.829 376.252C402.266 376.252 400.877 373.48 402.443 371.491C403.299 370.404 405.036 370.137 406.329 370.894ZM315.077 371.395C317.79 372.765 316.869 376.93 313.853 376.93C310.752 376.93 309.773 372.794 312.544 371.395C312.985 371.173 313.556 370.991 313.811 370.991C314.066 370.991 314.635 371.173 315.077 371.395ZM95.1263 375.681C91.638 376.375 90.2273 381.04 92.7449 383.555C95.1392 385.948 99.1605 385.215 100.482 382.146L100.868 381.25H115.428H129.988L130.21 381.993C131.669 386.855 139.325 385.384 139.287 380.248C139.248 375.133 132.421 373.813 130.271 378.505L129.837 379.452L115.408 379.406L100.978 379.36L100.477 378.391C99.3583 376.228 97.3887 375.23 95.1263 375.681ZM97.4406 377.695C100.097 379.036 99.3637 382.9 96.3997 383.185C94.1826 383.398 92.5416 381.218 93.4302 379.243C94.2301 377.466 95.7921 376.863 97.4406 377.695ZM135.683 377.534C137.222 378.175 137.956 379.971 137.291 381.471C136.056 384.262 131.937 383.538 131.719 380.493C131.565 378.329 133.725 376.716 135.683 377.534ZM113.733 382.785C109.812 384.235 109.643 389.66 113.462 391.49L114.461 391.968L114.507 406.413L114.552 420.859L113.756 421.2C109.113 423.188 109.993 429.818 114.966 430.331C120.101 430.86 122.121 423.633 117.452 421.441C116.06 420.789 116.172 422.049 116.172 406.992C116.172 391.654 116.152 391.988 117.094 391.612C122.744 389.352 119.441 380.674 113.733 382.785ZM116.895 384.714C119.179 386.268 118.609 389.513 115.94 390.141C114.703 390.432 112.929 389.359 112.547 388.09C111.785 385.547 114.742 383.251 116.895 384.714ZM71.428 385.402C72.9079 386.118 73.4851 387.897 72.709 389.349C71.1773 392.213 66.8998 390.94 67.2101 387.712C67.4133 385.599 69.4866 384.464 71.428 385.402ZM163.742 385.444C166.521 386.913 165.32 391.141 162.187 390.919C158.477 390.656 158.592 385.126 162.31 385.044C162.667 385.036 163.311 385.216 163.742 385.444ZM251.243 386.84C246.675 387.951 246.268 393.904 250.629 395.832L251.474 396.206V413.656V431.106H252.285H253.096L253.099 413.782C253.1 404.254 253.16 396.377 253.234 396.279C253.306 396.18 253.843 395.861 254.425 395.569C259.305 393.132 256.542 385.553 251.243 386.84ZM372.143 386.815C367.88 387.684 367.12 393.549 371.01 395.545C371.604 395.849 372.151 396.18 372.224 396.279C372.298 396.377 372.358 404.254 372.361 413.782L372.363 431.106H373.174H373.984V413.656V396.206L374.831 395.832C380.154 393.479 377.824 385.656 372.143 386.815ZM253.71 388.857C254.676 389.41 255.113 390.063 255.213 391.111C255.525 394.348 251.178 395.664 249.718 392.775C248.398 390.163 251.193 387.42 253.71 388.857ZM374.452 388.792C375.916 389.456 376.516 391.289 375.753 392.768C374.27 395.645 369.934 394.357 370.244 391.131C370.445 389.039 372.49 387.902 374.452 388.792ZM10.1822 407.74C11.4675 408.51 11.929 410.478 11.128 411.773C9.58872 414.261 5.6637 413.152 5.6637 410.227C5.6637 407.882 8.14129 406.518 10.1822 407.74ZM225.548 407.803C227.318 408.932 227.159 411.925 225.282 412.815C223.885 413.478 222.132 413.027 221.396 411.819C219.721 409.066 222.824 406.064 225.548 407.803ZM406.382 409.274C408.047 410.506 408.147 412.764 406.595 414.068C404.506 415.824 401.142 413.654 401.909 411.045C402.477 409.116 404.882 408.163 406.382 409.274ZM116.64 422.99C119.381 424.233 118.492 428.586 115.497 428.586C112.865 428.586 111.466 425.713 113.16 423.787C114.164 422.643 115.303 422.383 116.64 422.99ZM56.3203 424.749C58.7255 426.529 57.6672 430.116 54.7367 430.116C51.7121 430.116 50.7339 426.402 53.3001 424.659C54.0752 424.133 55.5474 424.176 56.3203 424.749ZM179.36 424.743C181.546 426.373 180.796 429.802 178.175 430.153C175.596 430.498 173.774 427.359 175.421 425.405C176.404 424.24 178.266 423.927 179.36 424.743Z" fill="#030D18"/>
</svg>
