<svg width="460" height="45" viewBox="0 0 460 45" fill="none" xmlns="http://www.w3.org/2000/svg">
<path fill-rule="evenodd" clip-rule="evenodd" d="M30.3813 26.8067V1.78667H40.576V43.7987H31.5827L10.2253 18.8373V43.7987H0V1.78667H9.024L30.3813 26.8067ZM275.303 30.908H285.029C285.126 31.7067 285.335 32.4877 285.649 33.228C286.571 35.3142 288.357 36.3573 291.007 36.3573C291.619 36.3625 292.229 36.2826 292.819 36.12C293.567 35.911 294.26 35.5365 294.844 35.024C295.296 34.6378 295.668 34.1661 295.937 33.636C296.228 33.0424 296.376 32.3889 296.368 31.728C296.39 30.8818 296.15 30.0495 295.683 29.344C295.026 28.3831 293.896 27.6836 292.295 27.2453L286.7 25.752C279.532 23.9156 275.948 20.0093 275.948 14.0333C275.938 12.747 276.104 11.4654 276.441 10.224C276.763 9.06 277.264 7.95303 277.925 6.94267C279.204 4.9646 281.032 3.40185 283.184 2.44533C285.372 1.45956 287.842 0.966667 290.596 0.966667C292.126 0.952323 293.651 1.15478 295.124 1.568C297.174 2.15018 299.04 3.24932 300.543 4.76C303.015 7.21654 304.453 10.5268 304.561 14.0107C304.565 14.0764 304.568 14.1422 304.571 14.208H295.284C295.247 13.598 295.128 12.9958 294.931 12.4173C294.708 11.7698 294.366 11.17 293.921 10.6493C293.281 9.90098 292.386 9.41683 291.409 9.29067C291.121 9.24783 290.829 9.22688 290.537 9.228C290.095 9.22522 289.654 9.26271 289.219 9.34C288.726 9.43067 288.285 9.57645 287.896 9.77733C287.635 9.9114 287.39 10.0761 287.168 10.268C286.807 10.575 286.515 10.9539 286.31 11.3805C286.104 11.8072 285.99 12.272 285.975 12.7453C285.97 12.8324 285.967 12.9195 285.967 13.0067C285.963 13.3687 286.01 13.7295 286.105 14.0787C286.264 14.6551 286.599 15.1669 287.065 15.5413C287.798 16.1369 288.896 16.64 290.361 17.0507L295.752 18.544C296.881 18.8538 297.986 19.2478 299.056 19.7227C300.247 20.2578 301.296 20.8738 302.203 21.5707C302.736 21.9789 303.235 22.4316 303.692 22.924C304.782 24.1214 305.556 25.5726 305.943 27.1453C306.202 28.1391 306.348 29.2236 306.38 30.3987C306.385 30.5684 306.387 30.7382 306.387 30.908C306.406 32.918 305.939 34.9028 305.025 36.6933C304.325 38.0801 303.382 39.3301 302.24 40.384C301.982 40.6202 301.713 40.8453 301.436 41.0587C299.952 42.2018 298.287 43.0858 296.441 43.7107C294.595 44.3356 292.705 44.648 290.772 44.648C289.238 44.6597 287.707 44.4987 286.208 44.168C283.916 43.6436 281.949 42.6902 280.307 41.308C280.159 41.1841 280.015 41.057 279.873 40.9267C277.772 38.9792 276.323 36.4309 275.723 33.6293C275.517 32.7335 275.377 31.824 275.303 30.908ZM235.547 26.572V43.7987H225.704V13.564H235.255V18.0467C235.793 16.9416 236.571 15.9705 237.532 15.204C237.937 14.8757 238.365 14.5771 238.813 14.3107C240.38 13.3803 242.162 12.8727 243.984 12.8373C244.111 12.8336 244.238 12.8319 244.365 12.832C245.464 12.8222 246.56 12.9476 247.628 13.2053C249.501 13.6418 251.183 14.6721 252.423 16.1427C254.153 18.2013 255.077 20.9142 255.193 24.2813C255.202 24.527 255.206 24.7728 255.205 25.0187V43.7987H245.391V26.6307C245.391 25.0093 244.995 23.7249 244.204 22.7773C243.472 21.9009 242.383 21.4298 240.939 21.364C240.821 21.3592 240.704 21.3569 240.587 21.3573C240.057 21.3525 239.529 21.4139 239.015 21.54C238.218 21.7328 237.49 22.1405 236.909 22.7187C236.001 23.6271 235.547 24.9116 235.547 26.572ZM440.244 26.572V43.7987H430.401V13.564H439.952V18.0467C440.49 16.9417 441.267 15.9706 442.228 15.204C442.633 14.8756 443.062 14.577 443.511 14.3107C445.077 13.3805 446.858 12.8729 448.68 12.8373C448.808 12.8336 448.935 12.8318 449.063 12.832C450.161 12.8222 451.257 12.9476 452.325 13.2053C454.198 13.6418 455.88 14.6721 457.12 16.1427C458.851 18.2013 459.774 20.9142 459.891 24.2813C459.899 24.527 459.903 24.7728 459.903 25.0187V43.7987H450.088V26.6307C450.088 25.0093 449.692 23.7249 448.901 22.7773C448.169 21.9009 447.08 21.4298 445.636 21.364C445.519 21.3592 445.401 21.3569 445.284 21.3573C444.754 21.3525 444.226 21.4139 443.712 21.54C442.916 21.7328 442.187 22.1405 441.607 22.7187C440.698 23.6271 440.244 24.9116 440.244 26.572ZM165.323 32.636L171.973 13.564H182.109L169.864 43.7987H160.752L148.507 13.564H158.643L165.323 32.636ZM106.671 35.888V43.6813C106.503 43.7485 106.331 43.8068 106.157 43.856C105.806 43.9573 105.376 44.0538 104.867 44.1453C104.619 44.1894 104.37 44.2298 104.121 44.2667C103.49 44.3625 102.855 44.4336 102.219 44.48C101.76 44.5132 101.3 44.5301 100.84 44.5307C99.8217 44.538 98.8051 44.4442 97.8053 44.2507C96.6338 44.0151 95.6 43.6298 94.704 43.0947C94.0383 42.6986 93.4356 42.2051 92.916 41.6307C91.1676 39.6964 90.2934 37.0009 90.2934 33.544V21.6493H85.0493V13.564H90.2934V4.51067H100.108V13.564H106.963V21.6493H100.108V32.9293C100.101 33.387 100.158 33.8434 100.277 34.2853C100.568 35.2996 101.231 35.9413 102.267 36.2107C102.682 36.3131 103.108 36.3624 103.536 36.3573C104.598 36.356 105.655 36.1979 106.671 35.888ZM385.079 35.888V43.6813C384.911 43.7485 384.739 43.8068 384.565 43.856C384.214 43.9573 383.784 44.0538 383.275 44.1453C383.027 44.1894 382.778 44.2298 382.529 44.2667C381.898 44.3625 381.263 44.4336 380.627 44.48C380.168 44.5132 379.708 44.5301 379.248 44.5307C378.23 44.538 377.213 44.4442 376.213 44.2507C375.042 44.0151 374.008 43.6298 373.112 43.0947C372.446 42.6986 371.844 42.2051 371.324 41.6307C369.576 39.6964 368.701 37.0009 368.701 33.544V21.6493H363.457V13.564H368.701V4.51067H378.516V13.564H385.372V21.6493H378.516V32.9293C378.509 33.387 378.566 33.8434 378.685 34.2853C378.976 35.2996 379.639 35.9413 380.675 36.2107C381.09 36.3131 381.516 36.3624 381.944 36.3573C383.006 36.356 384.063 36.1979 385.079 35.888ZM71.3973 18.0467V13.564H81.0653V43.7987H71.572V39.2867C70.6742 40.8102 69.3805 42.0649 67.6907 43.0507C66.3371 43.8324 64.8308 44.3131 63.2747 44.46C62.8095 44.5077 62.3422 44.5313 61.8746 44.5307C57.52 44.5307 53.912 43.0169 51.0507 39.9893C48.4397 37.2345 46.9244 33.6212 46.7893 29.828C46.7684 29.4461 46.7582 29.0638 46.7587 28.6813C46.7387 26.7061 47.052 24.7417 47.6853 22.8707C48.4013 20.8184 49.5489 18.9434 51.0507 17.372C52.3692 15.9513 53.9651 14.816 55.7396 14.0363C57.5142 13.2566 59.4297 12.849 61.368 12.8387C61.5368 12.8341 61.7057 12.8319 61.8746 12.832C62.9403 12.8252 64.0029 12.9456 65.04 13.1907C66.003 13.4207 66.9295 13.7828 67.7933 14.2667C68.5424 14.6809 69.231 15.1959 69.84 15.7973C70.4919 16.4459 71.0197 17.2082 71.3973 18.0467ZM135.147 18.0467V13.564H144.815V43.7987H135.323V39.2867C134.424 40.8102 133.13 42.0649 131.441 43.0507C130.088 43.8324 128.582 44.3131 127.025 44.46C126.56 44.5077 126.093 44.5313 125.625 44.5307C121.27 44.5307 117.661 43.0169 114.8 39.9893C112.19 37.2343 110.675 33.621 110.54 29.828C110.519 29.4462 110.508 29.0638 110.508 28.6813C110.488 26.706 110.802 24.7416 111.436 22.8707C112.152 20.8185 113.299 18.9435 114.8 17.372C116.119 15.9511 117.715 14.8157 119.49 14.036C121.264 13.2563 123.18 12.8488 125.119 12.8387C125.288 12.8341 125.456 12.8319 125.625 12.832C126.69 12.8253 127.753 12.9457 128.789 13.1907C129.752 13.4207 130.679 13.7828 131.543 14.2667C132.292 14.6808 132.981 15.1958 133.591 15.7973C134.242 16.446 134.769 17.2083 135.147 18.0467ZM208.857 18.0467V13.564H218.525V43.7987H209.033V39.2867C208.135 40.8102 206.841 42.0649 205.152 43.0507C203.798 43.8324 202.292 44.3131 200.736 44.46C200.271 44.5077 199.804 44.5313 199.336 44.5307C194.98 44.5307 191.372 43.0169 188.511 39.9893C185.9 37.2343 184.385 33.621 184.251 29.828C184.229 29.4462 184.219 29.0638 184.219 28.6813C184.199 26.706 184.513 24.7416 185.147 22.8707C185.862 20.8185 187.009 18.9435 188.511 17.372C189.829 15.9511 191.425 14.8157 193.2 14.036C194.975 13.2563 196.891 12.8488 198.829 12.8387C198.998 12.8341 199.167 12.8319 199.336 12.832C200.401 12.8253 201.463 12.9457 202.5 13.1907C203.463 13.4206 204.39 13.7827 205.255 14.2667C206.004 14.6809 206.692 15.1959 207.301 15.7973C207.953 16.446 208.48 17.2083 208.857 18.0467ZM413.555 18.0467V13.564H423.223V43.7987H413.731V39.2867C412.832 40.8102 411.538 42.0649 409.849 43.0507C408.496 43.8324 406.99 44.3131 405.433 44.46C404.968 44.5077 404.501 44.5313 404.033 44.5307C399.678 44.5307 396.069 43.0169 393.208 39.9893C390.598 37.2343 389.083 33.621 388.948 29.828C388.927 29.4462 388.916 29.0638 388.916 28.6813C388.896 26.706 389.21 24.7416 389.844 22.8707C390.56 20.8185 391.707 18.9435 393.208 17.372C394.527 15.9511 396.123 14.8157 397.898 14.036C399.672 13.2563 401.588 12.8488 403.527 12.8387C403.696 12.8341 403.864 12.8319 404.033 12.832C405.099 12.8253 406.161 12.9457 407.197 13.1907C408.161 13.4206 409.088 13.7827 409.952 14.2667C410.701 14.6809 411.39 15.1959 411.999 15.7973C412.65 16.446 413.177 17.2083 413.555 18.0467ZM359.473 43.7987H349.629V0H359.473V43.7987ZM325.34 12.9133C323.545 13.061 321.783 13.4777 320.112 14.1493C319.458 14.4148 318.82 14.7198 318.203 15.0627C316.936 15.7567 315.786 16.6448 314.795 17.6947C313.418 19.1631 312.33 20.8774 311.587 22.748C310.834 24.6353 310.451 26.6496 310.459 28.6813C310.459 30.7516 310.835 32.7289 311.587 34.6133C312.33 36.4845 313.418 38.1991 314.795 39.668C315.459 40.3753 316.198 41.008 317 41.5547C317.975 42.2173 319.018 42.7729 320.112 43.212C320.948 43.5514 321.809 43.8243 322.688 44.028C324.183 44.3696 325.713 44.5383 327.247 44.5307C327.883 44.5311 328.519 44.5035 329.153 44.448C330.948 44.3002 332.71 43.8835 334.38 43.212C335.035 42.947 335.673 42.6425 336.291 42.3C337.557 41.6059 338.706 40.7178 339.697 39.668C341.074 38.1991 342.162 36.4845 342.905 34.6133C343.658 32.7265 344.041 30.7127 344.033 28.6813C344.033 26.6111 343.657 24.6333 342.905 22.748C342.162 20.8774 341.074 19.1631 339.697 17.6947C339.034 16.987 338.295 16.3539 337.493 15.8067C336.518 15.144 335.474 14.5884 334.38 14.1493C333.545 13.81 332.684 13.5371 331.805 13.3333C330.31 12.9922 328.78 12.824 327.247 12.832C326.61 12.8311 325.974 12.8582 325.34 12.9133ZM63.8387 36.3573C64.7375 36.3663 65.6313 36.2216 66.4813 35.9293C67.4912 35.5712 68.4026 34.9801 69.1413 34.204C70.2903 33.0113 71.0014 31.4646 71.1587 29.816C71.2011 29.4393 71.222 29.0604 71.2213 28.6813C71.2213 26.4351 70.528 24.5942 69.1413 23.1587C67.8691 21.8313 66.1234 21.061 64.2853 21.016C64.1366 21.0089 63.9876 21.0053 63.8387 21.0053C62.9241 20.9951 62.0153 21.1524 61.1573 21.4693C60.192 21.8398 59.3251 22.4279 58.624 23.188C57.256 24.6431 56.572 26.4742 56.572 28.6813C56.5639 29.5896 56.6966 30.4937 56.9653 31.3613C57.2984 32.4125 57.8655 33.3744 58.624 34.1747C59.9911 35.6298 61.7293 36.3573 63.8387 36.3573ZM127.588 36.3573C128.487 36.3665 129.382 36.2217 130.232 35.9293C131.241 35.571 132.152 34.98 132.891 34.204C134.04 33.0113 134.751 31.4646 134.908 29.816C134.95 29.4393 134.971 29.0604 134.971 28.6813C134.971 26.4351 134.277 24.5942 132.891 23.1587C131.619 21.8316 129.874 21.0614 128.036 21.016C127.887 21.0089 127.737 21.0053 127.588 21.0053C126.674 20.9953 125.766 21.1525 124.908 21.4693C123.942 21.8396 123.075 22.4278 122.373 23.188C121.006 24.6431 120.323 26.4742 120.323 28.6813C120.314 29.5896 120.446 30.4936 120.715 31.3613C121.048 32.4125 121.615 33.3744 122.373 34.1747C123.74 35.6298 125.479 36.3573 127.588 36.3573ZM201.299 36.3573C202.198 36.3665 203.092 36.2217 203.943 35.9293C204.952 35.571 205.863 34.98 206.601 34.204C207.75 33.0113 208.461 31.4646 208.619 29.816C208.661 29.4393 208.682 29.0604 208.681 28.6813C208.681 26.4351 207.988 24.5942 206.601 23.1587C205.329 21.8316 203.584 21.0614 201.747 21.016C201.597 21.0089 201.448 21.0053 201.299 21.0053C200.385 20.9953 199.476 21.1525 198.619 21.4693C197.653 21.8396 196.785 22.4278 196.084 23.188C194.717 24.6431 194.033 26.4742 194.033 28.6813C194.025 29.5896 194.158 30.4937 194.427 31.3613C194.759 32.4123 195.326 33.3742 196.084 34.1747C197.451 35.6298 199.189 36.3573 201.299 36.3573ZM405.996 36.3573C406.895 36.3665 407.79 36.2217 408.64 35.9293C409.649 35.571 410.56 34.98 411.299 34.204C412.448 33.0113 413.159 31.4646 413.316 29.816C413.358 29.4393 413.379 29.0604 413.379 28.6813C413.379 26.4351 412.685 24.5942 411.299 23.1587C410.027 21.8316 408.282 21.0614 406.444 21.016C406.295 21.0089 406.145 21.0053 405.996 21.0053C405.082 20.9953 404.174 21.1525 403.316 21.4693C402.35 21.8396 401.483 22.4278 400.781 23.188C399.414 24.6431 398.731 26.4742 398.731 28.6813C398.722 29.5896 398.854 30.4936 399.123 31.3613C399.456 32.4125 400.023 33.3744 400.781 34.1747C402.148 35.6298 403.887 36.3573 405.996 36.3573ZM321.929 34.1307C322.897 35.269 324.246 36.0168 325.724 36.2347C326.227 36.3183 326.737 36.3593 327.247 36.3573C328.003 36.3644 328.758 36.2698 329.489 36.076C330.69 35.7594 331.764 35.0801 332.564 34.1307C333.824 32.6462 334.453 30.8298 334.453 28.6813C334.462 27.7312 334.322 26.7856 334.039 25.8787C333.727 24.9074 333.226 24.0077 332.564 23.232C331.596 22.0937 330.248 21.3459 328.769 21.128C328.266 21.0444 327.757 21.0034 327.247 21.0053C326.49 20.9982 325.736 21.0929 325.004 21.2867C323.803 21.6033 322.73 22.2826 321.929 23.232C320.67 24.7164 320.04 26.5329 320.04 28.6813C320.031 29.6315 320.171 30.5771 320.455 31.484C320.766 32.4553 321.267 33.355 321.929 34.1307Z" fill="white"/>
</svg>
