<svg width="160" height="46" viewBox="0 0 160 46" fill="none" xmlns="http://www.w3.org/2000/svg">
<path fill-rule="evenodd" clip-rule="evenodd" d="M90.8787 27.5394V44.7661H81.0347V14.5314H90.5853V19.0141C91.1237 17.909 91.9017 16.9378 92.8627 16.1714C93.2681 15.843 93.6967 15.5444 94.1453 15.2781C95.7119 14.3479 97.4931 13.8403 99.3147 13.8047C99.4422 13.801 99.5698 13.7992 99.6973 13.7994C100.796 13.7897 101.891 13.9151 102.959 14.1727C104.832 14.6091 106.514 15.6395 107.753 17.1101C109.485 19.1687 110.408 21.8816 110.524 25.2487C110.533 25.4944 110.537 25.7402 110.537 25.9861V44.7661H100.723V27.5981C100.723 25.9767 100.327 24.6923 99.536 23.7447C98.8036 22.8683 97.7151 22.3972 96.2707 22.3314C96.153 22.3265 96.0352 22.3243 95.9173 22.3247C95.3882 22.32 94.8606 22.3814 94.3467 22.5074C93.5503 22.7002 92.822 23.1079 92.2413 23.6861C91.3329 24.5945 90.8787 25.8789 90.8787 27.5394ZM66.064 35.3327H75.1173C74.2184 37.9758 72.5513 40.2905 70.3293 41.9807C70.0423 42.2054 69.7484 42.421 69.448 42.6274C67.0405 44.2705 64.2375 45.2399 61.3293 45.4354C60.7895 45.4777 60.2482 45.4986 59.7067 45.4981C58.0101 45.5117 56.3176 45.3296 54.6627 44.9554C51.9942 44.3287 49.7391 43.1612 47.8973 41.4527C47.7744 41.3385 47.6535 41.222 47.5347 41.1034C45.183 38.7508 43.6934 35.6739 43.3067 32.3701C43.1834 31.4486 43.1229 30.5198 43.1253 29.5901C43.1072 27.7608 43.374 25.9399 43.916 24.1927C44.6414 21.9128 45.9257 19.8506 47.652 18.1941C50.1626 15.7619 53.4267 14.2575 56.9067 13.9287C57.6907 13.8411 58.4791 13.7979 59.268 13.7994C61.076 13.7827 62.8771 14.0234 64.6173 14.5141C66.9682 15.1867 69.1161 16.4309 70.8693 18.1354C73.1673 20.368 74.6575 23.3015 75.1053 26.4741C75.2731 27.5436 75.3556 28.6248 75.352 29.7074V32.6367H52.7933C52.9591 33.533 53.2613 34.3986 53.6893 35.2034C54.8458 37.3012 56.8516 38.3501 59.7067 38.3501C61.152 38.3501 62.4267 38.0812 63.5307 37.5434C64.0977 37.2726 64.6226 36.9214 65.0893 36.5007C65.466 36.1577 65.7939 35.7647 66.064 35.3327ZM0 2.75405H13.272C15.05 2.74912 16.8264 2.85734 18.5907 3.07805C19.867 3.23932 21.1331 3.47348 22.3827 3.77939C23.7031 4.09976 24.9993 4.51324 26.2613 5.01672C27.4111 5.4757 28.5195 6.03193 29.5747 6.67939C31.3506 7.76486 32.9518 9.11303 34.324 10.6781C34.4626 10.8372 34.5986 10.9985 34.732 11.1621C36.1391 12.8841 37.2166 14.8507 37.9107 16.9634C38.5534 18.9338 38.9051 20.9874 38.9547 23.0594C38.9616 23.2927 38.9652 23.526 38.9653 23.7594C38.9736 25.6434 38.7392 27.5206 38.268 29.3447C38.1616 29.7524 38.0424 30.1566 37.9107 30.5567C37.2166 32.6694 36.1391 34.636 34.732 36.3581C33.3363 38.0592 31.6744 39.523 29.8107 40.6927C29.7323 40.7421 29.6536 40.791 29.5747 40.8394C28.3798 41.5711 27.1181 42.1877 25.8067 42.6807C24.688 43.1035 23.5445 43.4575 22.3827 43.7407C20.5725 44.1804 18.7303 44.4751 16.8733 44.6221C15.6754 44.7195 14.4739 44.7675 13.272 44.7661H0V2.75405ZM159.815 44.7661H133.155V44.4727L145.108 22.1487H133.593V14.5314H159.375V14.8247L147.509 37.0314H159.815V44.7661ZM127.588 44.7661H117.744V14.5314H127.588V44.7661ZM10.224 36.1821H12.3053C17.6173 36.1821 21.6844 35.1323 24.5067 33.0327C25.6141 32.2145 26.5446 31.1807 27.2421 29.9936C27.9396 28.8064 28.3897 27.4904 28.5653 26.1247C28.6844 25.342 28.7428 24.5512 28.74 23.7594C28.74 19.6776 27.3289 16.5869 24.5067 14.4874C22.4036 12.9221 19.6084 11.9403 16.1213 11.5421C14.8542 11.4019 13.5802 11.3338 12.3053 11.3381H10.224V36.1821ZM128.32 5.53672C128.32 7.11894 127.778 8.4425 126.695 9.50739C126.176 10.0216 125.56 10.4276 124.883 10.7016C124.206 10.9756 123.481 11.1122 122.751 11.1034C122.723 11.1035 122.695 11.1035 122.667 11.1034C121.929 11.1181 121.197 10.9844 120.512 10.7102C119.827 10.436 119.205 10.027 118.681 9.50739C118.164 9.01386 117.752 8.42072 117.471 7.76374C117.189 7.10675 117.044 6.39953 117.043 5.68472C117.042 5.63539 117.041 5.58606 117.041 5.53672C117.041 3.99361 117.588 2.68516 118.681 1.61139C119.2 1.09008 119.819 0.678765 120.501 0.402022C121.182 0.12528 121.913 -0.0112075 122.648 0.000719389C122.654 0.000710875 122.66 0.000710875 122.667 0.000719389C124.268 0.000719389 125.61 0.532719 126.695 1.59672C127.213 2.09443 127.624 2.6924 127.903 3.35418C128.183 4.01596 128.325 4.72771 128.32 5.44605C128.32 5.47627 128.32 5.5065 128.32 5.53672ZM52.7933 26.5727H65.9467C65.8645 25.8851 65.6979 25.2103 65.4507 24.5634C65.1129 23.6777 64.576 22.8817 63.8813 22.2367C63.0592 21.4857 62.0396 20.9852 60.9427 20.7941C60.4291 20.6986 59.9077 20.6517 59.3853 20.6541C58.7497 20.6495 58.1156 20.7157 57.4947 20.8514C56.46 21.0852 55.5862 21.5274 54.8733 22.1781C53.8209 23.1381 53.1436 24.4989 52.8413 26.2607C52.8239 26.3645 52.8079 26.4685 52.7933 26.5727Z" fill="white"/>
</svg>
