<svg width="240" height="39" viewBox="0 0 240 39" fill="none" xmlns="http://www.w3.org/2000/svg">
<path fill-rule="evenodd" clip-rule="evenodd" d="M99.492 12.6765V9.68846H105.937V29.4538C105.937 31.1729 105.446 32.7356 104.463 34.1418C103.646 35.2989 102.583 36.261 101.351 36.9591C101.041 37.1378 100.724 37.3024 100.4 37.4525C99.0134 38.0878 97.5258 38.4746 96.0053 38.5951C95.5539 38.6342 95.1011 38.6538 94.648 38.6538C93.5754 38.6597 92.5048 38.5629 91.4507 38.3645C90.1538 38.1129 88.9862 37.6965 87.948 37.1151C87.7895 37.0264 87.6335 36.9335 87.48 36.8365C85.5662 35.6258 84.2511 33.8289 83.5347 31.4458H90.0587C90.7324 32.7356 92.0027 33.4498 93.8693 33.5885C94.1027 33.6056 94.3367 33.614 94.5707 33.6138C95.0861 33.6177 95.6002 33.5617 96.1027 33.4471C96.8067 33.2891 97.4653 32.9721 98.028 32.5205C98.7259 31.9539 99.1833 31.144 99.308 30.2538C99.3536 29.9699 99.3759 29.6827 99.3747 29.3951V26.2125C99.0805 26.7085 98.7061 27.1523 98.2667 27.5258C97.9209 27.8262 97.5236 28.104 97.0747 28.3591C97.0278 28.3858 96.9807 28.412 96.9333 28.4378C95.8839 29.007 94.7148 29.3199 93.5213 29.3511C93.4152 29.3548 93.3089 29.3566 93.2027 29.3565C92.0543 29.3682 90.9112 29.1981 89.816 28.8525C88.3945 28.391 87.1114 27.5805 86.084 26.4951C84.4841 24.8286 83.527 22.6488 83.3827 20.3431C83.3539 19.9887 83.3396 19.6333 83.34 19.2778C83.3281 18.0621 83.5117 16.8525 83.884 15.6951C84.3342 14.3337 85.0863 13.0917 86.084 12.0618C87.9133 10.1542 90.2862 9.20046 93.2027 9.20046C93.9057 9.19596 94.6068 9.27609 95.2907 9.43913C95.9274 9.59274 96.5396 9.83464 97.1093 10.1578C98.2293 10.7951 99.0236 11.6347 99.492 12.6765ZM117.285 18.3605V29.8445H110.723V9.68846H117.089V12.6765C117.448 11.9398 117.967 11.2926 118.608 10.7818C118.878 10.5627 119.164 10.3635 119.463 10.1858C120.507 9.56595 121.695 9.22781 122.909 9.20446C122.994 9.20183 123.079 9.2005 123.164 9.20046C125.508 9.20046 127.298 9.93602 128.535 11.4071C129.259 12.2828 129.776 13.3105 130.048 14.4138C130.276 15.292 130.391 16.2622 130.391 17.3245V29.8445H123.848V18.3991C123.85 18.052 123.819 17.7055 123.755 17.3645C123.674 16.9511 123.54 16.5827 123.355 16.2591C123.268 16.108 123.168 15.9648 123.056 15.8311C122.727 15.4423 122.287 15.1632 121.795 15.0311C121.518 14.9511 121.213 14.9036 120.88 14.8885C120.801 14.8849 120.723 14.8831 120.644 14.8831C120.291 14.8803 119.94 14.9215 119.597 15.0058C119.066 15.1345 118.58 15.4067 118.193 15.7925C117.826 16.1651 117.564 16.6284 117.435 17.1351C117.35 17.4453 117.302 17.7845 117.289 18.1525C117.287 18.2218 117.285 18.2911 117.285 18.3605ZM233.379 12.6765V0.645792H239.941V29.8445H233.613V26.8365C233.113 27.6761 232.438 28.3986 231.635 28.9551C231.437 29.0945 231.234 29.2253 231.025 29.3471C230.123 29.868 229.119 30.1881 228.081 30.2858C227.771 30.3174 227.46 30.333 227.148 30.3325C225.835 30.3476 224.531 30.1104 223.308 29.6338C222.026 29.1146 220.873 28.3198 219.932 27.3058C218.192 25.469 217.182 23.0599 217.092 20.5311C217.078 20.2767 217.071 20.0219 217.071 19.7671C217.057 18.45 217.266 17.1401 217.688 15.8925C218.166 14.5244 218.931 13.2746 219.932 12.2271C220.811 11.2798 221.875 10.5228 223.058 10.0029C224.241 9.48304 225.518 9.21129 226.811 9.20446C226.923 9.20158 227.036 9.20025 227.148 9.20046C227.808 9.19615 228.466 9.26637 229.109 9.40979C229.782 9.56118 230.428 9.81336 231.025 10.1578C231.548 10.4555 232.025 10.8289 232.439 11.2658C232.828 11.6809 233.145 12.1575 233.379 12.6765ZM44.0427 23.5551H50.0787C49.4794 25.3172 48.368 26.8603 46.8867 27.9871C46.6952 28.1372 46.4991 28.2813 46.2987 28.4191C44.4436 29.6947 42.2791 30.3325 39.8053 30.3325C36.4942 30.3325 33.8698 29.4338 31.932 27.6365C31.8497 27.5601 31.7688 27.4824 31.6893 27.4031C30.1214 25.8346 29.1284 23.7832 28.8707 21.5805C28.7888 20.9661 28.7487 20.3469 28.7507 19.7271C28.7384 18.5075 28.9161 17.2934 29.2773 16.1285C29.761 14.6087 30.6172 13.2341 31.768 12.1298C33.4417 10.5088 35.6176 9.50618 37.9373 9.28713C38.4602 9.22855 38.9859 9.19962 39.512 9.20046C40.7171 9.18973 41.9175 9.35045 43.0773 9.67779C44.645 10.1258 46.0774 10.9549 47.2467 12.0911C49.2387 14.0182 50.2347 16.5898 50.2347 19.8058V21.7591H35.1947C35.3056 22.3566 35.5075 22.9335 35.7933 23.4698C36.428 24.6227 37.448 25.3005 38.8533 25.5031C39.1687 25.5472 39.4869 25.5686 39.8053 25.5671C40.2548 25.5697 40.7033 25.5264 41.144 25.4378C41.5625 25.3527 41.9688 25.2157 42.3533 25.0298C42.7316 24.8495 43.0819 24.6155 43.3933 24.3351C43.6444 24.106 43.8628 23.8435 44.0427 23.5551ZM181.583 23.5551H187.617C187.018 25.3172 185.907 26.8603 184.425 27.9871C184.234 28.1372 184.038 28.2813 183.837 28.4191C181.982 29.6947 179.818 30.3325 177.344 30.3325C174.033 30.3325 171.408 29.4338 169.471 27.6365C169.388 27.5601 169.307 27.4824 169.228 27.4031C167.661 25.8344 166.668 23.783 166.411 21.5805C166.328 20.9661 166.288 20.3469 166.289 19.7271C166.277 18.5075 166.455 17.2934 166.816 16.1285C167.3 14.6087 168.156 13.2341 169.307 12.1298C170.98 10.5088 173.156 9.50618 175.476 9.28713C175.999 9.22855 176.525 9.19962 177.051 9.20046C178.256 9.1896 179.457 9.35033 180.617 9.67779C182.185 10.126 183.616 10.9551 184.785 12.0911C186.777 14.0182 187.773 16.5898 187.773 19.8058V21.7591H172.735C172.845 22.3565 173.047 22.9334 173.332 23.4698C173.968 24.6227 174.988 25.3005 176.392 25.5031C176.707 25.5472 177.026 25.5686 177.344 25.5671C177.794 25.5698 178.243 25.5264 178.684 25.4378C179.102 25.3526 179.508 25.2156 179.892 25.0298C180.27 24.8495 180.621 24.6155 180.932 24.3351C181.184 24.1061 181.402 23.8436 181.583 23.5551ZM52.7347 23.5551H58.144C58.1652 23.8215 58.2204 24.084 58.308 24.3365C58.4351 24.7048 58.6545 25.0344 58.9453 25.2938C59.1983 25.5142 59.4964 25.6766 59.8187 25.7698C60.0427 25.8382 60.2889 25.8831 60.5573 25.9045C60.6838 25.9144 60.8105 25.9193 60.9373 25.9191C61.1798 25.9207 61.4219 25.8984 61.66 25.8525C61.9489 25.7947 62.2067 25.6991 62.4333 25.5658C62.5215 25.5138 62.6057 25.4555 62.6853 25.3911C62.8725 25.2444 63.0284 25.0617 63.144 24.8538C63.2766 24.6049 63.344 24.3265 63.34 24.0445C63.3492 23.7836 63.2905 23.5248 63.1696 23.2934C63.0488 23.0621 62.87 22.866 62.6507 22.7245C62.4009 22.5547 62.0836 22.4213 61.6987 22.3245L58.9453 21.6031C56.9924 21.1213 55.5698 20.4018 54.6773 19.4445C54.123 18.8407 53.7328 18.1048 53.544 17.3071C53.4187 16.8093 53.3511 16.2667 53.3413 15.6791C53.3405 15.6289 53.34 15.5787 53.34 15.5285C53.3309 14.7674 53.4625 14.0111 53.728 13.2978C54.0956 12.3561 54.7145 11.5334 55.5173 10.9191C56.6191 10.058 57.9293 9.50411 59.3147 9.31379C59.8391 9.23652 60.3686 9.19863 60.8987 9.20046C63.0862 9.20046 64.8213 9.77335 66.104 10.9191C67.1983 11.8995 67.9305 13.2197 68.1827 14.6671C68.2353 14.9393 68.2749 15.2138 68.3013 15.4898H62.9107C62.9002 15.2312 62.8465 14.9761 62.752 14.7351C62.668 14.5256 62.55 14.3315 62.4027 14.1605C62.1974 13.9239 61.9233 13.7575 61.6187 13.6845C61.4542 13.6418 61.2738 13.6187 61.0773 13.6151C61.0569 13.6145 61.0365 13.614 61.016 13.6138C60.8431 13.6129 60.6704 13.6272 60.5 13.6565C60.1693 13.7151 59.8987 13.8347 59.688 14.0151C59.4345 14.2304 59.2724 14.534 59.2347 14.8645C59.2236 14.9484 59.2183 15.0331 59.2187 15.1178C59.211 15.4068 59.2889 15.6916 59.4427 15.9365C59.688 16.3133 60.1342 16.5742 60.7813 16.7191L64.336 17.6765C67.5911 18.5227 69.2187 20.4302 69.2187 23.3991C69.2312 24.7004 68.8234 25.9709 68.056 27.0218C67.2824 28.0953 66.238 28.9446 65.0293 29.4831C63.7687 30.0531 62.3995 30.3428 61.016 30.3325C60.3444 30.3354 59.6735 30.2868 59.0093 30.1871C58.3301 30.0856 57.6636 29.9117 57.0213 29.6685C55.8632 29.2213 54.857 28.4525 54.1213 27.4525C53.6257 26.7866 53.2585 26.0342 53.0387 25.2338C52.8855 24.6849 52.7837 24.1229 52.7347 23.5551ZM0 1.83646H8.848C10.0336 1.83358 11.2183 1.90617 12.3947 2.05379C13.2451 2.16106 14.0887 2.31687 14.9213 2.52046C15.8015 2.7342 16.6655 3.01 17.5067 3.34579C18.2737 3.65155 19.0133 4.02222 19.7173 4.45379C21.0649 5.28757 22.2107 6.28357 23.1547 7.44179C24.0926 8.58997 24.8108 9.90122 25.2733 11.3098C25.7018 12.6234 25.9363 13.9925 25.9693 15.3738C25.9738 15.5293 25.976 15.6849 25.976 15.8405C25.9818 17.0966 25.8259 18.3482 25.512 19.5645C25.4409 19.8362 25.3613 20.1057 25.2733 20.3725C24.8107 21.7806 24.0924 23.0913 23.1547 24.2391C22.2241 25.3731 21.1159 26.3488 19.8733 27.1285C19.8215 27.1617 19.7695 27.1945 19.7173 27.2271C18.9208 27.7151 18.0797 28.1263 17.2053 28.4551C16.4591 28.7366 15.6963 28.9722 14.9213 29.1605C13.7149 29.4537 12.487 29.6503 11.2493 29.7485C10.4505 29.8134 9.64942 29.8455 8.848 29.8445H0V1.83646ZM151.797 1.83646V23.9271H163.711V29.8445H144.98V1.83646H151.797ZM206.915 12.6765V9.68846H213.36V29.8445H207.031V26.8365C206.53 27.6761 205.856 28.3986 205.052 28.9551C204.855 29.0945 204.652 29.2253 204.444 29.3471C203.542 29.868 202.537 30.1881 201.5 30.2858C201.19 30.3174 200.878 30.333 200.567 30.3325C199.253 30.3478 197.949 30.1106 196.725 29.6338C195.443 29.1146 194.29 28.3198 193.349 27.3058C191.609 25.469 190.599 23.0599 190.509 20.5311C190.495 20.2767 190.488 20.0219 190.488 19.7671C190.475 18.45 190.684 17.14 191.107 15.8925C191.584 14.5245 192.349 13.2747 193.349 12.2271C194.228 11.2798 195.292 10.5228 196.475 10.0029C197.659 9.48304 198.936 9.21129 200.228 9.20446C200.341 9.20157 200.454 9.20024 200.567 9.20046C201.277 9.19585 201.985 9.27597 202.676 9.43913C203.318 9.59287 203.936 9.83472 204.512 10.1578C205.011 10.4338 205.47 10.777 205.876 11.1778C206.311 11.6099 206.663 12.1178 206.915 12.6765ZM79.4147 29.8445H72.852V9.68846H79.4147V29.8445ZM6.816 24.1218H8.20267C9.22933 24.127 10.2551 24.0588 11.272 23.9178C12.3129 23.7676 13.2556 23.5347 14.1 23.2191C14.8985 22.9274 15.6517 22.5243 16.3373 22.0218C17.0756 21.4766 17.696 20.7876 18.1612 19.9964C18.6263 19.2052 18.9266 18.3281 19.044 17.4178C19.1233 16.8958 19.1621 16.3684 19.16 15.8405C19.1686 14.9741 19.0569 14.1108 18.828 13.2751C18.4306 11.8228 17.5526 10.5481 16.3373 9.65913C15.4902 9.04376 14.5461 8.5746 13.544 8.27113C12.7004 8.00446 11.768 7.81246 10.7467 7.69513C9.90193 7.60166 9.05256 7.55626 8.20267 7.55913H6.816V24.1218ZM201.875 24.8831C202.474 24.8897 203.07 24.7936 203.637 24.5991C204.311 24.3602 204.918 23.966 205.411 23.4485C206.176 22.6532 206.65 21.6221 206.755 20.5231C206.783 20.2721 206.798 20.0197 206.797 19.7671C206.797 18.2693 206.335 17.0418 205.411 16.0845C204.562 15.1997 203.399 14.6863 202.173 14.6565C202.074 14.6518 201.974 14.6496 201.875 14.6498C201.265 14.6431 200.66 14.7479 200.088 14.9591C199.444 15.2059 198.866 15.5979 198.399 16.1045C197.615 16.9394 197.142 18.0183 197.059 19.1605C197.04 19.3622 197.031 19.5646 197.031 19.7671C197.025 20.3727 197.114 20.9754 197.293 21.5538C197.515 22.2542 197.893 22.8951 198.399 23.4285C198.818 23.8811 199.325 24.2434 199.889 24.4931C200.453 24.7428 201.062 24.8746 201.679 24.8805C201.744 24.8824 201.809 24.8833 201.875 24.8831ZM228.457 24.8831C229.057 24.8897 229.653 24.7936 230.22 24.5991C230.893 24.36 231.5 23.9658 231.992 23.4485C232.758 22.6534 233.232 21.6222 233.337 20.5231C233.365 20.2721 233.379 20.0197 233.379 19.7671C233.379 18.2693 232.916 17.0418 231.992 16.0845C231.144 15.2 229.981 14.6867 228.756 14.6565C228.657 14.6518 228.557 14.6496 228.457 14.6498C227.848 14.6431 227.242 14.7479 226.671 14.9591C226.027 15.2057 225.448 15.5977 224.98 16.1045C224.196 16.9394 223.723 18.0183 223.64 19.1605C223.622 19.3622 223.613 19.5646 223.613 19.7671C223.608 20.3726 223.696 20.9753 223.875 21.5538C224.097 22.2542 224.475 22.8951 224.98 23.4285C225.399 23.8813 225.906 24.2437 226.471 24.4934C227.035 24.7431 227.644 24.8748 228.261 24.8805C228.327 24.8824 228.392 24.8833 228.457 24.8831ZM91.104 22.6765C91.7973 23.3827 92.7106 23.8314 93.6933 23.9485C93.9708 23.9864 94.2506 24.0051 94.5307 24.0045C95.0929 24.0102 95.6526 23.9302 96.1907 23.7671C96.8793 23.5531 97.5061 23.1757 98.0173 22.6671C98.8545 21.8478 99.3391 20.7342 99.368 19.5631C99.3725 19.4681 99.3747 19.3729 99.3747 19.2778C99.3747 17.9107 98.9258 16.7845 98.028 15.8991C97.2962 15.1808 96.3435 14.7303 95.324 14.6205C95.0609 14.5873 94.7959 14.5708 94.5307 14.5711C94.0118 14.5665 93.4948 14.6343 92.9947 14.7725C92.2773 14.9726 91.6253 15.3579 91.104 15.8898C90.3761 16.6296 89.9286 17.5998 89.8387 18.6338C89.8161 18.8477 89.805 19.0627 89.8053 19.2778C89.8 19.8246 89.8778 20.369 90.036 20.8925C90.2438 21.5641 90.6101 22.176 91.104 22.6765ZM79.632 5.14446C79.8164 4.68284 79.9083 4.18951 79.9027 3.69246C79.9024 3.67201 79.9019 3.65157 79.9013 3.63113C79.9044 3.15244 79.8099 2.67815 79.6238 2.23713C79.4377 1.79611 79.1637 1.39757 78.8187 1.06579C78.4667 0.715206 78.0464 0.440645 77.584 0.259125C77.1208 0.0831162 76.6288 -0.00461751 76.1333 0.000458612C76.1289 0.000452026 76.1245 0.000452026 76.12 0.000458612C75.6297 -0.00731659 75.1428 0.0838439 74.6885 0.268491C74.2343 0.453139 73.8219 0.727483 73.476 1.07513C73.4621 1.08925 73.4483 1.10347 73.4347 1.11779C73.0939 1.45318 72.8249 1.85438 72.644 2.29699C72.4632 2.73961 72.3743 3.21439 72.3827 3.69246C72.3828 3.72535 72.3832 3.75824 72.384 3.79113C72.3845 4.26756 72.4816 4.73896 72.6693 5.17687C72.8569 5.61479 73.1314 6.01016 73.476 6.33913C73.825 6.68554 74.2401 6.95825 74.6966 7.14104C75.1531 7.32382 75.6417 7.41295 76.1333 7.40313C76.152 7.40323 76.1707 7.40323 76.1893 7.40313C76.6763 7.40898 77.1595 7.31792 77.6109 7.13525C78.0623 6.95259 78.4728 6.68196 78.8187 6.33913C79.1688 6.00087 79.4457 5.59423 79.632 5.14446ZM35.1947 17.7151H43.9653C43.91 17.257 43.7985 16.8074 43.6333 16.3765C43.4085 15.7858 43.0509 15.2548 42.588 14.8245C42.04 14.3241 41.3604 13.9906 40.6293 13.8631C40.2864 13.7994 39.9382 13.7681 39.5893 13.7698C39.1657 13.7669 38.7431 13.8112 38.3293 13.9018C37.7373 14.0351 37.224 14.2716 36.7893 14.6111C36.7182 14.6667 36.6493 14.725 36.5827 14.7858C36.1436 15.1925 35.8011 15.6923 35.58 16.2485C35.4244 16.6271 35.3071 17.0471 35.228 17.5085C35.2159 17.5772 35.2048 17.6461 35.1947 17.7151ZM172.735 17.7151H181.504C181.449 17.257 181.338 16.8074 181.173 16.3765C180.948 15.7857 180.59 15.2546 180.127 14.8245C179.579 14.3241 178.899 13.9906 178.168 13.8631C177.825 13.7995 177.478 13.7682 177.129 13.7698C176.706 13.7669 176.283 13.8112 175.869 13.9018C175.276 14.0351 174.763 14.2716 174.328 14.6111C174.257 14.6667 174.188 14.725 174.121 14.7858C173.683 15.1927 173.341 15.6924 173.12 16.2485C172.964 16.6271 172.846 17.0471 172.767 17.5085C172.755 17.5772 172.744 17.6461 172.735 17.7151Z" fill="#56CE62"/>
</svg>
