<svg width="411" height="58" viewBox="0 0 411 58" fill="none" xmlns="http://www.w3.org/2000/svg">
<path fill-rule="evenodd" clip-rule="evenodd" d="M6.856 2.75472L23.466 29.8847L40.078 2.75472H46.934V44.7667H37.09V24.4347L23.466 45.3527L9.844 24.4347V44.7667H0V2.75472H6.856ZM219.698 35.8907H239.062V44.7667H209.472V2.75472H238.828V11.6607H219.698V19.0147H238.272V27.9207H219.698V35.8907ZM258.486 34.0727L264.99 14.5327H275.126L263.056 44.7667L258.486 57.3067H248.232L253.448 43.5667L241.876 14.5327H252.012L258.486 34.0727ZM73.858 31.8767V14.5327H83.702V44.7667H74.15V40.2547C73.5897 41.4058 72.7777 42.4161 71.774 43.2107C71.4164 43.4988 71.041 43.764 70.65 44.0047C69.1921 44.8988 67.5306 45.4068 65.822 45.4807C65.6002 45.4928 65.3781 45.4988 65.156 45.4987C64.0837 45.5082 63.0141 45.3893 61.97 45.1447C60.0848 44.7231 58.3926 43.6884 57.158 42.2027C55.4993 40.1961 54.598 37.5501 54.454 34.2647C54.4404 33.9476 54.4337 33.6302 54.434 33.3127V14.5327H64.278V31.8187C64.2698 32.4878 64.339 33.1555 64.484 33.8087C65.0013 35.9967 66.4853 37.0907 68.936 37.0907C70.4987 37.0907 71.7093 36.6367 72.568 35.7287C73.344 34.9087 73.77 33.7827 73.846 32.3507C73.8542 32.1929 73.8582 32.0348 73.858 31.8767ZM177.48 19.0147V0.96872H187.324V44.7667H177.832V40.2547C177.081 41.5142 176.069 42.5979 174.864 43.4327C174.568 43.6418 174.263 43.838 173.95 44.0207C172.596 44.802 171.09 45.2822 169.534 45.4287C169.069 45.4762 168.602 45.4996 168.134 45.4987C166.165 45.5214 164.209 45.1656 162.374 44.4507C160.45 43.6719 158.722 42.4798 157.31 40.9587C154.699 38.2035 153.185 34.5899 153.05 30.7967C153.029 30.4151 153.018 30.0329 153.018 29.6507C152.998 27.6751 153.311 25.7102 153.944 23.8387C154.66 21.7866 155.808 19.9119 157.31 18.3407C158.629 16.9198 160.224 15.7843 161.999 15.0044C163.774 14.2246 165.69 13.817 167.628 13.8067C167.797 13.8024 167.965 13.8004 168.134 13.8007C169.123 13.7943 170.11 13.8996 171.076 14.1147C172.085 14.3418 173.054 14.7201 173.95 15.2367C174.735 15.6833 175.449 16.2434 176.07 16.8987C176.654 17.5213 177.13 18.2364 177.48 19.0147ZM377.256 44.7667H350.596V44.4747L362.548 22.1507H351.036V14.5327H376.816V14.8247L364.952 37.0327H377.256V44.7667ZM292.148 33.6047L298.798 14.5327H308.936L296.69 44.7667H287.578L275.332 14.5327H285.468L292.148 33.6047ZM137.784 19.0147V14.5327H147.452V44.7667H137.958V40.2547C137.207 41.5142 136.195 42.5979 134.99 43.4327C134.695 43.6418 134.39 43.8379 134.078 44.0207C132.724 44.802 131.218 45.2822 129.662 45.4287C129.197 45.4762 128.73 45.4996 128.262 45.4987C126.293 45.5214 124.337 45.1656 122.502 44.4507C120.578 43.6722 118.848 42.48 117.436 40.9587C114.825 38.2035 113.311 34.5899 113.176 30.7967C113.155 30.4151 113.144 30.0329 113.144 29.6507C113.124 27.675 113.438 25.7101 114.072 23.8387C114.788 21.7868 115.935 19.9121 117.436 18.3407C118.755 16.9198 120.35 15.7843 122.125 15.0044C123.9 14.2246 125.816 13.817 127.754 13.8067C127.923 13.8024 128.093 13.8004 128.262 13.8007C129.327 13.7938 130.389 13.914 131.426 14.1587C132.389 14.3893 133.316 14.7521 134.18 15.2367C134.929 15.6508 135.617 16.1656 136.226 16.7667C136.878 17.4149 137.406 18.1767 137.784 19.0147ZM335.684 19.0147V14.5327H345.352V44.7667H335.86V40.2547C335.109 41.5144 334.096 42.5981 332.89 43.4327C332.595 43.6418 332.29 43.8379 331.978 44.0207C330.624 44.802 329.118 45.2822 327.562 45.4287C327.097 45.4762 326.63 45.4996 326.162 45.4987C324.193 45.5214 322.237 45.1656 320.402 44.4507C318.478 43.6722 316.748 42.48 315.336 40.9587C312.725 38.2035 311.211 34.5899 311.076 30.7967C311.055 30.4151 311.044 30.0329 311.044 29.6507C311.024 27.675 311.338 25.7101 311.972 23.8387C312.688 21.7868 313.835 19.9121 315.336 18.3407C316.655 16.9195 318.251 15.7839 320.026 15.004C321.801 14.2242 323.717 13.8167 325.656 13.8067C325.825 13.8024 325.993 13.8004 326.162 13.8007C327.227 13.7938 328.289 13.914 329.326 14.1587C330.289 14.3893 331.216 14.7521 332.08 15.2367C332.829 15.6508 333.517 16.1656 334.126 16.7667C334.778 17.4149 335.306 18.1767 335.684 19.0147ZM392.05 44.7667H382.208V0.96872H392.05V44.7667ZM110.302 13.9167V23.7027H108.34C105.615 23.7027 103.665 24.3187 102.492 25.5507C102.488 25.5547 102.484 25.5587 102.48 25.5627C101.383 26.7254 100.799 28.6467 100.73 31.3267C100.725 31.51 100.722 31.6934 100.722 31.8767V44.7667H90.878V14.5327H100.43V20.2167C101.562 16.0167 104.541 13.9167 109.366 13.9167H110.302ZM409.366 44.7667H399.522V14.5327H409.366V44.7667ZM130.224 37.3247C131.123 37.3345 132.017 37.1905 132.868 36.8987C133.878 36.5404 134.789 35.9491 135.528 35.1727C136.676 33.9798 137.387 32.4332 137.544 30.7847C137.587 30.4082 137.608 30.0296 137.608 29.6507C137.608 27.4041 136.915 25.5627 135.528 24.1267C134.256 22.7995 132.51 22.0295 130.672 21.9847C130.523 21.9778 130.373 21.9745 130.224 21.9747C129.31 21.9647 128.402 22.1219 127.544 22.4387C126.578 22.8089 125.711 23.3968 125.01 24.1567C123.834 25.4091 123.125 27.0275 123 28.7407C122.972 29.0433 122.958 29.3469 122.958 29.6507C122.95 30.559 123.083 31.4631 123.352 32.3307C123.685 33.3813 124.252 34.3427 125.01 35.1427C125.639 35.8217 126.399 36.3652 127.245 36.7397C128.091 37.1142 129.005 37.3119 129.93 37.3207C130.028 37.3237 130.126 37.325 130.224 37.3247ZM170.098 37.3247C170.997 37.3345 171.891 37.1905 172.742 36.8987C173.751 36.5401 174.662 35.9488 175.4 35.1727C176.549 33.9801 177.261 32.4334 177.418 30.7847C177.46 30.4082 177.481 30.0296 177.48 29.6507C177.48 27.4041 176.787 25.5627 175.4 24.1267C174.128 22.8 172.383 22.03 170.546 21.9847C170.397 21.9778 170.247 21.9745 170.098 21.9747C169.184 21.9647 168.276 22.1219 167.418 22.4387C166.452 22.8086 165.584 23.3966 164.882 24.1567C163.706 25.4091 162.997 27.0275 162.872 28.7407C162.845 29.0433 162.831 29.3469 162.832 29.6507C162.823 30.5589 162.956 31.463 163.224 32.3307C163.557 33.3813 164.124 34.3427 164.882 35.1427C165.511 35.822 166.272 36.3655 167.118 36.7401C167.964 37.1146 168.878 37.3122 169.804 37.3207C169.902 37.3237 170 37.325 170.098 37.3247ZM328.124 37.3247C329.023 37.3345 329.917 37.1905 330.768 36.8987C331.778 36.5404 332.689 35.9491 333.428 35.1727C334.576 33.9798 335.287 32.4332 335.444 30.7847C335.487 30.4082 335.508 30.0296 335.508 29.6507C335.508 27.4041 334.815 25.5627 333.428 24.1267C332.156 22.7995 330.41 22.0295 328.572 21.9847C328.423 21.9778 328.275 21.9745 328.126 21.9747C327.211 21.9644 326.302 22.1217 325.444 22.4387C324.478 22.8089 323.611 23.3968 322.91 24.1567C321.734 25.4091 321.025 27.0275 320.9 28.7407C320.873 29.0433 320.859 29.3469 320.86 29.6507C320.851 30.5589 320.984 31.463 321.252 32.3307C321.585 33.3813 322.152 34.3427 322.91 35.1427C323.539 35.8217 324.299 36.3652 325.145 36.7397C325.991 37.1142 326.905 37.3119 327.83 37.3207C327.928 37.3237 328.026 37.325 328.124 37.3247ZM409.692 7.71672C409.969 7.02429 410.107 6.2843 410.098 5.53872C410.098 5.50805 410.098 5.47739 410.098 5.44672C410.102 4.72855 409.96 4.01703 409.681 3.35549C409.401 2.69394 408.99 2.09622 408.472 1.59872C407.944 1.07284 407.314 0.660999 406.62 0.38872C405.925 0.124706 405.187 -0.00689469 404.444 0.000719491C404.438 0.000711489 404.432 0.000711489 404.426 0.000719491C403.69 -0.0112134 402.96 0.125396 402.278 0.402375C401.596 0.679354 400.977 1.09101 400.458 1.61272C400.437 1.63391 400.417 1.65524 400.396 1.67672C399.885 2.17979 399.481 2.7816 399.21 3.44552C398.939 4.10945 398.805 4.82162 398.818 5.53872C398.818 5.58806 398.819 5.63739 398.82 5.68672C398.821 6.40138 398.966 7.10847 399.248 7.76534C399.529 8.42222 399.941 9.01527 400.458 9.50872C400.982 10.0283 401.604 10.4374 402.289 10.7116C402.974 10.9858 403.707 11.1195 404.444 11.1047C404.472 11.1049 404.5 11.1049 404.528 11.1047C405.258 11.1135 405.983 10.9769 406.66 10.7029C407.337 10.4289 407.953 10.023 408.472 9.50872C408.997 9.00134 409.413 8.39138 409.692 7.71672Z" fill="white"/>
</svg>
