<svg width="358" height="58" viewBox="0 0 358 58" fill="none" xmlns="http://www.w3.org/2000/svg">
<path fill-rule="evenodd" clip-rule="evenodd" d="M143.218 31.8871H152.884C152.98 32.686 153.187 33.4673 153.5 34.2078C154.247 35.9111 155.567 36.9194 157.459 37.2328C157.91 37.3047 158.366 37.3395 158.823 37.3369C160.356 37.3369 161.627 36.8927 162.637 36.0044C163.087 35.6182 163.456 35.1463 163.724 34.616C164.013 34.0222 164.159 33.3684 164.152 32.7074C164.173 31.8608 163.935 31.0282 163.47 30.3226C162.818 29.3609 161.696 28.6614 160.105 28.2239L154.544 26.7294C152.973 26.3421 151.452 25.7749 150.01 25.0389C145.909 22.8875 143.858 19.5431 143.858 15.0056C143.849 13.7193 144.014 12.4377 144.349 11.1963C144.669 10.0317 145.167 8.92418 145.824 7.91327C147.133 5.90195 148.875 4.40279 151.049 3.4158C152.595 2.72391 154.236 2.2739 155.917 2.08137C156.746 1.98247 157.581 1.9337 158.415 1.93532C159.936 1.9212 161.451 2.12394 162.915 2.53752C164.952 3.11999 166.806 4.21949 168.3 5.73056C170.758 8.18749 172.187 11.4986 172.295 14.9836C172.298 15.0496 172.301 15.1156 172.303 15.1816H163.074C163.038 14.5718 162.92 13.9696 162.725 13.3911C162.504 12.7426 162.163 12.1419 161.721 11.6205C161.084 10.8729 160.195 10.3895 159.224 10.264C158.938 10.2207 158.648 10.1993 158.358 10.2C157.919 10.1973 157.48 10.2348 157.048 10.3121C156.224 10.4654 155.544 10.7749 155.009 11.2404C154.65 11.5475 154.359 11.9266 154.155 12.3535C153.951 12.7804 153.837 13.2456 153.822 13.7192C153.818 13.8065 153.816 13.8938 153.816 13.9812C153.812 14.3434 153.859 14.7043 153.953 15.0536C154.111 15.63 154.444 16.1417 154.907 16.5161C155.182 16.7367 155.477 16.9309 155.788 17.0963C156.419 17.4404 157.202 17.7458 158.137 18.0126C158.152 18.0166 158.168 18.0206 158.183 18.0246L163.539 19.5191C164.662 19.8288 165.759 20.2227 166.823 20.6974C168.723 21.5577 170.259 22.6254 171.43 23.9005C172.514 25.0986 173.282 26.5504 173.666 28.1239C173.962 29.2589 174.11 30.5133 174.11 31.8871C174.128 33.898 173.664 35.8837 172.756 37.675C171.852 39.4436 170.663 40.8994 169.188 42.0424C167.691 43.1966 166.014 44.0924 164.225 44.6933C162.39 45.3188 160.512 45.6316 158.59 45.6316C157.065 45.6433 155.544 45.4822 154.055 45.1514C151.574 44.5792 149.476 43.4989 147.76 41.9104C145.671 39.9622 144.23 37.4128 143.634 34.61C143.43 33.7136 143.292 32.8036 143.218 31.8871ZM113.375 19.0209V14.5374H122.983V44.1951C122.983 46.7746 122.25 49.1194 120.784 51.2294C119.567 52.9657 117.982 54.4093 116.145 55.4568C115.684 55.7249 115.211 55.9719 114.728 56.197C112.661 57.1504 110.444 57.7308 108.177 57.9116C107.504 57.9702 106.829 57.9996 106.154 57.9996C104.555 58.0085 102.959 57.8632 101.387 57.5655C99.454 57.188 97.7136 56.5631 96.1659 55.6909C95.9297 55.5578 95.697 55.4184 95.4683 55.2727C92.6154 53.4561 90.655 50.7599 89.587 47.1841H99.3123C100.317 49.1194 102.21 50.1911 104.991 50.3991C105.339 50.4249 105.689 50.4375 106.038 50.4371C106.806 50.4428 107.572 50.3589 108.32 50.1871C109.37 49.9499 110.351 49.4743 111.19 48.7966C112.231 47.9469 112.914 46.7316 113.1 45.3955C113.168 44.9695 113.201 44.5386 113.2 44.1071V39.3315C112.761 40.0759 112.203 40.7418 111.548 41.3022C111.032 41.753 110.44 42.1698 109.771 42.5526C109.701 42.5925 109.631 42.6319 109.56 42.6706C107.996 43.5246 106.253 43.9942 104.474 44.0411C104.316 44.0466 104.157 44.0492 103.999 44.0491C102.287 44.0666 100.583 43.8114 98.9505 43.2928C96.8315 42.6004 94.9187 41.3843 93.3872 39.7557C91.0023 37.2551 89.5755 33.9843 89.3604 30.5246C89.3174 29.9929 89.2962 29.4596 89.2968 28.9261C89.2789 27.102 89.5528 25.2869 90.1077 23.5504C90.7788 21.5076 91.8999 19.6439 93.3872 18.0986C96.1142 15.2363 99.6515 13.8052 103.999 13.8052C105.047 13.7984 106.092 13.9187 107.112 14.1633C108.061 14.3938 108.973 14.7568 109.823 15.2417C111.492 16.198 112.676 17.4577 113.375 19.0209ZM10.1606 44.7813H0V2.75559H28.3869V11.6645H10.1606V19.7531H27.8641V28.634H10.1606V44.7813ZM271.995 34.0838L278.458 14.5374H288.531L276.536 44.7813L271.995 57.3254H261.804L266.986 43.5809L255.486 14.5374H265.559L271.995 34.0838ZM313.192 35.3442H322.189C321.296 37.9882 319.639 40.3036 317.431 41.9944C317.146 42.2196 316.853 42.4357 316.555 42.6426C313.789 44.5566 310.563 45.5135 306.875 45.5135C301.939 45.5135 298.027 44.1651 295.138 41.4682C295.016 41.3537 294.895 41.237 294.777 41.1181C292.439 38.7646 290.959 35.6864 290.575 32.3813C290.453 31.4594 290.393 30.5303 290.396 29.6003C290.378 27.7703 290.642 25.9486 291.181 24.2006C291.902 21.9202 293.178 19.8576 294.894 18.2006C297.389 15.7683 300.632 14.2639 304.09 13.9352C304.87 13.8473 305.654 13.8039 306.438 13.8052C308.234 13.7891 310.024 14.0303 311.753 14.5214C314.089 15.1937 316.225 16.4377 317.968 18.1426C320.937 21.0342 322.422 24.8928 322.422 29.7184V32.6493H300.004C300.169 33.5457 300.469 34.4114 300.894 35.2162C301.84 36.9461 303.361 37.9631 305.456 38.2672C305.926 38.3333 306.4 38.3654 306.875 38.3632C307.545 38.3671 308.214 38.302 308.871 38.1691C309.494 38.0415 310.1 37.8359 310.673 37.5569C311.237 37.2864 311.759 36.9353 312.224 36.5146C312.598 36.1708 312.924 35.777 313.192 35.3442ZM237.872 0.850966V8.88159C237.556 8.77265 237.232 8.68903 236.904 8.6315C236.571 8.57148 236.211 8.52814 235.824 8.50146C235.507 8.48072 235.19 8.47072 234.872 8.47145C234.524 8.46931 234.176 8.49003 233.831 8.53347C233.07 8.63484 232.479 8.85624 232.056 9.19769C231.992 9.25007 231.931 9.30619 231.873 9.36574C231.626 9.6259 231.436 9.93441 231.313 10.272C231.118 10.7789 231.014 11.4077 231.001 12.1587C231 12.2093 231 12.26 231.001 12.3107V14.5374H237.434V22.392H231.001V44.7813H221.218V22.392H216.704V14.5374H221.218V12.0746C221.21 10.9495 221.303 9.82591 221.496 8.71753C221.912 6.41678 222.794 4.58085 224.143 3.20974C225.102 2.25875 226.262 1.53794 227.536 1.10105C228.484 0.758269 229.542 0.517523 230.712 0.378812C231.561 0.281188 232.416 0.233758 233.27 0.236765C233.76 0.235679 234.249 0.248354 234.737 0.274778C236.098 0.350802 237.143 0.542865 237.872 0.850966ZM341.318 33.6157L347.927 14.5374H358L345.83 44.7813H336.774L324.604 14.5374H334.68L341.318 33.6157ZM56.6286 19.0209V14.5374H66.2367V44.7813H56.8035V40.2678C56.0576 41.5277 55.0517 42.6118 53.8539 43.4469C53.5597 43.656 53.2567 43.8523 52.9456 44.0351C51.6003 44.8166 50.1034 45.297 48.557 45.4435C48.0947 45.491 47.6303 45.5144 47.1657 45.5135C45.2085 45.5362 43.2652 45.1803 41.4414 44.4652C39.5298 43.6861 37.8117 42.4936 36.4088 40.9721C33.8144 38.2159 32.309 34.6012 32.1752 30.8067C32.154 30.425 32.1434 30.0427 32.1434 29.6604C32.1238 27.684 32.4356 25.7184 33.0657 23.8465C33.777 21.7939 34.9169 19.9185 36.4088 18.3467C37.7192 16.9253 39.3052 15.7894 41.0689 15.0093C42.8325 14.2292 44.7364 13.8214 46.6628 13.8112C46.8304 13.8069 46.998 13.8049 47.1657 13.8052C48.2242 13.7983 49.2798 13.9185 50.3101 14.1633C51.2674 14.394 52.1884 14.7569 53.047 15.2417C53.7918 15.6557 54.4766 16.1707 55.0823 16.7722C55.7295 17.4207 56.2535 18.1828 56.6286 19.0209ZM202.641 19.0209V14.5374H212.25V44.7813H202.816V40.2678C202.07 41.5277 201.065 42.6118 199.867 43.4469C199.573 43.656 199.27 43.8523 198.958 44.0351C197.613 44.8166 196.116 45.297 194.57 45.4435C194.108 45.491 193.643 45.5144 193.179 45.5135C191.221 45.5362 189.278 45.1803 187.454 44.4652C185.543 43.6861 183.825 42.4936 182.422 40.9721C179.827 38.2159 178.322 34.6012 178.188 30.8067C178.167 30.425 178.156 30.0427 178.156 29.6604C178.136 27.6841 178.447 25.7186 179.077 23.8465C179.788 21.7937 180.929 19.9183 182.422 18.3467C183.732 16.9253 185.318 15.7894 187.082 15.0093C188.845 14.2292 190.749 13.8214 192.676 13.8112C192.843 13.8069 193.011 13.8049 193.179 13.8052C194.237 13.7983 195.293 13.9185 196.323 14.1633C197.28 14.394 198.201 14.7569 199.06 15.2417C199.805 15.6557 200.489 16.1707 201.095 16.7722C201.742 17.4207 202.266 18.1828 202.641 19.0209ZM83.4433 44.7813H73.6623V14.5374H83.4433V44.7813ZM251.497 44.7813H241.714V14.5374H251.497V44.7813ZM49.1175 37.3369C50.0111 37.3467 50.8998 37.2026 51.7451 36.9107C52.7481 36.552 53.653 35.9605 54.3866 35.1842C55.5287 33.9912 56.2356 32.444 56.3921 30.7947C56.434 30.4181 56.4546 30.0394 56.4537 29.6604C56.4537 27.413 55.7647 25.571 54.3866 24.1346C53.1227 22.8074 51.3886 22.0372 49.5627 21.9919C49.4144 21.9849 49.266 21.9816 49.1175 21.9819C48.209 21.9718 47.3064 22.1291 46.4541 22.446C45.4939 22.8161 44.6314 23.4042 43.9338 24.1646C42.7654 25.4174 42.0602 27.0363 41.9363 28.7501C41.9093 29.0527 41.896 29.3565 41.8966 29.6604C41.8881 30.5689 42.0195 31.4732 42.2861 32.3412C42.6171 33.3922 43.1805 34.3539 43.9338 35.1542C44.5587 35.8336 45.3149 36.3774 46.156 36.752C46.9972 37.1267 47.9055 37.3244 48.8253 37.3329C48.9227 37.3358 49.0201 37.3371 49.1175 37.3369ZM195.13 37.3369C196.024 37.3467 196.913 37.2026 197.758 36.9107C198.761 36.552 199.666 35.9605 200.399 35.1842C201.542 33.9912 202.248 32.444 202.405 30.7947C202.447 30.4181 202.467 30.0394 202.467 29.6604C202.467 27.413 201.778 25.571 200.399 24.1346C199.135 22.8074 197.401 22.0372 195.576 21.9919C195.427 21.9849 195.279 21.9816 195.13 21.9819C194.222 21.9718 193.319 22.1291 192.467 22.446C191.507 22.8161 190.644 23.4042 189.947 24.1646C188.778 25.4174 188.073 27.0363 187.949 28.7501C187.922 29.0527 187.909 29.3565 187.909 29.6604C187.901 30.5689 188.032 31.4732 188.299 32.3412C188.63 33.3922 189.193 34.3539 189.947 35.1542C190.572 35.8336 191.328 36.3774 192.169 36.752C193.01 37.1267 193.918 37.3244 194.838 37.3329C194.936 37.3358 195.033 37.3371 195.13 37.3369ZM100.871 34.0258C101.904 35.0855 103.266 35.7588 104.73 35.9344C105.144 35.9913 105.561 36.0194 105.979 36.0184C106.817 36.0271 107.651 35.907 108.453 35.6623C109.48 35.3412 110.414 34.7749 111.176 34.0118C112.424 32.7824 113.147 31.1114 113.19 29.3543C113.196 29.2117 113.2 29.0689 113.2 28.9261C113.2 26.8748 112.53 25.1849 111.19 23.8565C110.1 22.7791 108.68 22.1032 107.161 21.9378C106.769 21.888 106.374 21.8633 105.979 21.8638C105.205 21.8569 104.435 21.9586 103.689 22.1659C102.62 22.4662 101.648 23.0444 100.871 23.8425C99.7847 24.9522 99.117 26.4081 98.9823 27.9598C98.9488 28.2808 98.9322 28.6034 98.9326 28.9261C98.9254 29.7467 99.042 30.5636 99.2785 31.3489C99.5883 32.3568 100.134 33.2749 100.871 34.0258ZM83.7673 7.71921C84.0428 7.02669 84.1806 6.28645 84.1727 5.5405C84.1723 5.50982 84.1716 5.47914 84.1708 5.44847C84.1752 4.73021 84.0345 4.01854 83.757 3.35679C83.4796 2.69504 83.0712 2.09705 82.5568 1.59921C82.0321 1.07316 81.4057 0.661183 80.7163 0.388815C80.0252 0.124469 79.2911 -0.00717873 78.5518 0.000688142C78.5459 0.000680137 78.5399 0.000680137 78.5339 0.000688142C77.803 -0.0109785 77.0773 0.125807 76.4001 0.402869C75.7229 0.67993 75.1081 1.09158 74.5925 1.61321C74.5718 1.63441 74.5513 1.65575 74.5309 1.67724C74.0229 2.18047 73.6219 2.78247 73.3523 3.44662C73.0827 4.11076 72.9501 4.82316 72.9627 5.5405C72.9628 5.58985 72.9635 5.6392 72.9647 5.68854C72.9655 6.40344 73.1101 7.11076 73.3899 7.76784C73.6697 8.42493 74.0788 9.01818 74.5925 9.51179C75.1125 10.0313 75.731 10.4404 76.4111 10.7147C77.0913 10.9889 77.8193 11.1228 78.5518 11.1083C78.5803 11.1085 78.6088 11.1085 78.6373 11.1083C79.3631 11.1171 80.0835 10.9805 80.7564 10.7064C81.4293 10.4323 82.0413 10.0262 82.5568 9.51179C83.0781 9.00406 83.4901 8.39391 83.7673 7.71921ZM251.821 7.71921C252.095 7.02655 252.233 6.28631 252.224 5.5405C252.224 5.50982 252.224 5.47914 252.224 5.44847C252.228 4.73006 252.087 4.01831 251.809 3.35655C251.532 2.69479 251.123 2.09687 250.608 1.59921C250.084 1.07339 249.458 0.661424 248.77 0.388815C248.079 0.124469 247.344 -0.00717873 246.605 0.000688142C246.599 0.000680137 246.593 0.000680137 246.587 0.000688142C245.856 -0.0109785 245.131 0.125807 244.453 0.402869C243.776 0.67993 243.161 1.09158 242.646 1.61321C242.624 1.6344 242.603 1.65574 242.582 1.67724C242.075 2.18064 241.674 2.78272 241.405 3.44685C241.135 4.11099 241.003 4.82331 241.016 5.5405C241.016 5.58985 241.017 5.6392 241.018 5.68854C241.019 6.40344 241.163 7.11076 241.443 7.76784C241.723 8.42493 242.132 9.01818 242.646 9.51179C243.166 10.0313 243.784 10.4404 244.464 10.7147C245.145 10.9889 245.873 11.1228 246.605 11.1083C246.633 11.1085 246.661 11.1085 246.689 11.1083C247.414 11.1171 248.135 10.9805 248.808 10.7064C249.481 10.4323 250.093 10.0262 250.608 9.51179C251.13 9.00425 251.543 8.39408 251.821 7.71921ZM300.004 26.5814H313.076C312.994 25.8939 312.828 25.2193 312.581 24.5727C312.246 23.6864 311.713 22.8896 311.023 22.2439C310.206 21.4931 309.193 20.9927 308.103 20.8015C307.592 20.7058 307.073 20.6589 306.553 20.6614C305.922 20.6572 305.292 20.7236 304.675 20.8595C303.792 21.0596 303.027 21.4143 302.379 21.9238C302.273 22.0072 302.17 22.0946 302.071 22.1859C301.417 22.7963 300.906 23.5461 300.576 24.3806C300.344 24.9488 300.17 25.579 300.052 26.2713C300.034 26.3744 300.018 26.4778 300.004 26.5814Z" fill="white"/>
</svg>
