<svg width="398" height="31" viewBox="0 0 398 31" fill="none" xmlns="http://www.w3.org/2000/svg">
<path fill-rule="evenodd" clip-rule="evenodd" d="M192.891 29.8445L190.917 27.2858C190.25 27.9459 189.488 28.5015 188.655 28.9338C188.181 29.1819 187.691 29.3979 187.188 29.5805C185.677 30.1342 184.082 30.4111 182.403 30.4111C181.388 30.4166 180.376 30.3142 179.383 30.1058C178.567 29.9322 177.772 29.6711 177.012 29.3271C175.46 28.6351 174.14 27.509 173.213 26.0845C172.456 24.9182 171.99 23.5862 171.857 22.2018C171.817 21.8147 171.797 21.4257 171.797 21.0365C171.789 20.1017 171.908 19.1702 172.149 18.2671C172.458 17.1265 173.014 16.068 173.779 15.1671C174.64 14.1668 175.692 13.3474 176.872 12.7565C177.654 12.3598 178.473 12.0388 179.316 11.7978L172.012 2.09113V1.83646H192.891V7.28579H183.476L190.528 17.0511L192.051 13.7311H198.399L194.239 22.2471L199.765 29.8445H192.891ZM6.816 29.8445H0V1.83646H19.0427V7.77379H6.816V13.1645H18.692V19.0831H6.816V29.8445ZM60.4293 21.2511V9.68846H66.992V29.8445H60.6253V26.8365C60.2518 27.6038 59.7105 28.2774 59.0413 28.8071C58.8025 28.9992 58.5518 29.176 58.2907 29.3365C57.3188 29.9325 56.2111 30.2711 55.072 30.3205C54.9246 30.3285 54.777 30.3325 54.6293 30.3325C53.9145 30.3388 53.2014 30.2595 52.5053 30.0965C51.2486 29.8153 50.1204 29.1256 49.2973 28.1351C48.1916 26.7973 47.5907 25.0333 47.4947 22.8431C47.4852 22.6317 47.4803 22.4201 47.48 22.2085V9.68846H54.0427V21.2125C54.0377 21.6585 54.0842 22.1037 54.1813 22.5391C54.5262 23.9978 55.5151 24.7271 57.148 24.7271C58.1898 24.7271 58.9973 24.4245 59.5707 23.8191C60.0871 23.2725 60.3707 22.5218 60.4213 21.5671C60.4268 21.4619 60.4294 21.3565 60.4293 21.2511ZM78.34 18.3605V29.8445H71.7773V9.68846H78.144V12.6765C78.5031 11.9398 79.0219 11.2926 79.6627 10.7818C79.9328 10.5627 80.2184 10.3635 80.5173 10.1858C81.562 9.56595 82.7496 9.22781 83.964 9.20446C84.0489 9.20183 84.1338 9.2005 84.2187 9.20046C86.5627 9.20046 88.3529 9.93601 89.5893 11.4071C90.3135 12.2828 90.8308 13.3105 91.1027 14.4138C91.3311 15.292 91.4453 16.2622 91.4453 17.3245V29.8445H84.9027V18.3991C84.9049 18.052 84.8737 17.7055 84.8093 17.3645C84.7284 16.9511 84.5951 16.5827 84.4093 16.2591C84.3225 16.108 84.2226 15.9648 84.1107 15.8311C83.7815 15.4423 83.3414 15.1632 82.8493 15.0311C82.5729 14.9511 82.268 14.9036 81.9347 14.8885C81.8561 14.8849 81.7774 14.8831 81.6987 14.8831C81.346 14.8803 80.9944 14.9215 80.652 15.0058C80.1208 15.1345 79.6352 15.4067 79.248 15.7925C78.8809 16.1651 78.6191 16.6284 78.4893 17.1351C78.4049 17.4453 78.3564 17.7845 78.344 18.1525C78.3414 18.2218 78.3401 18.2911 78.34 18.3605ZM367.383 18.3605V29.8445H360.82V9.68846H367.188V12.6765C367.547 11.94 368.065 11.2927 368.705 10.7818C368.975 10.5627 369.261 10.3635 369.56 10.1858C370.605 9.56595 371.792 9.22781 373.007 9.20446C373.092 9.20183 373.176 9.2005 373.261 9.20046C375.605 9.20046 377.396 9.93601 378.633 11.4071C379.357 12.2829 379.874 13.3106 380.145 14.4138C380.374 15.292 380.488 16.2622 380.488 17.3245V29.8445H373.945V18.3991C373.948 18.052 373.916 17.7055 373.852 17.3645C373.771 16.9511 373.638 16.5827 373.452 16.2591C373.366 16.108 373.266 15.9648 373.155 15.8311C372.825 15.4421 372.385 15.1629 371.892 15.0311C371.616 14.9511 371.311 14.9036 370.977 14.8885C370.899 14.8849 370.821 14.8832 370.743 14.8831C370.39 14.8802 370.038 14.9214 369.695 15.0058C369.163 15.1345 368.678 15.4067 368.291 15.7925C367.924 16.1652 367.663 16.6285 367.533 17.1351C367.449 17.4453 367.4 17.7845 367.387 18.1525C367.384 18.2218 367.383 18.2911 367.383 18.3605ZM111.289 12.6765V0.645792H117.852V29.8445H111.524V26.8365C111.023 27.6762 110.348 28.3987 109.544 28.9551C109.347 29.0945 109.144 29.2253 108.936 29.3471C108.034 29.868 107.029 30.1881 105.992 30.2858C105.682 30.3174 105.37 30.333 105.059 30.3325C103.746 30.3476 102.442 30.1104 101.219 29.6338C99.9358 29.1148 98.7828 28.32 97.8413 27.3058C96.101 25.469 95.0911 23.0599 95.0013 20.5311C94.9871 20.2767 94.98 20.0219 94.98 19.7671C94.9669 18.45 95.176 17.14 95.5987 15.8925C96.0758 14.5245 96.8405 13.2747 97.8413 12.2271C98.7204 11.2798 99.7843 10.5228 100.967 10.0029C102.151 9.48304 103.428 9.21129 104.72 9.20446C104.833 9.20157 104.946 9.20024 105.059 9.20046C105.718 9.19615 106.376 9.26637 107.02 9.40979C107.693 9.56118 108.339 9.81336 108.936 10.1578C109.459 10.4555 109.935 10.8289 110.349 11.2658C110.738 11.6809 111.056 12.1575 111.289 12.6765ZM325.411 12.6765V0.645792H331.972V29.8445H325.644V26.8365C325.144 27.6761 324.469 28.3986 323.665 28.9551C323.468 29.0945 323.265 29.2253 323.056 29.3471C322.154 29.8678 321.15 30.1879 320.113 30.2858C319.803 30.3174 319.492 30.333 319.18 30.3325C317.867 30.3478 316.563 30.1106 315.339 29.6338C314.056 29.1146 312.904 28.3198 311.963 27.3058C310.222 25.469 309.212 23.0599 309.123 20.5311C309.108 20.2767 309.101 20.0219 309.101 19.7671C309.088 18.45 309.297 17.14 309.72 15.8925C310.197 14.5245 310.962 13.2747 311.963 12.2271C312.842 11.2798 313.906 10.5228 315.089 10.0029C316.272 9.48304 317.549 9.21129 318.841 9.20446C318.954 9.20157 319.067 9.20024 319.18 9.20046C319.839 9.19625 320.497 9.26647 321.14 9.40979C321.813 9.56118 322.459 9.81336 323.056 10.1578C323.58 10.4554 324.056 10.8288 324.471 11.2658C324.86 11.6809 325.177 12.1575 325.411 12.6765ZM136.719 23.5551H142.753C142.154 25.317 141.043 26.8601 139.563 27.9871C139.371 28.1372 139.175 28.2813 138.975 28.4191C137.12 29.6947 134.955 30.3325 132.48 30.3325C129.17 30.3325 126.545 29.4338 124.607 27.6365C124.525 27.5601 124.444 27.4823 124.365 27.4031C122.797 25.8346 121.804 23.7832 121.547 21.5805C121.464 20.9661 121.424 20.3469 121.425 19.7271C121.414 18.5074 121.592 17.2933 121.953 16.1285C122.437 14.6087 123.293 13.2341 124.444 12.1298C126.118 10.5088 128.294 9.50618 130.613 9.28713C131.136 9.22855 131.662 9.19962 132.188 9.20046C133.393 9.18973 134.594 9.35045 135.753 9.67779C137.321 10.126 138.752 10.9551 139.921 12.0911C141.914 14.0182 142.911 16.5898 142.911 19.8058V21.7591H127.871C127.982 22.3566 128.184 22.9335 128.469 23.4698C129.104 24.6227 130.124 25.3005 131.529 25.5031C131.844 25.5471 132.162 25.5685 132.48 25.5671C132.93 25.5698 133.379 25.5264 133.82 25.4378C134.239 25.3527 134.645 25.2157 135.029 25.0298C135.407 24.8494 135.757 24.6154 136.068 24.3351C136.32 24.1061 136.538 23.8436 136.719 23.5551ZM269.805 23.5551H275.84C275.241 25.3172 274.129 26.8603 272.648 27.9871C272.457 28.1372 272.26 28.2813 272.06 28.4191C270.205 29.6947 268.04 30.3325 265.567 30.3325C262.256 30.3325 259.631 29.4338 257.693 27.6365C257.611 27.5601 257.53 27.4823 257.451 27.4031C255.883 25.8344 254.891 23.783 254.633 21.5805C254.551 20.9661 254.511 20.3469 254.512 19.7271C254.5 18.5075 254.677 17.2934 255.039 16.1285C255.522 14.6087 256.379 13.2341 257.529 12.1298C259.203 10.5088 261.379 9.50618 263.699 9.28713C264.222 9.22855 264.747 9.19962 265.273 9.20046C266.479 9.1896 267.68 9.35032 268.84 9.67779C270.407 10.126 271.839 10.9551 273.008 12.0911C275 14.0182 275.996 16.5898 275.996 19.8058V21.7591H260.957C261.068 22.3565 261.269 22.9334 261.555 23.4698C262.19 24.6227 263.21 25.3005 264.615 25.5031C264.93 25.5472 265.248 25.5686 265.567 25.5671C266.017 25.5698 266.466 25.5264 266.907 25.4378C267.325 25.3526 267.731 25.2156 268.115 25.0298C268.493 24.8495 268.843 24.6155 269.155 24.3351C269.406 24.1061 269.625 23.8436 269.805 23.5551ZM350.84 23.5551H356.875C356.275 25.3172 355.164 26.8603 353.683 27.9871C353.492 28.1372 353.296 28.2812 353.096 28.4191C351.24 29.6947 349.075 30.3325 346.601 30.3325C343.291 30.3325 340.667 29.4338 338.728 27.6365C338.646 27.5601 338.566 27.4823 338.487 27.4031C336.919 25.8346 335.926 23.7832 335.668 21.5805C335.586 20.9661 335.545 20.3469 335.547 19.7271C335.535 18.5074 335.713 17.2933 336.075 16.1285C336.558 14.6088 337.414 13.2342 338.564 12.1298C340.238 10.5085 342.415 9.50589 344.735 9.28713C345.257 9.2286 345.782 9.19967 346.308 9.20046C347.513 9.1896 348.714 9.35032 349.875 9.67779C351.442 10.126 352.874 10.9551 354.043 12.0911C356.035 14.0182 357.031 16.5898 357.031 19.8058V21.7591H341.992C342.103 22.3566 342.305 22.9335 342.591 23.4698C343.225 24.6227 344.245 25.3005 345.651 25.5031C345.966 25.5471 346.283 25.5685 346.601 25.5671C347.051 25.5698 347.5 25.5264 347.941 25.4378C348.36 25.3527 348.766 25.2157 349.151 25.0298C349.529 24.8494 349.878 24.6154 350.189 24.3351C350.441 24.1061 350.66 23.8436 350.84 23.5551ZM278.496 23.5551H283.907C283.927 23.8214 283.982 24.084 284.069 24.3365C284.196 24.7048 284.416 25.0344 284.707 25.2938C284.96 25.5142 285.258 25.6766 285.58 25.7698C285.805 25.8382 286.052 25.8831 286.32 25.9045C286.446 25.9143 286.572 25.9192 286.699 25.9191C286.941 25.9207 287.183 25.8984 287.421 25.8525C287.711 25.7947 287.969 25.6991 288.196 25.5658C288.284 25.5138 288.368 25.4554 288.447 25.3911C288.634 25.2444 288.79 25.0617 288.905 24.8538C289.038 24.6049 289.105 24.3265 289.101 24.0445C289.111 23.7836 289.052 23.5248 288.931 23.2934C288.81 23.0621 288.631 22.866 288.412 22.7245C288.162 22.5547 287.845 22.4213 287.461 22.3245L284.707 21.6031C282.754 21.1213 281.332 20.4018 280.44 19.4445C279.885 18.8408 279.495 18.1049 279.305 17.3071C279.18 16.8093 279.112 16.2667 279.103 15.6791C279.102 15.6289 279.101 15.5787 279.101 15.5285C279.092 14.7674 279.224 14.0111 279.489 13.2978C279.857 12.3561 280.476 11.5334 281.279 10.9191C282.381 10.0578 283.692 9.50388 285.077 9.31379C285.601 9.23658 286.13 9.1987 286.66 9.20046C288.848 9.20046 290.583 9.77335 291.865 10.9191C292.96 11.8993 293.693 13.2196 293.945 14.6671C293.998 14.9393 294.037 15.2139 294.063 15.4898H288.672C288.662 15.2312 288.608 14.9761 288.513 14.7351C288.429 14.5256 288.311 14.3315 288.164 14.1605C287.959 13.9239 287.685 13.7575 287.38 13.6845C287.216 13.6418 287.035 13.6187 286.839 13.6151C286.818 13.6145 286.798 13.614 286.777 13.6138C286.604 13.6129 286.432 13.6272 286.261 13.6565C285.931 13.7151 285.66 13.8347 285.449 14.0151C285.196 14.2306 285.035 14.5342 284.997 14.8645C284.986 14.9484 284.98 15.0331 284.98 15.1178C284.973 15.4069 285.051 15.6918 285.205 15.9365C285.45 16.3133 285.896 16.5742 286.543 16.7191L290.097 17.6765C293.352 18.5227 294.98 20.4302 294.98 23.3991C294.993 24.7002 294.586 25.9707 293.819 27.0218C293.045 28.0955 292 28.9448 290.791 29.4831C289.53 30.0531 288.161 30.3428 286.777 30.3325C286.106 30.3353 285.436 30.2867 284.772 30.1871C284.092 30.0857 283.425 29.9118 282.783 29.6685C281.625 29.2213 280.618 28.4525 279.883 27.4525C279.388 26.7865 279.021 26.0341 278.801 25.2338C278.648 24.6849 278.545 24.1229 278.496 23.5551ZM226.093 22.5991H219.747V29.8445H212.929V1.83646H226.093C227.426 1.82586 228.75 2.0651 229.995 2.54179C230.472 2.72727 230.934 2.9488 231.377 3.20446C232.96 4.11557 234.196 5.36535 235.088 6.95379C235.93 8.46371 236.387 10.1574 236.42 11.8858C236.424 12.0062 236.425 12.1267 236.425 12.2471C236.441 13.6287 236.19 15.0004 235.687 16.2871C235.18 17.5369 234.424 18.6709 233.467 19.6205C231.494 21.6062 229.036 22.5991 226.093 22.5991ZM397.383 24.5711V29.7671C397.271 29.8117 397.157 29.8504 397.041 29.8831C396.701 29.9809 396.248 30.0725 395.684 30.1578C395.263 30.2214 394.839 30.2685 394.415 30.2991C394.109 30.3211 393.803 30.3322 393.496 30.3325C392.817 30.3378 392.14 30.2757 391.473 30.1471C390.104 29.8707 389.017 29.288 388.213 28.3991C387.558 27.6611 387.082 26.7812 386.824 25.8285C386.637 25.176 386.524 24.4596 386.483 23.6791C386.471 23.4558 386.465 23.2321 386.465 23.0085V15.0791H382.969V9.68846H386.465V3.65379H393.008V9.68846H397.579V15.0791H393.008V22.5991C393.004 22.9043 393.042 23.2085 393.121 23.5031C393.384 24.4231 394.108 24.8831 395.293 24.8831C396.001 24.8825 396.705 24.7773 397.383 24.5711ZM159.648 9.27779V15.8018H158.34C156.523 15.8018 155.224 16.2125 154.441 17.0338C154.439 17.0365 154.436 17.0391 154.433 17.0418C153.702 17.8169 153.313 19.0978 153.267 20.8845C153.263 21.0067 153.262 21.1289 153.261 21.2511V29.8445H146.699V9.68846H153.067V13.4778C153.821 10.6778 155.807 9.27779 159.024 9.27779H159.648ZM252.753 9.27779V15.8018H251.445C249.628 15.8018 248.329 16.2125 247.547 17.0338C247.544 17.0365 247.541 17.0391 247.539 17.0418C246.807 17.8169 246.418 19.0978 246.372 20.8845C246.369 21.0067 246.367 21.1289 246.367 21.2511V29.8445H239.805V9.68846H246.172V13.4778C246.928 10.6778 248.913 9.27779 252.129 9.27779H252.753ZM31.4827 9.25512C30.2866 9.35371 29.1122 9.63148 27.9987 10.0791C26.5596 10.6649 25.3778 11.4525 24.4533 12.4418C23.5355 13.4209 22.81 14.5639 22.3147 15.8111C21.8133 17.068 21.5627 18.3867 21.5627 19.7671C21.5627 21.1467 21.8133 22.4649 22.3147 23.7218C22.81 24.969 23.5355 26.112 24.4533 27.0911C24.8958 27.5629 25.3885 27.985 25.9227 28.3498C26.573 28.7913 27.269 29.1614 27.9987 29.4538C28.5555 29.68 29.1292 29.8619 29.7147 29.9978C30.7114 30.2253 31.731 30.3376 32.7533 30.3325C33.1779 30.3329 33.6023 30.3147 34.0253 30.2778C35.2214 30.1792 36.3958 29.9014 37.5093 29.4538C38.9484 28.868 40.1302 28.0805 41.0547 27.0911C41.9725 26.112 42.698 24.969 43.1933 23.7218C43.6947 22.4649 43.9453 21.1467 43.9453 19.7671C43.9453 18.3867 43.6947 17.068 43.1933 15.8111C42.698 14.5639 41.9725 13.4209 41.0547 12.4418C40.6122 11.97 40.1195 11.5479 39.5853 11.1831C38.935 10.7416 38.239 10.3715 37.5093 10.0791C36.9525 9.85292 36.3788 9.67102 35.7933 9.53513C34.7962 9.30749 33.7761 9.1952 32.7533 9.20046C32.3292 9.20002 31.9052 9.21826 31.4827 9.25512ZM305.176 29.8445H298.613V9.68846H305.176V29.8445ZM219.747 16.7591H225.137C226.426 16.7591 227.494 16.3422 228.34 15.5085C229.039 14.8196 229.474 13.9077 229.571 12.9311C229.597 12.7041 229.61 12.4757 229.609 12.2471C229.615 11.7035 229.533 11.1625 229.368 10.6445C229.161 10.0123 228.809 9.43733 228.34 8.96579C227.948 8.56433 227.48 8.24417 226.964 8.02361C226.448 7.80306 225.893 7.68645 225.332 7.68046C225.267 7.67801 225.202 7.67667 225.137 7.67646H219.747V16.7591ZM106.367 24.8831C106.966 24.8897 107.562 24.7936 108.129 24.5991C108.803 24.3602 109.41 23.966 109.903 23.4485C110.668 22.6532 111.142 21.6221 111.247 20.5231C111.275 20.2721 111.289 20.0197 111.289 19.7671C111.289 18.2693 110.827 17.0418 109.903 16.0845C109.054 15.1997 107.891 14.6863 106.665 14.6565C106.566 14.6518 106.466 14.6496 106.367 14.6498C105.757 14.6431 105.152 14.7479 104.58 14.9591C103.936 15.2059 103.358 15.5979 102.891 16.1045C102.107 16.9394 101.634 18.0183 101.551 19.1605C101.533 19.3622 101.524 19.5646 101.524 19.7671C101.518 20.3726 101.606 20.9753 101.785 21.5538C102.007 22.2542 102.385 22.8951 102.891 23.4285C103.31 23.8811 103.817 24.2434 104.381 24.4931C104.945 24.7428 105.554 24.8746 106.171 24.8805C106.236 24.8824 106.301 24.8833 106.367 24.8831ZM320.488 24.8831C321.087 24.8897 321.684 24.7936 322.251 24.5991C322.924 24.3602 323.532 23.966 324.024 23.4485C324.79 22.6532 325.263 21.6221 325.368 20.5231C325.397 20.2721 325.411 20.0197 325.411 19.7671C325.411 18.2693 324.948 17.0418 324.024 16.0845C323.176 15.1997 322.012 14.6863 320.787 14.6565C320.687 14.6518 320.588 14.6496 320.488 14.6498C319.879 14.6431 319.273 14.7479 318.701 14.9591C318.058 15.2059 317.48 15.5979 317.012 16.1045C316.228 16.9394 315.755 18.0183 315.672 19.1605C315.653 19.3621 315.644 19.5646 315.644 19.7671C315.639 20.3727 315.727 20.9754 315.907 21.5538C316.129 22.2542 316.507 22.8951 317.012 23.4285C317.431 23.8811 317.938 24.2434 318.502 24.4931C319.066 24.7428 319.675 24.8746 320.292 24.8805C320.357 24.8824 320.423 24.8833 320.488 24.8831ZM29.2093 23.3991C29.8545 24.1579 30.7534 24.6564 31.7387 24.8018C32.074 24.8574 32.4134 24.8846 32.7533 24.8831C33.2581 24.8882 33.7613 24.8254 34.2493 24.6965C35.0497 24.4852 35.7654 24.0322 36.2987 23.3991C37.023 22.5423 37.4554 21.477 37.5333 20.3578C37.5502 20.1614 37.5587 19.9643 37.5587 19.7671C37.5643 19.1334 37.4707 18.5026 37.2813 17.8978C37.074 17.2505 36.7399 16.6508 36.2987 16.1338C35.6535 15.375 34.7546 14.8765 33.7693 14.7311C33.4336 14.6755 33.0937 14.6483 32.7533 14.6498C32.249 14.6448 31.7463 14.7076 31.2587 14.8365C30.4583 15.0477 29.7426 15.5007 29.2093 16.1338C28.485 16.9906 28.0526 18.0559 27.9747 19.1751C27.9577 19.372 27.9493 19.5695 27.9493 19.7671C27.9438 20.4004 28.0374 21.0307 28.2267 21.6351C28.434 22.2825 28.7681 22.8821 29.2093 23.3991ZM187.676 22.9311L182.247 15.7231C181.386 16.0276 180.597 16.5034 179.925 17.1218C179.741 17.2933 179.567 17.4754 179.404 17.6671C178.781 18.4025 178.401 19.3125 178.315 20.2725C178.292 20.4873 178.281 20.7031 178.281 20.9191C178.277 21.3776 178.33 21.8348 178.437 22.2805C178.605 22.9911 178.971 23.6397 179.492 24.1511C179.988 24.6281 180.601 24.9676 181.268 25.1365C181.679 25.2467 182.128 25.3107 182.616 25.3285C182.708 25.3314 182.799 25.3327 182.891 25.3325C183.958 25.3325 184.863 25.1471 185.605 24.7765C185.995 24.5784 186.356 24.3296 186.68 24.0365C186.96 23.7867 187.232 23.4965 187.495 23.1658C187.556 23.0886 187.617 23.0104 187.676 22.9311ZM305.393 5.14446C305.578 4.68284 305.67 4.18951 305.664 3.69246C305.664 3.67201 305.664 3.65157 305.664 3.63113C305.667 3.15235 305.572 2.678 305.386 2.23697C305.2 1.79594 304.925 1.39746 304.58 1.06579C304.228 0.715206 303.808 0.440645 303.345 0.259125C302.882 0.0831162 302.39 -0.00461751 301.895 0.000458612C301.891 0.000453277 301.887 0.000453277 301.883 0.000458612C301.392 -0.00731659 300.906 0.0838439 300.451 0.268491C299.997 0.453139 299.585 0.727483 299.239 1.07513C299.224 1.08925 299.21 1.10347 299.196 1.11779C298.855 1.45318 298.586 1.85438 298.405 2.29699C298.225 2.73961 298.136 3.21439 298.144 3.69246C298.144 3.72535 298.145 3.75824 298.145 3.79113C298.146 4.26766 298.243 4.73911 298.431 5.17703C298.619 5.61496 298.894 6.01027 299.239 6.33913C299.588 6.68538 300.002 6.958 300.459 7.14078C300.915 7.32356 301.403 7.41277 301.895 7.40312C301.913 7.40323 301.932 7.40323 301.951 7.40312C302.438 7.40898 302.921 7.31792 303.372 7.13525C303.824 6.95259 304.234 6.68196 304.58 6.33913C304.93 6.00087 305.207 5.59423 305.393 5.14446ZM127.871 17.7151H136.64C136.585 17.257 136.474 16.8074 136.309 16.3765C136.085 15.7858 135.727 15.2548 135.264 14.8245C134.716 14.3238 134.036 13.9903 133.304 13.8631C132.961 13.7995 132.614 13.7682 132.265 13.7698C131.842 13.7669 131.419 13.8112 131.005 13.9018C130.413 14.0351 129.9 14.2716 129.465 14.6111C129.394 14.6667 129.324 14.7249 129.257 14.7858C128.819 15.1927 128.477 15.6924 128.256 16.2485C128.1 16.6271 127.983 17.0471 127.904 17.5085C127.892 17.5772 127.881 17.6461 127.871 17.7151ZM260.957 17.7151H269.727C269.672 17.257 269.561 16.8074 269.396 16.3765C269.171 15.7857 268.813 15.2546 268.349 14.8245C267.801 14.3241 267.122 13.9906 266.391 13.8631C266.048 13.7995 265.7 13.7682 265.352 13.7698C264.928 13.7669 264.506 13.8112 264.092 13.9018C263.499 14.0351 262.985 14.2716 262.551 14.6111C262.48 14.6667 262.411 14.725 262.344 14.7858C261.905 15.1927 261.563 15.6924 261.343 16.2485C261.186 16.6271 261.068 17.0471 260.989 17.5085C260.978 17.5772 260.967 17.6461 260.957 17.7151ZM341.992 17.7151H350.761C350.706 17.257 350.595 16.8074 350.431 16.3765C350.206 15.7858 349.848 15.2548 349.385 14.8245C348.837 14.3238 348.157 13.9903 347.425 13.8631C347.083 13.7995 346.735 13.7682 346.387 13.7698C345.963 13.7669 345.54 13.8112 345.127 13.9018C344.534 14.0351 344.02 14.2716 343.585 14.6111C343.514 14.6667 343.445 14.725 343.379 14.7858C342.94 15.1927 342.598 15.6924 342.377 16.2485C342.221 16.6271 342.104 17.0471 342.025 17.5085C342.013 17.5772 342.002 17.6461 341.992 17.7151Z" fill="#56CE62"/>
</svg>
