<svg width="520" height="31" viewBox="0 0 520 31" fill="none" xmlns="http://www.w3.org/2000/svg">
<path fill-rule="evenodd" clip-rule="evenodd" d="M228.184 18.2028V29.6881H221.621V9.53076H227.988V12.5201C228.375 11.7234 228.941 11.0271 229.641 10.4854C229.85 10.3215 230.068 10.1693 230.293 10.0294C231.223 9.45412 232.283 9.12087 233.375 9.06009C233.552 9.04843 233.729 9.04265 233.907 9.04276C234.712 9.03386 235.515 9.13571 236.293 9.34543C237.116 9.56444 237.88 9.96261 238.531 10.5114C239.182 11.0603 239.704 11.7462 240.059 12.5201C240.657 11.5376 241.492 10.7204 242.487 10.1428C242.575 10.0904 242.664 10.0398 242.753 9.99076C243.912 9.35876 245.254 9.04276 246.777 9.04276C247.496 9.03684 248.212 9.11651 248.912 9.28009C250.172 9.55923 251.303 10.2486 252.129 11.2401C253.235 12.5779 253.836 14.3419 253.932 16.5321C253.941 16.744 253.946 16.956 253.945 17.1681V29.6881H247.383V18.2428C247.388 17.7967 247.342 17.3516 247.245 16.9161C246.963 15.7117 246.244 15.0041 245.091 14.7934C244.829 14.7474 244.563 14.7251 244.297 14.7268C243.954 14.7239 243.612 14.7647 243.279 14.8481C242.77 14.9737 242.305 15.2355 241.933 15.6054C241.535 16.0089 241.262 16.52 241.149 17.0761C241.084 17.3824 241.052 17.6949 241.055 18.0081V29.6881H234.492V18.2428C234.492 16.2188 233.73 15.0685 232.207 14.7921C231.949 14.747 231.687 14.7251 231.425 14.7268C231.096 14.7243 230.768 14.7601 230.447 14.8334C229.92 14.9579 229.479 15.1917 229.123 15.5348C229.092 15.5643 229.062 15.5945 229.033 15.6254C228.723 15.9596 228.496 16.362 228.371 16.8001C228.279 17.1014 228.221 17.4339 228.197 17.7974C228.188 17.9324 228.184 18.0675 228.184 18.2028ZM18.4373 12.5201V1.68009H25.2533V29.6881H18.4373V18.7694H6.816V29.6881H0V1.68009H6.816V12.5201H18.4373ZM185.508 12.5201V1.68009H192.324V29.6881H185.508V18.7694H173.887V29.6881H167.071V1.68009H173.887V12.5201H185.508ZM335.703 29.6881L328.984 22.2854H326.192V29.6881H319.375V1.68009H333.028C335.97 1.68009 338.424 2.66943 340.391 4.64809C341.341 5.59378 342.092 6.72079 342.598 7.96221C343.105 9.20362 343.356 10.5341 343.339 11.8748C343.339 11.9205 343.34 11.9663 343.34 12.0121C343.35 13.259 343.144 14.4983 342.731 15.6748C342.469 16.4027 342.123 17.0973 341.699 17.7441C340.629 19.3975 339.083 20.6879 337.265 21.4454L344.863 29.6881H335.703ZM210.273 21.0934V9.53076H216.836V29.6881H210.469V26.6801C210.096 27.447 209.554 28.12 208.885 28.6494C208.647 28.842 208.396 29.0192 208.135 29.1801C207.163 29.7761 206.055 30.1148 204.916 30.1641C204.768 30.1721 204.62 30.1761 204.472 30.1761C203.757 30.182 203.044 30.1023 202.348 29.9388C201.091 29.658 199.963 28.9687 199.14 27.9788C198.034 26.641 197.433 24.877 197.337 22.6868C197.328 22.4749 197.324 22.2628 197.324 22.0508V9.53076H203.887V21.0548C203.882 21.5008 203.928 21.946 204.025 22.3814C204.369 23.841 205.358 24.5708 206.992 24.5708C208.034 24.5708 208.841 24.2681 209.415 23.6628C209.931 23.1161 210.215 22.3654 210.265 21.4108C210.271 21.3051 210.273 21.1993 210.273 21.0934ZM428.613 21.0934V9.53076H435.176V29.6881H428.808V26.6801C428.435 27.4469 427.894 28.1199 427.225 28.6494C426.987 28.842 426.736 29.0192 426.475 29.1801C425.503 29.7761 424.395 30.1148 423.256 30.1641C423.108 30.1721 422.96 30.1761 422.812 30.1761C422.097 30.182 421.384 30.1023 420.688 29.9388C419.431 29.658 418.303 28.9687 417.48 27.9788C416.374 26.641 415.773 24.877 415.677 22.6868C415.668 22.4749 415.664 22.2628 415.664 22.0508V9.53076H422.227V21.0548C422.222 21.5008 422.268 21.946 422.365 22.3814C422.709 23.841 423.698 24.5708 425.332 24.5708C426.374 24.5708 427.181 24.2681 427.753 23.6628C428.271 23.1161 428.555 22.3654 428.605 21.4108C428.611 21.3051 428.613 21.1993 428.613 21.0934ZM291.68 18.2028V29.6881H285.117V9.53076H291.484V12.5201C291.843 11.7835 292.362 11.1362 293.003 10.6254C293.273 10.4064 293.558 10.2072 293.857 10.0294C294.902 9.40911 296.089 9.07052 297.304 9.04676C297.389 9.04414 297.474 9.0428 297.559 9.04276C299.903 9.04276 301.693 9.77876 302.929 11.2508C303.653 12.126 304.171 13.1533 304.443 14.2561C304.671 15.1343 304.785 16.105 304.785 17.1681V29.6881H298.243V18.2428C298.245 17.8957 298.214 17.5492 298.149 17.2081C298.068 16.7948 297.935 16.4259 297.749 16.1014C297.663 15.9503 297.563 15.8071 297.451 15.6734C297.121 15.2851 296.681 15.0065 296.189 14.8748C295.913 14.7948 295.608 14.7472 295.275 14.7321C295.196 14.7285 295.117 14.7268 295.039 14.7268C294.686 14.724 294.334 14.7652 293.992 14.8494C293.461 14.9778 292.975 15.2494 292.588 15.6348C292.221 16.0078 291.959 16.4715 291.829 16.9788C291.745 17.2881 291.696 17.6272 291.684 17.9961C291.681 18.065 291.68 18.1339 291.68 18.2028ZM96.328 12.5201V0.488094H102.891V29.6881H96.5627V26.6801C96.0623 27.5197 95.3875 28.2422 94.584 28.7988C94.3866 28.9377 94.1833 29.068 93.9747 29.1894C93.0722 29.7103 92.0681 30.0304 91.0307 30.1281C90.7206 30.1602 90.4091 30.1762 90.0973 30.1761C88.7844 30.1912 87.4808 29.954 86.2573 29.4774C84.9749 28.9578 83.8223 28.1626 82.8813 27.1481C81.1405 25.3115 80.1301 22.9024 80.04 20.3734C80.0262 20.119 80.0195 19.8642 80.02 19.6094C80.0066 18.2928 80.2153 16.9833 80.6373 15.7361C81.1149 14.368 81.8801 13.1182 82.8813 12.0708C83.7604 11.1235 84.8243 10.3665 86.0074 9.84658C87.1905 9.32668 88.4677 9.05492 89.76 9.04809C89.8724 9.04477 89.9849 9.04299 90.0973 9.04276C90.757 9.03889 91.4149 9.10956 92.0587 9.25343C92.7313 9.4044 93.3773 9.65613 93.9747 10.0001C94.4978 10.2978 94.974 10.6712 95.388 11.1081C95.7772 11.5236 96.0949 12.0007 96.328 12.5201ZM476.601 17.2854H470.235C469.99 16.6506 469.606 16.0787 469.111 15.6121C468.539 15.0876 467.825 14.7477 466.968 14.5921C466.583 14.5238 466.193 14.4904 465.801 14.4921C465.308 14.4873 464.817 14.5505 464.341 14.6801C463.571 14.8907 462.884 15.3334 462.373 15.9481C461.769 16.6754 461.376 17.5551 461.239 18.4908C461.18 18.8607 461.151 19.2348 461.152 19.6094C461.152 21.0805 461.559 22.3014 462.373 23.2721C463.187 24.2419 464.329 24.7268 465.801 24.7268C466.385 24.7339 466.967 24.6553 467.528 24.4934C468.796 24.1103 469.698 23.257 470.235 21.9334H476.601C476.174 24.0949 475.03 26.0491 473.355 27.4801C473.238 27.5832 473.119 27.6841 472.999 27.7828C471.395 29.0885 469.441 29.8918 467.383 30.0921C466.87 30.1489 466.355 30.1769 465.84 30.1761C462.468 30.1761 459.762 29.1863 457.724 27.2068C455.687 25.2281 454.668 22.6957 454.668 19.6094C454.655 18.3416 454.853 17.0804 455.253 15.8774C455.757 14.4104 456.604 13.085 457.724 12.0121C459.217 10.5746 461.109 9.62143 463.153 9.27743C464.04 9.11708 464.939 9.03853 465.84 9.04276C467.048 9.03283 468.251 9.19857 469.411 9.53476C470.722 9.92153 471.942 10.5681 472.999 11.4361C473.983 12.2272 474.818 13.1876 475.465 14.2721C476.011 15.2053 476.395 16.2241 476.601 17.2854ZM44.5307 23.3988H50.5667C49.9674 25.1608 48.856 26.704 47.3747 27.8308C47.1832 27.9804 46.9871 28.124 46.7867 28.2614C44.9316 29.5379 42.7671 30.1761 40.2933 30.1761C36.9822 30.1761 34.3578 29.277 32.42 27.4788C32.3377 27.4029 32.2568 27.3255 32.1773 27.2468C30.6099 25.6781 29.6173 23.6267 29.36 21.4241C29.2777 20.8098 29.2372 20.1906 29.2387 19.5708C29.2264 18.3511 29.4041 17.1371 29.7653 15.9721C30.249 14.4523 31.1052 13.0777 32.256 11.9734C33.9295 10.3519 36.1055 9.34885 38.4253 9.12943C38.9482 9.07086 39.4739 9.04192 40 9.04276C41.2055 9.03191 42.4064 9.19263 43.5667 9.52009C45.1339 9.9683 46.5658 10.7974 47.7347 11.9334C49.7267 13.8605 50.7227 16.4321 50.7227 19.6481V21.6014H35.684C35.7945 22.1988 35.996 22.7757 36.2813 23.3121C36.9169 24.465 37.9369 25.1428 39.3413 25.3454C39.6567 25.3899 39.9748 25.4118 40.2933 25.4108C40.7433 25.413 41.1923 25.3692 41.6333 25.2801C42.0514 25.1954 42.4572 25.0587 42.8413 24.8734C43.2197 24.6927 43.57 24.4583 43.8813 24.1774C44.1323 23.9487 44.3507 23.6867 44.5307 23.3988ZM362.207 23.3988H368.243C367.643 25.1608 366.532 26.704 365.051 27.8308C364.859 27.9804 364.663 28.124 364.463 28.2614C362.608 29.5379 360.443 30.1761 357.969 30.1761C354.658 30.1761 352.034 29.277 350.096 27.4788C350.014 27.4029 349.933 27.3255 349.853 27.2468C348.286 25.6781 347.293 23.6267 347.036 21.4241C346.954 20.8098 346.913 20.1906 346.915 19.5708C346.902 18.3511 347.08 17.1371 347.441 15.9721C347.925 14.4523 348.781 13.0777 349.932 11.9734C351.606 10.3519 353.781 9.34885 356.101 9.12943C356.624 9.07086 357.15 9.04192 357.676 9.04276C358.881 9.03203 360.082 9.19275 361.241 9.52009C362.809 9.9681 364.241 10.7972 365.411 11.9334C367.403 13.8605 368.399 16.4321 368.399 19.6481V21.6014H353.36C353.471 22.1988 353.672 22.7757 353.957 23.3121C354.592 24.465 355.612 25.1428 357.017 25.3454C357.333 25.3899 357.651 25.4118 357.969 25.4108C358.419 25.413 358.868 25.3692 359.309 25.2801C359.727 25.1954 360.133 25.0587 360.517 24.8734C360.896 24.6927 361.246 24.4583 361.557 24.1774C361.808 23.9487 362.027 23.6867 362.207 23.3988ZM494.356 23.3988H500.391C499.791 25.1608 498.68 26.704 497.199 27.8308C497.007 27.9804 496.811 28.124 496.611 28.2614C494.756 29.5379 492.591 30.1761 490.117 30.1761C486.806 30.1761 484.182 29.277 482.244 27.4788C482.162 27.4029 482.081 27.3255 482.001 27.2468C480.434 25.6781 479.441 23.6267 479.184 21.4241C479.102 20.8098 479.061 20.1906 479.063 19.5708C479.05 18.3511 479.228 17.1371 479.589 15.9721C480.073 14.4523 480.929 13.0777 482.08 11.9734C483.754 10.3519 485.93 9.34885 488.249 9.12943C488.772 9.07086 489.298 9.04192 489.824 9.04276C491.03 9.03191 492.23 9.19263 493.391 9.52009C494.958 9.9683 496.39 10.7974 497.559 11.9334C499.551 13.8605 500.547 16.4321 500.547 19.6481V21.6014H485.508C485.619 22.1988 485.82 22.7757 486.105 23.3121C486.741 24.465 487.761 25.1428 489.165 25.3454C489.481 25.3899 489.799 25.4118 490.117 25.4108C490.567 25.413 491.016 25.3692 491.457 25.2801C491.876 25.1955 492.282 25.0589 492.667 24.8734C493.045 24.6926 493.394 24.4582 493.705 24.1774C493.957 23.9488 494.176 23.6868 494.356 23.3988ZM370.899 23.3988H376.308C376.329 23.6647 376.385 23.9268 376.472 24.1788C376.599 24.5476 376.818 24.8777 377.109 25.1374C377.362 25.3578 377.66 25.5203 377.983 25.6134C378.207 25.681 378.453 25.7254 378.721 25.7468C378.848 25.7567 378.975 25.7616 379.101 25.7614C379.344 25.763 379.586 25.7407 379.824 25.6948C380.113 25.637 380.371 25.5414 380.597 25.4081C380.686 25.3566 380.77 25.2986 380.849 25.2348C381.037 25.0876 381.193 24.9044 381.308 24.6961C381.441 24.4472 381.508 24.1688 381.504 23.8868C381.513 23.6261 381.454 23.3676 381.333 23.1365C381.213 22.9054 381.034 22.7095 380.815 22.5681C380.565 22.3974 380.248 22.2641 379.863 22.1681L377.109 21.4454C375.156 20.9636 373.734 20.2441 372.841 19.2868C372.287 18.683 371.897 17.9471 371.708 17.1494C371.583 16.6525 371.515 16.1099 371.505 15.5214C371.505 15.4712 371.504 15.421 371.504 15.3708C371.495 14.6101 371.627 13.8543 371.892 13.1414C372.259 12.1993 372.878 11.376 373.681 10.7614C374.783 9.90079 376.094 9.34736 377.479 9.15743C378.003 9.0797 378.533 9.04138 379.063 9.04276C381.25 9.04276 382.985 9.61565 384.268 10.7614C385.363 11.7421 386.095 13.0629 386.347 14.5108C386.399 14.7825 386.439 15.0566 386.465 15.3321H381.075C381.064 15.0739 381.01 14.8193 380.916 14.5788C380.832 14.3693 380.714 14.1751 380.567 14.0041C380.361 13.7675 380.087 13.6011 379.783 13.5281C379.618 13.4854 379.438 13.4619 379.241 13.4574C379.221 13.4572 379.201 13.4572 379.18 13.4574C379.007 13.4561 378.835 13.47 378.664 13.4988C378.333 13.5574 378.063 13.677 377.852 13.8574C377.598 14.073 377.436 14.3772 377.399 14.7081C377.388 14.7921 377.382 14.8767 377.383 14.9614C377.375 15.25 377.453 15.5343 377.607 15.7788C377.852 16.1556 378.298 16.417 378.945 16.5628L382.5 17.5201C385.755 18.3663 387.383 20.2739 387.383 23.2428C387.396 24.5438 386.988 25.8144 386.221 26.8654C385.447 27.9392 384.403 28.7885 383.193 29.3268C381.933 29.8967 380.564 30.1865 379.18 30.1761C378.508 30.1786 377.838 30.1295 377.173 30.0294C376.494 29.9283 375.828 29.7549 375.185 29.5121C374.027 29.0646 373.021 28.2952 372.285 27.2948C371.79 26.6293 371.423 25.8774 371.203 25.0774C371.05 24.5285 370.948 23.9665 370.899 23.3988ZM503.047 23.3988H508.457C508.478 23.6646 508.533 23.9267 508.62 24.1788C508.747 24.5476 508.966 24.8777 509.257 25.1374C509.51 25.3578 509.808 25.5203 510.131 25.6134C510.356 25.681 510.602 25.7254 510.871 25.7468C510.997 25.7567 511.124 25.7616 511.251 25.7614C511.493 25.763 511.734 25.7406 511.972 25.6948C512.262 25.637 512.52 25.5414 512.747 25.4081C512.835 25.3566 512.919 25.2986 512.999 25.2348C513.186 25.0875 513.341 24.9043 513.456 24.6961C513.589 24.4472 513.656 24.1688 513.652 23.8868C513.661 23.6261 513.602 23.3676 513.481 23.1365C513.361 22.9054 513.182 22.7095 512.963 22.5681C512.713 22.3974 512.396 22.2641 512.012 22.1681L509.257 21.4454C507.305 20.9636 505.882 20.2441 504.991 19.2868C504.436 18.6831 504.045 17.9472 503.856 17.1494C503.731 16.6525 503.663 16.1099 503.653 15.5214C503.653 15.4712 503.652 15.421 503.652 15.3708C503.643 14.6101 503.775 13.8543 504.04 13.1414C504.408 12.1991 505.027 11.3758 505.831 10.7614C506.933 9.90079 508.243 9.34736 509.628 9.15743C510.152 9.07977 510.681 9.04144 511.211 9.04276C513.398 9.04276 515.133 9.61565 516.416 10.7614C517.511 11.7419 518.244 13.0627 518.496 14.5108C518.548 14.7825 518.587 15.0566 518.613 15.3321H513.223C513.212 15.0739 513.158 14.8193 513.064 14.5788C512.98 14.3693 512.862 14.1751 512.715 14.0041C512.509 13.7675 512.235 13.6011 511.931 13.5281C511.766 13.4854 511.586 13.4619 511.389 13.4574C511.369 13.4572 511.349 13.4572 511.328 13.4574C511.155 13.4561 510.983 13.47 510.812 13.4988C510.482 13.5574 510.212 13.677 510 13.8574C509.747 14.0732 509.585 14.3774 509.548 14.7081C509.537 14.7921 509.531 14.8767 509.531 14.9614C509.524 15.2501 509.602 15.5344 509.756 15.7788C510 16.1556 510.446 16.417 511.093 16.5628L514.648 17.5201C517.903 18.3663 519.531 20.2739 519.531 23.2428C519.544 24.5438 519.136 25.8144 518.369 26.8654C517.595 27.9392 516.551 28.7885 515.341 29.3268C514.081 29.8967 512.711 30.1865 511.328 30.1761C510.657 30.1785 509.986 30.1295 509.323 30.0294C508.643 29.9284 507.976 29.755 507.333 29.5121C506.175 29.0646 505.169 28.2952 504.433 27.2948C503.938 26.6292 503.572 25.8773 503.352 25.0774C503.198 24.5286 503.096 23.9666 503.047 23.3988ZM154.707 0.410761V5.76143C154.495 5.68883 154.278 5.6331 154.057 5.59476C153.835 5.55476 153.594 5.52632 153.335 5.50943C153.122 5.49513 152.908 5.48802 152.695 5.48809C152.462 5.48717 152.229 5.50142 151.997 5.53076C151.487 5.59743 151.09 5.74498 150.807 5.97343C150.764 6.00791 150.723 6.04486 150.684 6.08409C150.518 6.25735 150.39 6.46297 150.307 6.68809C150.176 7.02676 150.107 7.44587 150.099 7.94543C150.098 7.9792 150.098 8.01298 150.097 8.04676V9.53076H154.415V14.7654H150.097V29.6881H143.535V14.7654H140.508V9.53076H143.535V7.89076C143.53 7.14086 143.593 6.39206 143.723 5.65343C144.002 4.12009 144.594 2.89654 145.499 1.98276C146.142 1.3485 146.92 0.86765 147.775 0.576094C148.409 0.348539 149.119 0.188094 149.904 0.0947609C150.474 0.0296478 151.048 -0.00196203 151.621 9.41955e-05C151.95 -0.000629985 152.278 0.00781776 152.605 0.0254275C153.518 0.0769831 154.219 0.205428 154.707 0.410761ZM69.8627 12.5201V9.53076H76.308V29.6881H69.98V26.6801C69.4796 27.5197 68.8049 28.2422 68.0013 28.7988C67.8039 28.9377 67.6006 29.068 67.392 29.1894C66.4899 29.7101 65.4863 30.0302 64.4493 30.1281C64.1393 30.1602 63.8277 30.1762 63.516 30.1761C62.2026 30.1914 60.8985 29.9542 59.6747 29.4774C58.3922 28.9578 57.2397 28.1626 56.2987 27.1481C54.5583 25.3113 53.5484 22.9022 53.4587 20.3734C53.4444 20.119 53.4373 19.8642 53.4373 19.6094C53.4244 18.2927 53.6335 16.9832 54.056 15.7361C54.5332 14.3682 55.2979 13.1183 56.2987 12.0708C57.1777 11.1235 58.2416 10.3665 59.4248 9.84658C60.6079 9.32668 61.885 9.05492 63.1773 9.04809C63.2902 9.04476 63.4031 9.04298 63.516 9.04276C64.2262 9.03858 64.9343 9.11915 65.6253 9.28276C66.2675 9.43608 66.8853 9.67748 67.4613 10.0001C67.9605 10.2761 68.4194 10.6193 68.8253 11.0201C69.2596 11.4527 69.6112 11.9611 69.8627 12.5201ZM273.887 12.5201V9.53076H280.332V29.6881H274.004V26.6801C273.504 27.5197 272.829 28.2422 272.025 28.7988C271.828 28.9377 271.625 29.068 271.416 29.1894C270.514 29.7103 269.509 30.0304 268.472 30.1281C268.162 30.1602 267.85 30.1762 267.539 30.1761C266.226 30.1912 264.922 29.954 263.699 29.4774C262.416 28.9578 261.264 28.1626 260.323 27.1481C258.582 25.3113 257.572 22.9022 257.483 20.3734C257.468 20.119 257.461 19.8642 257.461 19.6094C257.448 18.2928 257.657 16.9833 258.079 15.7361C258.556 14.368 259.321 13.1182 260.323 12.0708C261.202 11.1235 262.266 10.3665 263.449 9.84658C264.632 9.32668 265.909 9.05492 267.201 9.04809C267.314 9.04477 267.426 9.04299 267.539 9.04276C268.249 9.03858 268.957 9.11915 269.648 9.28276C270.29 9.43608 270.908 9.67748 271.484 10.0001C271.984 10.276 272.443 10.6192 272.849 11.0201C273.284 11.4527 273.635 11.9611 273.887 12.5201ZM452.911 9.12143V15.6441H451.601C449.784 15.6441 448.485 16.0548 447.703 16.8761C447.7 16.8792 447.697 16.8823 447.695 16.8854C446.963 17.6596 446.574 18.9405 446.528 20.7281C446.525 20.8498 446.524 20.9716 446.524 21.0934V29.6881H439.961V9.53076H446.328V13.3201C447.084 10.521 449.069 9.12143 452.285 9.12143H452.911ZM126.112 9.09743C124.916 9.19589 123.741 9.47366 122.627 9.92143C121.188 10.5081 120.007 11.2961 119.083 12.2854C118.165 13.2645 117.439 14.4075 116.944 15.6548C116.443 16.9108 116.192 18.229 116.192 19.6094C116.192 20.9899 116.443 22.3081 116.944 23.5641C117.439 24.8113 118.165 25.9543 119.083 26.9334C119.525 27.4052 120.018 27.8273 120.552 28.1921C121.202 28.634 121.897 29.0045 122.627 29.2974C123.184 29.5237 123.758 29.7056 124.344 29.8414C125.341 30.069 126.36 30.1813 127.383 30.1761C127.807 30.1766 128.232 30.1583 128.655 30.1214C129.851 30.0228 131.025 29.7451 132.139 29.2974C133.578 28.7117 134.76 27.9237 135.684 26.9334C136.602 25.9543 137.327 24.8113 137.823 23.5641C138.324 22.3081 138.575 20.9899 138.575 19.6094C138.575 18.229 138.324 16.9108 137.823 15.6548C137.327 14.4075 136.602 13.2645 135.684 12.2854C135.242 11.8136 134.749 11.3916 134.215 11.0268C133.564 10.5848 132.868 10.2142 132.139 9.92143C131.581 9.69515 131.007 9.51325 130.421 9.37743C129.425 9.14989 128.405 9.0376 127.383 9.04276C126.959 9.04232 126.535 9.06056 126.112 9.09743ZM399.667 9.09743C398.47 9.19589 397.295 9.47366 396.181 9.92143C394.743 10.5081 393.562 11.2961 392.637 12.2854C391.72 13.2645 390.994 14.4075 390.499 15.6548C389.997 16.9108 389.747 18.229 389.747 19.6094C389.747 20.9899 389.997 22.3081 390.499 23.5641C390.994 24.8113 391.72 25.9543 392.637 26.9334C393.08 27.4052 393.573 27.8273 394.107 28.1921C394.757 28.634 395.452 29.0045 396.181 29.2974C396.739 29.5237 397.313 29.7056 397.899 29.8414C398.895 30.069 399.915 30.1813 400.937 30.1761C401.362 30.1766 401.786 30.1583 402.209 30.1214C403.405 30.0228 404.58 29.7451 405.693 29.2974C407.132 28.7117 408.314 27.9237 409.239 26.9334C410.156 25.9543 410.882 24.8113 411.377 23.5641C411.879 22.3081 412.129 20.9899 412.129 19.6094C412.129 18.229 411.879 16.9108 411.377 15.6548C410.882 14.4075 410.156 13.2645 409.239 12.2854C408.796 11.8136 408.304 11.3916 407.769 11.0268C407.119 10.5848 406.423 10.2142 405.693 9.92143C405.136 9.69515 404.562 9.51325 403.976 9.37743C402.979 9.14989 401.96 9.0376 400.937 9.04276C400.513 9.04232 400.089 9.06056 399.667 9.09743ZM326.192 16.4454H332.071C333.373 16.4454 334.444 16.0419 335.283 15.2348C335.941 14.6001 336.364 13.7603 336.483 12.8534C336.524 12.5749 336.544 12.2936 336.543 12.0121C336.547 11.5113 336.48 11.0124 336.343 10.5308C336.148 9.85895 335.783 9.24894 335.283 8.76009C334.556 8.0435 333.596 7.61114 332.577 7.54143C332.409 7.52686 332.24 7.51974 332.071 7.52009H326.192V16.4454ZM64.824 24.7268C65.4235 24.7329 66.0197 24.6364 66.5867 24.4414C67.26 24.2025 67.8675 23.8083 68.36 23.2908C69.1257 22.4955 69.5994 21.4644 69.704 20.3654C69.7326 20.1144 69.7468 19.862 69.7467 19.6094C69.7467 18.1125 69.2845 16.8854 68.36 15.9281C67.5118 15.0433 66.348 14.53 65.1227 14.5001C65.0232 14.495 64.9236 14.4924 64.824 14.4921C64.2146 14.4854 63.6091 14.5902 63.0373 14.8014C62.3935 15.0486 61.8154 15.441 61.348 15.9481C60.5642 16.783 60.0911 17.8619 60.008 19.0041C59.9895 19.2053 59.9801 19.4073 59.98 19.6094C59.9746 20.2154 60.0632 20.8186 60.2427 21.3974C60.4647 22.0978 60.8426 22.7388 61.348 23.2721C61.767 23.7248 62.2741 24.0871 62.8381 24.3367C63.4021 24.5864 64.0112 24.7182 64.628 24.7241C64.6933 24.7261 64.7587 24.7269 64.824 24.7268ZM91.4067 24.7268C92.0058 24.7327 92.6015 24.6362 93.168 24.4414C93.8413 24.2025 94.4489 23.8083 94.9413 23.2908C95.7075 22.4957 96.1817 21.4646 96.2867 20.3654C96.3148 20.1144 96.3286 19.862 96.328 19.6094C96.328 18.1125 95.8658 16.8854 94.9413 15.9281C94.0931 15.0433 92.9293 14.53 91.704 14.5001C91.605 14.4951 91.5058 14.4924 91.4067 14.4921C90.7972 14.4854 90.1917 14.5902 89.62 14.8014C88.9757 15.0484 88.3971 15.4408 87.9293 15.9481C87.1455 16.783 86.6725 17.8619 86.5893 19.0041C86.5713 19.2054 86.5624 19.4073 86.5627 19.6094C86.5568 20.2154 86.645 20.8185 86.824 21.3974C87.046 22.0978 87.424 22.7388 87.9293 23.2721C88.3485 23.7249 88.8558 24.0873 89.42 24.337C89.9843 24.5867 90.5937 24.7184 91.2107 24.7241C91.276 24.7261 91.3413 24.7269 91.4067 24.7268ZM268.848 24.7268C269.448 24.7329 270.044 24.6364 270.611 24.4414C271.284 24.2023 271.891 23.8081 272.383 23.2908C273.149 22.4957 273.623 21.4646 273.728 20.3654C273.756 20.1144 273.77 19.862 273.769 19.6094C273.769 18.1125 273.307 16.8854 272.383 15.9281C271.535 15.0436 270.372 14.5303 269.147 14.5001C269.047 14.495 268.948 14.4924 268.848 14.4921C268.239 14.4854 267.633 14.5902 267.061 14.8014C266.417 15.0484 265.839 15.4408 265.371 15.9481C264.587 16.783 264.114 17.8619 264.031 19.0041C264.013 19.2054 264.004 19.4073 264.004 19.6094C263.998 20.2154 264.086 20.8185 264.265 21.3974C264.487 22.0978 264.865 22.7388 265.371 23.2721C265.79 23.7249 266.297 24.0873 266.861 24.337C267.426 24.5867 268.035 24.7184 268.652 24.7241C268.717 24.7261 268.783 24.7269 268.848 24.7268ZM123.837 23.2428C124.483 24.0018 125.382 24.5004 126.368 24.6454C126.703 24.701 127.043 24.7282 127.383 24.7268C127.887 24.7313 128.39 24.6681 128.877 24.5388C129.678 24.3282 130.394 23.8756 130.928 23.2428C131.653 22.3856 132.085 21.3198 132.163 20.2001C132.18 20.0037 132.188 19.8066 132.188 19.6094C132.194 18.9761 132.1 18.3458 131.911 17.7414C131.703 17.0936 131.369 16.4935 130.928 15.9761C130.283 15.217 129.383 14.7185 128.397 14.5734C128.062 14.5179 127.723 14.4906 127.383 14.4921C126.878 14.4875 126.376 14.5508 125.888 14.6801C125.087 14.8907 124.371 15.3433 123.837 15.9761C123.113 16.8333 122.68 17.8991 122.603 19.0188C122.586 19.2152 122.578 19.4123 122.579 19.6094C122.573 20.2427 122.666 20.873 122.855 21.4774C123.062 22.1252 123.396 22.7253 123.837 23.2428ZM397.392 23.2428C398.038 24.0018 398.937 24.5004 399.923 24.6454C400.258 24.701 400.597 24.7282 400.937 24.7268C401.442 24.7313 401.944 24.6681 402.432 24.5388C403.233 24.3282 403.949 23.8756 404.483 23.2428C405.207 22.3856 405.64 21.3198 405.717 20.2001C405.734 20.0037 405.743 19.8066 405.743 19.6094C405.748 18.9761 405.655 18.3458 405.465 17.7414C405.258 17.0936 404.924 16.4935 404.483 15.9761C403.837 15.217 402.938 14.7185 401.952 14.5734C401.617 14.5179 401.277 14.4906 400.937 14.4921C400.433 14.4875 399.93 14.5508 399.443 14.6801C398.642 14.8907 397.926 15.3433 397.392 15.9761C396.667 16.8333 396.235 17.8991 396.157 19.0188C396.141 19.2152 396.133 19.4123 396.133 19.6094C396.127 20.2427 396.221 20.873 396.409 21.4774C396.617 22.1252 396.951 22.7253 397.392 23.2428ZM35.684 17.5588H44.4533C44.3985 17.1007 44.2874 16.6511 44.1227 16.2201C43.8975 15.6293 43.5394 15.0983 43.076 14.6681C42.528 14.1677 41.8484 13.8342 41.1173 13.7068C40.7748 13.6431 40.4271 13.6119 40.0787 13.6134C39.6551 13.6101 39.2325 13.654 38.8187 13.7441C38.2258 13.8783 37.712 14.1152 37.2773 14.4548C37.2062 14.5103 37.1373 14.5686 37.0707 14.6294C36.6321 15.0363 36.29 15.536 36.0693 16.0921C35.9129 16.4708 35.7951 16.8903 35.716 17.3508C35.7044 17.4199 35.6937 17.4893 35.684 17.5588ZM353.36 17.5588H362.129C362.074 17.1006 361.963 16.651 361.797 16.2201C361.573 15.6294 361.215 15.0984 360.752 14.6681C360.204 14.1677 359.524 13.8342 358.793 13.7068C358.45 13.643 358.102 13.6118 357.753 13.6134C357.33 13.6101 356.907 13.654 356.493 13.7441C355.901 13.8783 355.388 14.1152 354.953 14.4548C354.882 14.5103 354.813 14.5686 354.747 14.6294C354.308 15.0362 353.965 15.5359 353.744 16.0921C353.589 16.4708 353.471 16.8903 353.392 17.3508C353.38 17.4199 353.37 17.4893 353.36 17.5588ZM485.508 17.5588H494.277C494.223 17.1007 494.111 16.6511 493.947 16.2201C493.722 15.6293 493.363 15.0983 492.9 14.6681C492.352 14.1677 491.672 13.8342 490.941 13.7068C490.599 13.6431 490.251 13.6119 489.903 13.6134C489.479 13.6101 489.057 13.654 488.643 13.7441C488.05 13.8783 487.536 14.1152 487.101 14.4548C487.03 14.5103 486.961 14.5686 486.895 14.6294C486.456 15.0363 486.114 15.536 485.893 16.0921C485.737 16.4708 485.619 16.8903 485.54 17.3508C485.528 17.4199 485.518 17.4893 485.508 17.5588Z" fill="#56CE62"/>
</svg>
