<svg width="314" height="39" viewBox="0 0 314 39" fill="none" xmlns="http://www.w3.org/2000/svg">
<path fill-rule="evenodd" clip-rule="evenodd" d="M18.5204 12.7336V1.84473H25.3671V29.9789H18.5204V19.0124H6.84671V29.9789H0V1.84473H6.84671V12.7336H18.5204ZM182.067 12.7336V9.73211H188.54V29.5865C188.54 31.3134 188.047 32.8831 187.06 34.2956C186.239 35.4581 185.171 36.4246 183.933 37.1257C183.623 37.3051 183.305 37.4705 182.979 37.6212C181.586 38.2596 180.091 38.6481 178.564 38.769C178.111 38.8082 177.656 38.8279 177.201 38.828C176.124 38.834 175.048 38.7367 173.988 38.5373C172.687 38.2846 171.514 37.8663 170.471 37.2824C170.312 37.1933 170.155 37.0999 170.001 37.0024C168.078 35.7863 166.757 33.9813 166.038 31.5875H172.59C173.267 32.8831 174.543 33.6005 176.418 33.7398C176.652 33.757 176.887 33.7655 177.122 33.7652C177.64 33.7691 178.157 33.7129 178.661 33.5978C179.369 33.4391 180.03 33.1207 180.595 32.667C181.297 32.0981 181.757 31.2845 181.883 30.3901C181.928 30.1049 181.951 29.8164 181.949 29.5276V26.3306C181.654 26.8289 181.278 27.2747 180.836 27.6498C180.489 27.9516 180.09 28.2306 179.638 28.4869C179.591 28.5137 179.544 28.54 179.497 28.5659C178.443 29.1379 177.268 29.4522 176.068 29.4834C175.962 29.487 175.856 29.4888 175.75 29.4887C174.596 29.5005 173.448 29.3296 172.348 28.9825C170.919 28.5192 169.63 27.705 168.598 26.6145C166.99 24.9405 166.029 22.7508 165.884 20.4348C165.855 20.0788 165.841 19.7218 165.841 19.3647C165.829 18.1435 166.014 16.9284 166.388 15.7658C166.84 14.3983 167.595 13.1506 168.598 12.1161C170.435 10.2 172.819 9.24191 175.75 9.24191C176.456 9.2374 177.16 9.31789 177.847 9.48166C178.486 9.63608 179.101 9.87907 179.673 10.2036C180.798 10.8438 181.596 11.6871 182.067 12.7336ZM226.642 18.4432V29.9789H220.05V9.73211H226.445V12.7336C226.806 11.9936 227.327 11.3435 227.971 10.8304C228.242 10.6103 228.529 10.4102 228.829 10.2317C229.878 9.60905 231.071 9.26939 232.291 9.24593C232.377 9.2433 232.462 9.24196 232.547 9.24191C234.902 9.24191 236.7 9.98078 237.942 11.4585C238.669 12.3381 239.189 13.3705 239.462 14.4787C239.692 15.3609 239.806 16.3355 239.806 17.4025V29.9789H233.234V18.482C233.236 18.1334 233.205 17.7853 233.14 17.4427C233.059 17.0275 232.925 16.6574 232.739 16.3324C232.651 16.1806 232.551 16.0367 232.439 15.9025C232.108 15.5119 231.666 15.2315 231.172 15.0989C230.894 15.0185 230.588 14.9707 230.253 14.9555C230.174 14.952 230.095 14.9502 230.016 14.9502C229.662 14.9474 229.308 14.9888 228.964 15.0734C228.431 15.2027 227.943 15.4761 227.554 15.8636C227.185 16.2379 226.922 16.7033 226.792 17.2123C226.707 17.524 226.658 17.8646 226.645 18.2343C226.642 18.3039 226.642 18.3735 226.642 18.4432ZM96.762 12.7336V0.648702H103.354V29.9789H96.9977V26.9574C96.4951 27.8008 95.8173 28.5265 95.0102 29.0856C94.8119 29.2256 94.6077 29.357 94.3981 29.4794C93.4916 30.0025 92.4829 30.3241 91.4408 30.4223C91.1293 30.454 90.8164 30.4697 90.5033 30.4691C89.1844 30.4843 87.875 30.2461 86.646 29.7673C85.3579 29.2458 84.2001 28.4474 83.2548 27.4288C81.5061 25.5839 80.4911 23.164 80.4006 20.6236C80.3868 20.3681 80.3801 20.1121 80.3805 19.8562C80.3669 18.5332 80.5766 17.2173 81.0007 15.9641C81.4804 14.5898 82.249 13.3344 83.2548 12.2822C84.1378 11.3306 85.2065 10.5702 86.3949 10.048C87.5834 9.52577 88.8663 9.25279 90.1644 9.24593C90.2774 9.24304 90.3903 9.2417 90.5033 9.24191C91.1658 9.23759 91.8267 9.30813 92.4734 9.45219C93.1492 9.60427 93.7981 9.85758 94.3981 10.2036C94.9235 10.5026 95.4019 10.8777 95.8178 11.3166C96.2086 11.7335 96.5277 12.2123 96.762 12.7336ZM44.7313 23.6613H50.7945C50.1925 25.4312 49.0761 26.9814 47.5881 28.1132C47.3958 28.264 47.1988 28.4087 46.9975 28.5472C45.134 29.8285 42.9598 30.4691 40.4749 30.4691C37.1489 30.4691 34.5126 29.5664 32.5661 27.761C32.4834 27.6843 32.4022 27.6062 32.3223 27.5266C30.7478 25.9508 29.7508 23.8902 29.4923 21.6777C29.4096 21.0606 29.3689 20.4386 29.3704 19.816C29.3581 18.5909 29.5366 17.3713 29.8994 16.2011C30.3853 14.6745 31.2454 13.2937 32.4013 12.1844C34.0826 10.5561 36.2683 9.54901 38.5985 9.32897C39.1237 9.27014 39.6518 9.24107 40.1802 9.24191C41.3912 9.23101 42.5975 9.39246 43.763 9.7214C45.3372 10.1716 46.7756 11.0045 47.9497 12.1456C49.9507 14.0814 50.9512 16.6645 50.9512 19.895V21.8572H35.8448C35.9558 22.4573 36.1582 23.0368 36.4448 23.5755C37.0832 24.7336 38.1078 25.4145 39.5186 25.618C39.8354 25.6623 40.155 25.6838 40.4749 25.6823C40.9268 25.685 41.3778 25.6415 41.8209 25.5524C42.2409 25.4669 42.6485 25.3292 43.0344 25.1426C43.4143 24.9614 43.7662 24.7264 44.079 24.4448C44.3312 24.2146 44.5507 23.951 44.7313 23.6613ZM290.267 23.6613H296.329C295.727 25.4312 294.611 26.9814 293.123 28.1132C292.931 28.2639 292.734 28.4087 292.533 28.5472C290.669 29.8285 288.494 30.4691 286.01 30.4691C282.684 30.4691 280.047 29.5664 278.101 27.761C278.018 27.6843 277.937 27.6062 277.857 27.5266C276.283 25.9508 275.285 23.8902 275.027 21.6777C274.944 21.0606 274.904 20.4386 274.905 19.816C274.893 18.5909 275.071 17.3713 275.434 16.2011C275.92 14.6745 276.78 13.2937 277.936 12.1844C279.617 10.5561 281.803 9.54901 284.133 9.32897C284.658 9.27014 285.186 9.24107 285.715 9.24191C286.926 9.23101 288.132 9.39246 289.298 9.7214C290.872 10.1716 292.31 11.0045 293.484 12.1456C295.485 14.0814 296.486 16.6645 296.486 19.895V21.8572H281.379C281.49 22.4573 281.693 23.0368 281.979 23.5755C282.618 24.7336 283.642 25.4145 285.053 25.618C285.37 25.6623 285.69 25.6838 286.01 25.6823C286.461 25.685 286.913 25.6415 287.356 25.5524C287.776 25.467 288.184 25.3293 288.57 25.1426C288.95 24.9613 289.301 24.7263 289.614 24.4448C289.866 24.2147 290.086 23.9511 290.267 23.6613ZM272.806 29.9789H254.952V29.7834L262.957 14.8337H255.246V9.73211H272.512V9.92766L264.565 24.7997H272.806V29.9789ZM130.489 1.35052C128.856 1.46684 127.251 1.83552 125.731 2.44342C125.268 2.62998 124.814 2.83871 124.371 3.06889C123.118 3.71228 121.979 4.55804 121.001 5.57212C119.74 6.8936 118.756 8.44367 118.05 10.2223C117.337 12.034 116.977 13.9651 116.99 15.9118C116.99 16.2053 116.997 16.4987 117.012 16.7918C117.102 19.061 117.709 21.2796 118.785 23.2795C119.109 23.8768 119.478 24.4482 119.89 24.9885C121.014 26.4457 122.42 27.6622 124.023 28.5659C126.319 29.8874 128.958 30.5482 131.94 30.5482C132.621 30.5492 133.302 30.5129 133.98 30.4397C136.051 30.2314 138.056 29.5932 139.866 28.5659C139.938 28.525 140.009 28.4834 140.08 28.4414C142.201 27.2129 143.944 25.4279 145.123 23.2795C145.536 22.5244 145.88 21.7337 146.152 20.917C146.678 19.3013 146.941 17.6112 146.928 15.9118C146.941 13.9651 146.581 12.034 145.869 10.2223C145.163 8.44367 144.172 6.8936 142.897 5.57212C142.394 5.0524 141.847 4.57738 141.262 4.15242C140.298 3.45738 139.253 2.88341 138.149 2.44342C137.464 2.16674 136.76 1.94068 136.042 1.76705C134.698 1.44705 133.321 1.28878 131.94 1.2956C131.456 1.29529 130.972 1.31361 130.489 1.35052ZM70.1774 12.7336V9.73211H76.6518V29.9789H70.2953V26.9574C69.7926 27.8008 69.1149 28.5265 68.3077 29.0856C68.1095 29.2256 67.9053 29.357 67.6956 29.4794C66.7895 30.0023 65.7813 30.3239 64.7397 30.4223C64.4282 30.454 64.1153 30.4697 63.8022 30.4691C62.4829 30.4845 61.1729 30.2462 59.9435 29.7673C58.6554 29.2458 57.4977 28.4474 56.5523 27.4288C54.8041 25.5837 53.7897 23.1638 53.6995 20.6236C53.6852 20.3681 53.6781 20.1122 53.6781 19.8562C53.6649 18.5331 53.875 17.2173 54.2996 15.9641C54.7789 14.59 55.547 13.3345 56.5523 12.2822C57.4353 11.3306 58.5041 10.5702 59.6925 10.048C60.881 9.52577 62.1639 9.25279 63.462 9.24593C63.5754 9.24303 63.6888 9.24169 63.8022 9.24191C64.5155 9.23728 65.2268 9.31776 65.921 9.48166C66.5661 9.63609 67.1868 9.87903 67.7653 10.2036C68.2667 10.4808 68.7277 10.8256 69.1354 11.2282C69.5716 11.6623 69.9247 12.1725 70.1774 12.7336ZM208.768 12.7336V9.73211H215.243V29.9789H208.886V26.9574C208.384 27.8008 207.706 28.5265 206.899 29.0856C206.7 29.2256 206.496 29.357 206.287 29.4794C205.38 30.0025 204.371 30.3241 203.329 30.4223C203.018 30.454 202.705 30.4697 202.392 30.4691C201.073 30.4843 199.763 30.2461 198.535 29.7673C197.246 29.2458 196.089 28.4474 195.143 27.4288C193.395 25.5837 192.381 23.1638 192.291 20.6236C192.276 20.3681 192.269 20.1122 192.269 19.8562C192.255 18.5332 192.465 17.2173 192.889 15.9641C193.369 14.5898 194.138 13.3344 195.143 12.2822C196.026 11.3306 197.095 10.5702 198.283 10.048C199.472 9.52577 200.755 9.25279 202.053 9.24593C202.166 9.24304 202.279 9.2417 202.392 9.24191C203.105 9.23728 203.816 9.31776 204.511 9.48166C205.156 9.63609 205.776 9.87903 206.355 10.2036C206.857 10.4807 207.318 10.8255 207.726 11.2282C208.163 11.6623 208.516 12.1725 208.768 12.7336ZM163.938 9.3196V15.873H162.624C160.799 15.873 159.494 16.2855 158.708 17.1105C158.705 17.1132 158.703 17.1159 158.7 17.1186C157.965 17.8972 157.574 19.1838 157.528 20.9786C157.525 21.1013 157.523 21.2241 157.523 21.3469V29.9789H150.93V9.73211H157.327V13.5385C158.085 10.7259 160.08 9.3196 163.311 9.3196H163.938ZM313.3 9.3196V15.873H311.985C310.16 15.873 308.855 16.2855 308.07 17.1105C308.067 17.1132 308.064 17.1159 308.062 17.1186C307.326 17.8972 306.935 19.1838 306.889 20.9786C306.886 21.1013 306.884 21.2241 306.885 21.3469V29.9789H300.292V9.73211H306.688V13.5385C307.447 10.7259 309.441 9.3196 312.672 9.3196H313.3ZM251.224 29.9789H244.632V9.73211H251.224V29.9789ZM128.417 23.9465C129.248 24.3285 130.138 24.5637 131.049 24.6417C131.345 24.6688 131.642 24.6822 131.94 24.6818C132.674 24.6858 133.405 24.5985 134.118 24.422C134.579 24.3061 135.029 24.1469 135.461 23.9465C136.092 23.6571 136.679 23.2801 137.205 22.8268C137.506 22.5652 137.783 22.2765 138.031 21.9643C138.692 21.1339 139.202 20.1991 139.562 19.1597C139.921 18.1195 140.1 17.0369 140.1 15.9118C140.1 14.7743 139.921 13.6854 139.562 12.6452C139.202 11.6059 138.692 10.6772 138.031 9.85935C137.489 9.19465 136.826 8.63766 136.078 8.21732C135.877 8.10203 135.671 7.99524 135.461 7.89722C134.631 7.5154 133.741 7.28022 132.83 7.2021C132.534 7.17496 132.237 7.16155 131.94 7.16192C131.21 7.15798 130.483 7.24298 129.774 7.41505C129.308 7.52968 128.854 7.68797 128.417 7.88784C127.789 8.17198 127.204 8.54304 126.679 8.99012C126.376 9.25046 126.097 9.53831 125.847 9.84997C125.181 10.6842 124.669 11.6309 124.336 12.6452C123.988 13.6988 123.812 14.802 123.817 15.9118C123.812 17.0186 123.987 18.1189 124.336 19.1691C124.684 20.2022 125.187 21.1339 125.847 21.9643C126.415 22.6716 127.118 23.2585 127.915 23.6907C128.08 23.7817 128.247 23.8671 128.417 23.9465ZM65.1161 24.9952C65.7182 25.0018 66.3171 24.9053 66.8867 24.71C67.563 24.47 68.1733 24.074 68.668 23.5541C69.4371 22.7553 69.913 21.7195 70.0181 20.6156C70.0468 20.3635 70.0611 20.1099 70.0609 19.8562C70.0609 18.3517 69.5966 17.1186 68.668 16.1569C67.816 15.2682 66.6469 14.7525 65.4161 14.7225C65.3162 14.7179 65.2161 14.7156 65.1161 14.7158C64.5039 14.7091 63.8956 14.8144 63.3214 15.0265C62.6748 15.2744 62.0941 15.6681 61.6244 16.177C60.8371 17.0157 60.3619 18.0995 60.2784 19.2468C60.2597 19.4494 60.2503 19.6527 60.2503 19.8562C60.245 20.4645 60.334 21.0699 60.5141 21.6509C60.7371 22.3545 61.1168 22.9983 61.6244 23.534C62.0453 23.9887 62.5546 24.3527 63.1212 24.6035C63.6878 24.8543 64.2996 24.9867 64.9192 24.9926C64.9848 24.9945 65.0504 24.9954 65.1161 24.9952ZM91.8185 24.9952C92.4202 25.0017 93.0186 24.9052 93.5878 24.71C94.2641 24.47 94.8744 24.074 95.3691 23.5541C96.1387 22.7555 96.615 21.7197 96.7205 20.6156C96.7488 20.3635 96.7626 20.1099 96.762 19.8562C96.762 18.3517 96.2977 17.1186 95.3691 16.1569C94.5171 15.2682 93.348 14.7525 92.1172 14.7225C92.0177 14.7179 91.9181 14.7156 91.8185 14.7158C91.2063 14.7091 90.5981 14.8144 90.0238 15.0265C89.3767 15.2743 88.7956 15.668 88.3255 16.177C87.5382 17.0157 87.063 18.0995 86.9795 19.2468C86.9613 19.4494 86.9523 19.6528 86.9527 19.8562C86.947 20.4644 87.0355 21.0698 87.2152 21.6509C87.4382 22.3545 87.8179 22.9983 88.3255 23.534C88.7466 23.9889 89.2561 24.3529 89.8229 24.6037C90.3897 24.8545 91.0018 24.9869 91.6216 24.9926C91.6872 24.9945 91.7529 24.9954 91.8185 24.9952ZM203.707 24.9952C204.309 25.0018 204.908 24.9053 205.478 24.71C206.154 24.4698 206.763 24.0738 207.258 23.5541C208.027 22.7555 208.504 21.7197 208.609 20.6156C208.637 20.3635 208.651 20.1099 208.651 19.8562C208.651 18.3517 208.186 17.1186 207.258 16.1569C206.406 15.2682 205.237 14.7525 204.006 14.7225C203.906 14.7179 203.807 14.7156 203.707 14.7158C203.095 14.7091 202.487 14.8144 201.912 15.0265C201.265 15.2743 200.684 15.668 200.214 16.177C199.427 17.0157 198.952 18.0995 198.868 19.2468C198.85 19.4494 198.841 19.6528 198.841 19.8562C198.836 20.4644 198.924 21.0698 199.104 21.6509C199.327 22.3545 199.706 22.9983 200.214 23.534C200.635 23.9889 201.145 24.3529 201.711 24.6037C202.278 24.8545 202.89 24.9869 203.51 24.9926C203.576 24.9945 203.641 24.9954 203.707 24.9952ZM173.64 22.7786C174.337 23.4881 175.254 23.9388 176.241 24.0564C176.52 24.0945 176.802 24.1133 177.084 24.1126C177.648 24.1182 178.21 24.0379 178.75 23.8742C179.442 23.6594 180.072 23.2803 180.586 22.7693C181.427 21.9462 181.914 20.8276 181.943 19.6513C181.947 19.5558 181.95 19.4602 181.949 19.3647C181.949 17.9914 181.498 16.8601 180.595 15.9708C179.861 15.2495 178.904 14.797 177.881 14.6863C177.616 14.653 177.35 14.6364 177.084 14.6368C176.562 14.632 176.042 14.7001 175.539 14.839C174.819 15.04 174.164 15.4271 173.64 15.9614C172.909 16.7045 172.46 17.6791 172.369 18.7178C172.347 18.9326 172.335 19.1486 172.336 19.3647C172.33 19.9139 172.408 20.4608 172.567 20.9866C172.776 21.6613 173.144 22.2759 173.64 22.7786ZM251.443 5.16764C251.628 4.70394 251.72 4.20839 251.714 3.7091C251.715 3.68856 251.715 3.66802 251.714 3.64749C251.717 3.16655 251.622 2.69007 251.435 2.24705C251.248 1.80403 250.972 1.40376 250.626 1.07059C250.272 0.718581 249.851 0.442792 249.387 0.260293C248.921 0.083326 248.426 -0.00480581 247.928 0.000460678C247.924 0.000455319 247.92 0.000455319 247.916 0.000460678C247.423 -0.00734956 246.934 0.0842217 246.478 0.269701C246.022 0.455181 245.608 0.730761 245.26 1.07997C245.246 1.09415 245.231 1.10844 245.217 1.12283C244.875 1.45984 244.605 1.8629 244.424 2.3075C244.242 2.75211 244.153 3.22897 244.162 3.7091C244.162 3.74214 244.162 3.77518 244.163 3.80821C244.164 4.28679 244.261 4.76031 244.45 5.2002C244.638 5.64009 244.914 6.03724 245.26 6.36769C245.611 6.7155 246.027 6.98935 246.486 7.17295C246.944 7.35655 247.434 7.44617 247.928 7.43648C247.947 7.43659 247.966 7.43659 247.984 7.43648C248.473 7.44236 248.959 7.35089 249.412 7.1674C249.866 6.98391 250.278 6.71207 250.626 6.36769C250.977 6.02791 251.255 5.61944 251.443 5.16764ZM35.8448 17.7949H44.6536C44.5985 17.3348 44.487 16.8831 44.3215 16.4502C44.0953 15.8568 43.7355 15.3234 43.2701 14.8913C42.7196 14.3886 42.037 14.0536 41.3026 13.9256C40.9585 13.8616 40.6092 13.8303 40.2593 13.8318C39.8337 13.829 39.4092 13.8734 38.9936 13.9644C38.398 14.0984 37.8819 14.3359 37.4453 14.677C37.3739 14.7328 37.3046 14.7913 37.2377 14.8524C36.7972 15.2611 36.4535 15.7631 36.2318 16.3217C36.0747 16.702 35.9564 17.1239 35.8769 17.5873C35.8653 17.6564 35.8545 17.7256 35.8448 17.7949ZM281.379 17.7949H290.188C290.133 17.3348 290.022 16.8831 289.856 16.4502C289.63 15.8568 289.27 15.3234 288.805 14.8913C288.254 14.3886 287.572 14.0536 286.837 13.9256C286.493 13.8616 286.144 13.8303 285.794 13.8318C285.368 13.829 284.944 13.8734 284.528 13.9644C283.933 14.0984 283.417 14.3359 282.98 14.677C282.909 14.7328 282.839 14.7913 282.772 14.8524C282.332 15.2611 281.988 15.7631 281.767 16.3217C281.609 16.702 281.491 17.1239 281.412 17.5873C281.4 17.6564 281.389 17.7256 281.379 17.7949Z" fill="#56CE62"/>
</svg>
