<svg width="87" height="29" viewBox="0 0 87 29" fill="none" xmlns="http://www.w3.org/2000/svg">
<path fill-rule="evenodd" clip-rule="evenodd" d="M18.4373 10.84V0H25.2533V28.008H18.4373V17.0893H6.816V28.008H0V0H6.816V10.84H18.4373ZM54.1987 21.7187H59.6093C59.6306 21.985 59.6857 22.2476 59.7733 22.5C59.9004 22.8684 60.1199 23.198 60.4107 23.4573C60.6632 23.6776 60.9608 23.84 61.2827 23.9333C61.5076 24.0018 61.7542 24.0467 62.0227 24.068C62.1491 24.0779 62.2759 24.0828 62.4027 24.0827C62.6447 24.0842 62.8863 24.0619 63.124 24.016C63.4138 23.9573 63.672 23.8613 63.8987 23.728C63.9868 23.6765 64.071 23.6185 64.1507 23.5547C64.338 23.4075 64.4939 23.2244 64.6093 23.016C64.7419 22.7671 64.8094 22.4887 64.8053 22.2067C64.8141 21.9459 64.7551 21.6873 64.634 21.4562C64.513 21.225 64.334 21.0293 64.1147 20.888C63.8658 20.7173 63.5489 20.584 63.164 20.488L60.4107 19.7653C58.4569 19.2836 57.0342 18.5644 56.1427 17.608C55.5881 17.0038 55.1979 16.2675 55.0093 15.4693C54.8831 14.9724 54.8151 14.4298 54.8053 13.8413C54.8049 13.7916 54.8049 13.7418 54.8053 13.692C54.7958 12.931 54.9269 12.1748 55.192 11.4613C55.5599 10.5195 56.1793 9.69672 56.9827 9.08267C58.0844 8.22155 59.3946 7.66765 60.78 7.47733C61.304 7.39968 61.833 7.36135 62.3627 7.36267C64.5502 7.36267 66.2853 7.936 67.568 9.08267C68.6628 10.0628 69.3955 11.3831 69.648 12.8307C69.7001 13.1024 69.7393 13.3765 69.7653 13.652H64.3747C64.364 13.3938 64.3104 13.1392 64.216 12.8987C64.132 12.6892 64.014 12.495 63.8667 12.324C63.6614 12.0874 63.3873 11.921 63.0827 11.848C62.9182 11.8053 62.7378 11.7818 62.5413 11.7773C62.5209 11.7771 62.5004 11.7771 62.48 11.7773C62.3071 11.7765 62.1344 11.7907 61.964 11.82C61.6342 11.8778 61.3636 11.9969 61.152 12.1773C60.8987 12.3932 60.7371 12.6973 60.7 13.028C60.689 13.112 60.6836 13.1966 60.684 13.2813C60.6763 13.5703 60.7543 13.8552 60.908 14.1C61.1533 14.476 61.5996 14.7369 62.2467 14.8827L65.8013 15.84C69.0564 16.6862 70.684 18.5938 70.684 21.5627C70.6965 22.8639 70.2888 24.1344 69.5213 25.1853C68.7477 26.2589 67.7034 27.1082 66.4947 27.6467C65.2336 28.2168 63.8639 28.5066 62.48 28.496C61.8088 28.4989 61.1384 28.4503 60.4747 28.3507C59.7954 28.2491 59.129 28.0753 58.4867 27.832C57.3279 27.3847 56.3212 26.6154 55.5853 25.6147C55.0903 24.9491 54.7236 24.1972 54.504 23.3973C54.3503 22.8485 54.2481 22.2865 54.1987 21.7187ZM86.4067 22.7347V27.9293C86.2945 27.9739 86.1802 28.0127 86.064 28.0453C85.7236 28.144 85.2711 28.2356 84.7067 28.32C84.286 28.384 83.863 28.4316 83.4387 28.4627C83.1329 28.4846 82.8265 28.4957 82.52 28.496C81.8408 28.501 81.1628 28.4384 80.496 28.3093C79.1262 28.0338 78.0396 27.4516 77.236 26.5627C76.5805 25.8246 76.105 24.9447 75.8467 23.992C75.66 23.3387 75.5462 22.6222 75.5053 21.8427C75.4937 21.6193 75.4879 21.3957 75.488 21.172V13.2427H71.992V7.852H75.488V1.816H82.0307V7.852H86.6013V13.2427H82.0307V20.7613C82.0262 21.0669 82.0644 21.3716 82.144 21.6667C82.408 22.5867 83.132 23.0467 84.316 23.0467C85.0245 23.0461 85.7289 22.941 86.4067 22.7347ZM39.2947 7.41867C38.0986 7.51726 36.9242 7.79502 35.8107 8.24267C34.3716 8.82844 33.1898 9.616 32.2653 10.6053C31.3475 11.5844 30.622 12.7274 30.1267 13.9747C29.6253 15.2316 29.3747 16.5498 29.3747 17.9293C29.3747 19.3098 29.6253 20.6284 30.1267 21.8853C30.6222 23.1321 31.3477 24.2746 32.2653 25.2533C32.7078 25.7251 33.2005 26.1472 33.7347 26.512C34.3849 26.954 35.081 27.3245 35.8107 27.6173C36.3675 27.8435 36.9412 28.0254 37.5267 28.1613C38.5238 28.389 39.5439 28.5013 40.5667 28.496C40.9908 28.4964 41.4148 28.4782 41.8373 28.4413C43.0338 28.3429 44.2087 28.0651 45.3227 27.6173C46.7609 27.0316 47.9422 26.2436 48.8667 25.2533C49.7843 24.2746 50.5098 23.1321 51.0053 21.8853C51.5067 20.6284 51.7573 19.3098 51.7573 17.9293C51.7573 16.5498 51.5067 15.2316 51.0053 13.9747C50.51 12.7274 49.7845 11.5844 48.8667 10.6053C48.4242 10.1335 47.9315 9.71148 47.3973 9.34667C46.7474 8.90526 46.0518 8.53512 45.3227 8.24267C44.7654 8.01639 44.1912 7.83449 43.6053 7.69867C42.6087 7.47068 41.5891 7.35794 40.5667 7.36267C40.1421 7.36263 39.7176 7.38132 39.2947 7.41867ZM37.0213 21.5627C37.6668 22.3218 38.5662 22.8203 39.552 22.9653C39.8873 23.0209 40.2268 23.0481 40.5667 23.0467C41.0711 23.0512 41.5738 22.988 42.0613 22.8587C42.8615 22.6478 43.5772 22.1952 44.1107 21.5627C44.8355 20.706 45.2684 19.6407 45.3467 18.5213C45.3632 18.3244 45.3712 18.1269 45.3707 17.9293C45.3766 17.2961 45.2835 16.6658 45.0947 16.0613C44.8869 15.4139 44.5524 14.8143 44.1107 14.2973C43.4655 13.5385 42.5666 13.04 41.5813 12.8947C41.246 12.8386 40.9066 12.811 40.5667 12.812C40.0623 12.8075 39.5596 12.8707 39.072 13C38.2712 13.211 37.555 13.664 37.0213 14.2973C36.297 15.1541 35.8646 16.2194 35.7867 17.3387C35.7698 17.5351 35.7613 17.7322 35.7613 17.9293C35.7558 18.5627 35.8494 19.1929 36.0387 19.7973C36.2459 20.4451 36.5799 21.0452 37.0213 21.5627Z" fill="#56CE62"/>
</svg>
