<svg width="431" height="58" viewBox="0 0 431 58" fill="none" xmlns="http://www.w3.org/2000/svg">
<path fill-rule="evenodd" clip-rule="evenodd" d="M6.77665 2.72281L23.1944 29.5388L39.6141 2.72281H46.3908V44.2486H36.6607V24.1519L23.1944 44.8278L9.73006 24.1519V44.2486H0V2.72281H6.77665ZM308.893 18.7946V14.3645H318.449V43.6693C318.449 46.2182 317.72 48.535 316.263 50.62C315.051 52.3358 313.475 53.7622 311.647 54.797C311.189 55.0619 310.719 55.306 310.239 55.5285C308.183 56.4705 305.978 57.044 303.724 57.2226C303.054 57.2806 302.383 57.3096 301.711 57.3096C300.121 57.3184 298.533 57.1748 296.971 56.8806C295.048 56.5077 293.317 55.8902 291.777 55.0283C291.542 54.8968 291.311 54.7591 291.084 54.6152C288.246 52.8202 286.296 50.156 285.234 46.6228H294.907C295.906 48.535 297.788 49.594 300.555 49.7996C300.901 49.8249 301.247 49.8375 301.594 49.8371C302.359 49.8428 303.121 49.7599 303.866 49.59C304.91 49.3557 305.886 48.8857 306.72 48.2161C307.756 47.3765 308.435 46.1756 308.62 44.8554C308.688 44.4345 308.721 44.0087 308.719 43.5824V38.8636C308.283 39.5991 307.728 40.2571 307.076 40.8108C306.564 41.2563 305.974 41.6681 305.309 42.0463C305.239 42.0858 305.17 42.1247 305.099 42.163C303.543 43.0068 301.81 43.4708 300.041 43.5171C299.883 43.5226 299.726 43.5252 299.568 43.525C297.865 43.5424 296.171 43.2902 294.547 42.7778C292.439 42.0936 290.537 40.892 289.014 39.2827C286.642 36.8119 285.223 33.58 285.009 30.1615C284.966 29.6361 284.945 29.1092 284.945 28.582C284.928 26.7796 285.2 24.9861 285.752 23.2702C286.419 21.2517 287.534 19.4102 289.014 17.8833C291.726 15.0551 295.244 13.641 299.568 13.641C300.611 13.6343 301.65 13.7531 302.664 13.9948C303.608 14.2226 304.516 14.5812 305.36 15.0603C307.021 16.0053 308.198 17.25 308.893 18.7946ZM335.274 27.2219V44.2486H325.544V0.957476H335.274V18.506C335.862 17.2755 336.766 16.223 337.893 15.4557C338.141 15.2831 338.397 15.1222 338.66 14.9734C339.961 14.2419 341.405 13.8028 342.893 13.6864C343.258 13.6553 343.624 13.6402 343.99 13.641C347.465 13.641 350.12 14.7315 351.953 16.9126C353.026 18.2109 353.793 19.7347 354.197 21.3705C354.535 22.6725 354.705 24.111 354.705 25.6859V44.2486H345.002V27.2793C345.006 26.7647 344.959 26.2509 344.864 25.7452C344.744 25.1324 344.546 24.5861 344.271 24.1064C344.143 23.8824 343.995 23.6701 343.83 23.4718C343.342 22.8953 342.689 22.4815 341.96 22.2857C341.55 22.1671 341.098 22.0966 340.604 22.0742C340.487 22.0689 340.37 22.0663 340.254 22.0663C339.71 22.0616 339.168 22.1308 338.643 22.2719C337.891 22.4751 337.204 22.8686 336.648 23.4145C336.079 23.9798 335.677 24.6902 335.484 25.4685C335.361 25.9297 335.292 26.4351 335.276 26.9847C335.274 27.0638 335.274 27.1429 335.274 27.2219ZM73.0032 31.5077V14.3645H82.7332V44.2486H73.2918V39.7888C72.738 40.9265 71.9354 41.9251 70.9433 42.7106C70.5898 42.9953 70.2188 43.2574 69.8323 43.4954C68.3913 44.3791 66.749 44.8812 65.0602 44.9543C64.8409 44.9662 64.6214 44.9721 64.4019 44.9721C63.342 44.9814 62.2848 44.864 61.2528 44.6222C59.3894 44.2054 57.7168 43.1828 56.4964 41.7142C54.857 39.7308 53.9661 37.1154 53.8237 33.8681C53.8103 33.5546 53.8037 33.2409 53.804 32.9271V14.3645H63.534V31.4504C63.526 32.1117 63.5943 32.7718 63.7377 33.4174C64.249 35.5801 65.7158 36.6614 68.1381 36.6614C69.6827 36.6614 70.8794 36.2127 71.7281 35.3152C72.4951 34.5047 72.9162 33.3917 72.9913 31.9763C72.9994 31.8202 73.0033 31.664 73.0032 31.5077ZM175.426 18.7946V0.957476H185.156V44.2486H175.774V39.7888C175.032 41.0337 174.031 42.1048 172.84 42.93C172.547 43.1367 172.246 43.3306 171.937 43.5112C170.599 44.2834 169.11 44.7581 167.572 44.9029C167.112 44.9498 166.65 44.9729 166.188 44.9721C164.241 44.9945 162.309 44.6429 160.495 43.9362C158.593 43.1664 156.885 41.9881 155.489 40.4846C152.909 37.7613 151.412 34.1895 151.279 30.4402C151.257 30.063 151.247 29.6853 151.247 29.3075C151.227 27.3548 151.536 25.4126 152.162 23.5628C152.87 21.5344 154.005 19.6814 155.489 18.1284C156.793 16.7239 158.37 15.6016 160.124 14.8307C161.878 14.0599 163.772 13.657 165.688 13.6469C165.855 13.6426 166.021 13.6406 166.188 13.641C167.166 13.6346 168.141 13.7387 169.096 13.9513C170.093 14.1758 171.051 14.5497 171.937 15.0603C172.712 15.5018 173.418 16.0553 174.032 16.7031C174.609 17.3185 175.08 18.0253 175.426 18.7946ZM227.636 44.2486H207.048V2.72281H226.798C228.789 2.70597 230.756 3.15195 232.545 4.02555C234.312 4.89537 235.736 6.1454 236.817 7.77564C237.899 9.41028 238.464 11.3329 238.438 13.293C238.461 15.2051 237.9 17.0788 236.831 18.6641C235.815 20.1674 234.396 21.354 232.737 22.088C232.621 22.1407 232.504 22.1914 232.387 22.2403C233.771 22.4873 235.118 22.914 236.392 23.5094C239.426 24.9736 241.183 27.361 241.662 30.6715C241.754 31.3225 241.799 31.9792 241.797 32.6365C241.797 35.8997 240.465 38.6508 237.801 40.8899C235.881 42.486 233.571 43.5428 231.108 43.952C229.962 44.1541 228.8 44.2534 227.636 44.2486ZM136.189 18.7946V14.3645H145.745V44.2486H136.361V39.7888C135.619 41.0337 134.619 42.1048 133.428 42.93C133.136 43.1366 132.835 43.3305 132.526 43.5112C131.188 44.2834 129.699 44.7581 128.161 44.9029C127.702 44.9498 127.24 44.9729 126.777 44.9721C124.831 44.9945 122.898 44.6429 121.084 43.9362C119.182 43.1667 117.473 41.9883 116.077 40.4846C113.496 37.7613 111.999 34.1895 111.866 30.4402C111.845 30.063 111.834 29.6853 111.834 29.3075C111.815 27.3546 112.125 25.4125 112.752 23.5628C113.459 21.5346 114.593 19.6816 116.077 18.1284C117.38 16.7239 118.958 15.6016 120.712 14.8307C122.466 14.0599 124.359 13.657 126.275 13.6469C126.443 13.6426 126.61 13.6406 126.777 13.641C127.83 13.6341 128.88 13.7529 129.905 13.9948C130.857 14.2228 131.773 14.5813 132.627 15.0603C133.367 15.4696 134.048 15.9784 134.649 16.5726C135.294 17.2133 135.816 17.9663 136.189 18.7946ZM269.886 18.7946V14.3645H279.442V44.2486H270.06V39.7888C269.318 41.0337 268.317 42.1048 267.126 42.93C266.833 43.1367 266.532 43.3306 266.223 43.5112C264.885 44.2831 263.397 44.7578 261.86 44.9029C261.4 44.9498 260.938 44.9729 260.476 44.9721C258.529 44.9948 256.595 44.6431 254.781 43.9362C252.879 43.1664 251.171 41.9881 249.775 40.4846C247.195 37.7613 245.698 34.1895 245.565 30.4402C245.543 30.063 245.533 29.6853 245.533 29.3075C245.513 27.3546 245.824 25.4125 246.45 23.5628C247.158 21.5346 248.291 19.6816 249.775 18.1284C251.078 16.7239 252.656 15.6016 254.41 14.8307C256.164 14.0599 258.058 13.657 259.974 13.6469C260.141 13.6426 260.309 13.6406 260.476 13.641C261.529 13.6341 262.579 13.7529 263.603 13.9948C264.555 14.2228 265.472 14.5813 266.325 15.0603C267.066 15.4696 267.746 15.9784 268.348 16.5726C268.991 17.2134 269.513 17.9665 269.886 18.7946ZM412.3 44.2486H402.572V0.957476H412.3V44.2486ZM109.025 13.7556V23.4284H107.086C104.392 23.4284 102.465 24.0372 101.306 25.255C101.302 25.2589 101.298 25.2629 101.294 25.2668C100.209 26.416 99.6327 28.3151 99.5641 30.9641C99.5592 31.1453 99.5565 31.3265 99.5562 31.5077V44.2486H89.8262V14.3645H99.2676V19.9827C100.387 15.8313 103.331 13.7556 108.1 13.7556H109.025ZM398.17 13.7556V23.4284H396.23C393.536 23.4284 391.61 24.0372 390.45 25.255C390.446 25.2589 390.442 25.2629 390.438 25.2668C389.352 26.416 388.775 28.3151 388.706 30.9641C388.702 31.1453 388.7 31.3265 388.7 31.5077V44.2486H378.97V14.3645H388.41V19.9827C389.53 15.8313 392.474 13.7556 397.242 13.7556H398.17ZM371.557 44.2486H361.827V14.3645H371.557V44.2486ZM429.416 44.2486H419.686V14.3645H429.416V44.2486ZM128.717 36.8927C129.606 36.9024 130.489 36.76 131.33 36.4716C132.328 36.1174 133.229 35.5329 133.959 34.7656C135.095 33.5865 135.797 32.0577 135.952 30.4284C135.994 30.0563 136.016 29.682 136.015 29.3075C136.015 27.0868 135.33 25.2668 133.959 23.8474C132.702 22.5356 130.976 21.7745 129.16 21.7302C129.012 21.7234 128.864 21.7201 128.717 21.7204C127.813 21.7104 126.915 21.8659 126.068 22.179C125.113 22.5449 124.256 23.126 123.563 23.8771C122.401 25.115 121.7 26.7146 121.576 28.408C121.549 28.7071 121.535 29.0072 121.535 29.3075C121.527 30.2053 121.658 31.0989 121.924 31.9565C122.254 32.9949 122.814 33.9452 123.563 34.7359C124.184 35.4071 124.936 35.9442 125.772 36.3144C126.609 36.6846 127.512 36.8801 128.426 36.8887C128.523 36.8916 128.62 36.893 128.717 36.8927ZM168.129 36.8927C169.018 36.9024 169.902 36.76 170.743 36.4716C171.74 36.1171 172.64 35.5327 173.37 34.7656C174.506 33.5868 175.209 32.058 175.365 30.4284C175.406 30.0562 175.427 29.682 175.426 29.3075C175.426 27.0868 174.741 25.2668 173.37 23.8474C172.113 22.5361 170.388 21.775 168.572 21.7302C168.425 21.7234 168.277 21.7201 168.129 21.7204C167.226 21.7104 166.328 21.8659 165.48 22.179C164.525 22.5446 163.667 23.1257 162.974 23.8771C161.812 25.115 161.11 26.7146 160.987 28.408C160.96 28.7071 160.947 29.0072 160.947 29.3075C160.939 30.2052 161.07 31.0988 161.335 31.9565C161.664 32.9949 162.224 33.9452 162.974 34.7359C163.595 35.4073 164.347 35.9446 165.184 36.3148C166.02 36.685 166.924 36.8803 167.839 36.8887C167.936 36.8916 168.032 36.893 168.129 36.8927ZM262.415 36.8927C263.304 36.9024 264.188 36.76 265.029 36.4716C266.027 36.1174 266.928 35.5329 267.658 34.7656C268.793 33.5865 269.495 32.0577 269.651 30.4284C269.693 30.0563 269.714 29.682 269.714 29.3075C269.714 27.0868 269.028 25.2668 267.658 23.8474C266.4 22.5356 264.675 21.7745 262.858 21.7302C262.711 21.7234 262.563 21.7201 262.415 21.7204C261.512 21.7104 260.614 21.8659 259.766 22.179C258.812 22.5449 257.955 23.126 257.262 23.8771C256.099 25.115 255.398 26.7146 255.275 28.408C255.247 28.7071 255.233 29.0072 255.233 29.3075C255.225 30.2053 255.357 31.0989 255.623 31.9565C255.952 32.9949 256.512 33.9452 257.262 34.7359C257.883 35.4071 258.635 35.9442 259.471 36.3144C260.307 36.6846 261.21 36.8801 262.125 36.8887C262.221 36.8916 262.318 36.893 262.415 36.8927ZM296.455 33.621C297.482 34.6681 298.837 35.3334 300.294 35.5069C300.706 35.5632 301.121 35.591 301.537 35.5899C302.37 35.5983 303.199 35.4796 303.996 35.2381C305.018 34.921 305.948 34.3615 306.707 33.6072C307.948 32.3924 308.666 30.7413 308.709 29.0051C308.716 28.8641 308.719 28.7231 308.719 28.582C308.719 26.5551 308.053 24.8853 306.72 23.5727C305.636 22.5081 304.224 21.8402 302.713 21.6769C302.323 21.6276 301.93 21.6032 301.537 21.6037C300.768 21.5969 300.001 21.6974 299.26 21.9022C298.196 22.1986 297.228 22.7699 296.455 23.5588C295.375 24.6556 294.712 26.0942 294.579 27.6272C294.545 27.9444 294.529 28.2631 294.529 28.582C294.522 29.3928 294.638 30.2 294.873 30.976C295.181 31.9716 295.723 32.8788 296.455 33.621ZM226.102 26.9906H217.009V36.2561H226.391C226.981 36.2613 227.57 36.1882 228.141 36.0387C228.917 35.8344 229.632 35.4474 230.228 34.9099C230.755 34.4475 231.165 33.8669 231.424 33.2157C231.625 32.6889 231.726 32.129 231.721 31.5651C231.727 31.0163 231.633 30.4711 231.444 29.9559C231.184 29.2776 230.743 28.6831 230.171 28.2361C229.178 27.4374 227.887 27.0229 226.296 26.9926C226.232 26.9913 226.167 26.9907 226.102 26.9906ZM217.009 19.1129H223.902C224.372 19.1163 224.842 19.0692 225.302 18.9725C225.916 18.8394 226.453 18.6101 226.913 18.2846C227.066 18.1761 227.212 18.0565 227.348 17.9268C228.178 17.1347 228.593 16.0824 228.593 14.7697C228.602 14.1821 228.469 13.6011 228.206 13.0756C227.963 12.6107 227.627 12.2014 227.217 11.8737C226.64 11.4074 225.963 11.0813 225.239 10.9208C224.74 10.8035 224.198 10.7449 223.612 10.7449H217.009V19.1129ZM371.879 7.62738C372.153 6.94296 372.289 6.21153 372.281 5.47458C372.281 5.44427 372.281 5.41396 372.281 5.38365C372.285 4.67379 372.145 3.97051 371.868 3.31662C371.592 2.66273 371.186 2.07193 370.674 1.58018C370.152 1.06062 369.53 0.653556 368.845 0.384189C368.158 0.122988 367.427 -0.00709333 366.692 0.000679956C366.686 0.000672046 366.68 0.000672046 366.674 0.000679956C365.947 -0.0108479 365.226 0.12431 364.552 0.398076C363.878 0.671841 363.267 1.07859 362.754 1.59402C362.733 1.61496 362.712 1.63605 362.691 1.65728C362.186 2.1547 361.788 2.74961 361.52 3.40585C361.252 4.06208 361.121 4.76593 361.133 5.47458C361.133 5.52334 361.133 5.57211 361.133 5.62087C361.134 6.3274 361.279 7.02639 361.557 7.67567C361.836 8.32495 362.243 8.91106 362.754 9.39863C363.272 9.91201 363.887 10.3162 364.563 10.5872C365.24 10.8582 365.964 10.9905 366.692 10.9762C366.72 10.9763 366.748 10.9763 366.775 10.9762C367.497 10.9848 368.214 10.8498 368.883 10.579C369.552 10.3082 370.161 9.90694 370.674 9.39863C371.193 8.89713 371.603 8.29422 371.879 7.62738ZM429.738 7.62738C430.011 6.94296 430.148 6.21153 430.139 5.47458C430.139 5.44427 430.139 5.41396 430.139 5.38365C430.143 4.67379 430.003 3.97051 429.727 3.31662C429.451 2.66273 429.044 2.07193 428.532 1.58018C428.01 1.06039 427.387 0.653317 426.701 0.384189C426.015 0.123231 425.285 -0.0068461 424.551 0.000679956C424.545 0.000672046 424.539 0.000672046 424.533 0.000679956C423.806 -0.0108479 423.084 0.12431 422.411 0.398076C421.737 0.671841 421.126 1.07859 420.613 1.59402C420.592 1.61496 420.57 1.63605 420.55 1.65728C420.044 2.15453 419.645 2.74937 419.377 3.40561C419.109 4.06186 418.977 4.76578 418.99 5.47458C418.99 5.52335 418.991 5.57212 418.992 5.62087C418.993 6.3274 419.137 7.02639 419.416 7.67567C419.694 8.32495 420.101 8.91106 420.613 9.39863C421.13 9.91201 421.745 10.3162 422.422 10.5872C423.098 10.8582 423.822 10.9905 424.551 10.9762C424.578 10.9763 424.606 10.9763 424.634 10.9762C425.356 10.9848 426.072 10.8498 426.741 10.579C427.411 10.3082 428.019 9.90694 428.532 9.39863C429.051 8.89713 429.462 8.29422 429.738 7.62738Z" fill="white"/>
</svg>
