<svg width="520" height="57" viewBox="0 0 520 57" fill="none" xmlns="http://www.w3.org/2000/svg">
<path fill-rule="evenodd" clip-rule="evenodd" d="M30.2918 27.626V2.73995H40.4582V44.5271H31.4903L10.1943 19.7007V44.5271H0V2.73995H8.9978L30.2918 27.626ZM75.6298 44.5271H65.8144V0.963504H75.6298V29.0245L85.182 14.4549H96.0184L85.7942 29.4323L96.5748 44.5271H85.1242L75.6298 30.2778V44.5271ZM446.241 27.3933V44.5271H436.425V0.963504H446.241V18.6225C446.834 17.3843 447.746 16.3251 448.883 15.553C449.133 15.3793 449.392 15.2174 449.657 15.0676C450.969 14.3316 452.426 13.8897 453.926 13.7726C454.294 13.7413 454.664 13.726 455.033 13.7268C458.538 13.7268 461.215 14.8243 463.066 17.0191C464.149 18.3255 464.923 19.8589 465.329 21.505C465.671 22.8153 465.842 24.2628 465.842 25.8476V44.5271H456.054V27.451C456.058 26.9331 456.011 26.4162 455.915 25.9073C455.794 25.2906 455.594 24.7409 455.316 24.2582C455.187 24.0328 455.038 23.8191 454.872 23.6196C454.379 23.0395 453.721 22.6231 452.985 22.426C452.572 22.3067 452.116 22.2357 451.617 22.2132C451.5 22.2079 451.382 22.2052 451.264 22.2052C450.716 22.2005 450.169 22.2701 449.639 22.4121C448.88 22.6165 448.187 23.0125 447.627 23.5619C447.053 24.1307 446.647 24.8456 446.452 25.6288C446.329 26.093 446.259 26.6016 446.243 27.1546C446.241 27.2341 446.24 27.3137 446.241 27.3933ZM208.601 33.8903L215.086 14.4549H225.194L213.159 44.5271L208.601 57H198.378L203.577 43.3335L192.039 14.4549H202.145L208.601 33.8903ZM503.408 33.8903L509.891 14.4549H520L507.965 44.5271L503.408 57H493.184L498.383 43.3335L486.845 14.4549H496.951L503.408 33.8903ZM382.967 18.9129V0.963504H392.782V44.5271H383.318V40.0393C382.569 41.2922 381.559 42.3701 380.357 43.2002C380.062 43.4082 379.759 43.6033 379.447 43.7851C378.097 44.5622 376.596 45.0398 375.044 45.1856C374.58 45.2328 374.114 45.256 373.648 45.2552C371.684 45.2778 369.735 44.9239 367.905 44.2128C365.987 43.4382 364.263 42.2524 362.856 40.7395C360.252 37.9993 358.741 34.405 358.606 30.6319C358.585 30.2523 358.575 29.8722 358.576 29.492C358.556 27.527 358.868 25.5726 359.499 23.7111C360.214 21.67 361.358 19.8053 362.856 18.2425C364.17 16.8292 365.762 15.6998 367.531 14.9241C369.301 14.1484 371.211 13.743 373.144 13.7328C373.312 13.7285 373.48 13.7265 373.648 13.7268C374.635 13.7204 375.619 13.8252 376.582 14.0392C377.588 14.265 378.554 14.6413 379.447 15.1551C380.23 15.5993 380.942 16.1564 381.561 16.8083C382.143 17.4275 382.618 18.1387 382.967 18.9129ZM430.933 26.0227H421.409C421.044 25.0756 420.47 24.2225 419.73 23.5261C418.875 22.745 417.807 22.2377 416.525 22.0043C415.949 21.903 415.364 21.8537 414.778 21.8571C414.042 21.8501 413.308 21.9445 412.597 22.1376C411.444 22.4509 410.415 23.1107 409.651 24.0274C408.747 25.1126 408.16 26.4251 407.954 27.821C407.867 28.3737 407.824 28.9325 407.827 29.492C407.827 31.6869 408.435 33.5077 409.651 34.9546C410.869 36.4015 412.578 37.1249 414.778 37.1249C415.652 37.1358 416.523 37.0185 417.363 36.7768C419.257 36.2065 420.606 34.9341 421.409 32.9594H430.933C430.294 36.1845 428.582 39.1002 426.076 41.2348C425.901 41.3887 425.723 41.5392 425.543 41.6864C423.145 43.6335 420.223 44.8313 417.145 45.1299C416.379 45.2146 415.608 45.2565 414.836 45.2552C409.794 45.2552 405.748 43.7791 402.7 40.827C399.652 37.8736 398.129 34.0952 398.129 29.492C398.109 27.5999 398.404 25.7176 399.002 23.922C399.756 21.7329 401.024 19.7556 402.7 18.155C404.932 16.0114 407.762 14.59 410.818 14.0769C412.144 13.8377 413.489 13.7205 414.836 13.7268C416.643 13.7114 418.441 13.958 420.177 14.4589C422.138 15.0359 423.963 16.0007 425.543 17.2956C427.016 18.4763 428.266 19.9099 429.234 21.5289C430.051 22.9206 430.625 24.4399 430.933 26.0227ZM290.628 35.1436H298.72C298.752 35.541 298.834 35.9327 298.966 36.3093C299.156 36.8589 299.484 37.3507 299.919 37.7376C300.297 38.0662 300.742 38.3086 301.223 38.4478C301.559 38.5499 301.928 38.6169 302.33 38.6487C302.519 38.6635 302.708 38.6708 302.898 38.6706C303.26 38.6729 303.621 38.6396 303.977 38.5712C304.41 38.485 304.797 38.3424 305.136 38.1435C305.267 38.0659 305.393 37.9788 305.513 37.8829C305.792 37.6639 306.026 37.3913 306.198 37.0812C306.396 36.7096 306.496 36.2942 306.49 35.8737C306.503 35.4845 306.416 35.0984 306.235 34.7532C306.054 34.408 305.787 34.1154 305.459 33.9043C305.086 33.651 304.612 33.452 304.037 33.3075L299.919 32.2313C296.997 31.5125 294.869 30.4389 293.535 29.0106C292.706 28.1098 292.123 27.0118 291.84 25.8218C291.652 25.0791 291.55 24.2694 291.535 23.3928C291.534 23.3179 291.533 23.243 291.533 23.168C291.52 22.0325 291.716 20.9042 292.113 19.8399C292.664 18.4348 293.59 17.2072 294.792 16.291C296.44 15.0063 298.399 14.1799 300.471 13.8959C301.255 13.7807 302.046 13.7242 302.838 13.7268C306.11 13.7268 308.705 14.5816 310.624 16.291C312.261 17.7534 313.357 19.7232 313.735 21.8829C313.813 22.2891 313.871 22.6987 313.91 23.1103H305.848C305.832 22.7245 305.752 22.3439 305.61 21.9844C305.485 21.6719 305.308 21.3822 305.088 21.127C304.781 20.7741 304.371 20.5258 303.915 20.4168C303.669 20.3532 303.399 20.3187 303.106 20.3134C303.075 20.3124 303.044 20.3118 303.014 20.3114C302.755 20.3101 302.497 20.3314 302.242 20.3751C301.749 20.4626 301.344 20.641 301.028 20.9102C300.649 21.2317 300.408 21.6847 300.352 22.1774C300.335 22.3027 300.327 22.4289 300.328 22.5553C300.316 22.9865 300.433 23.4115 300.663 23.7768C301.03 24.3391 301.696 24.7283 302.663 24.9445L307.979 26.3728C312.849 27.6353 315.284 30.4813 315.284 34.9109C315.303 36.8523 314.693 38.7478 313.545 40.3158C312.388 41.9177 310.825 43.1849 309.016 43.988C307.131 44.8383 305.083 45.2707 303.014 45.2552C302.01 45.2595 301.007 45.187 300.014 45.0384C298.999 44.8869 298.002 44.6275 297.041 44.2645C295.308 43.5977 293.803 42.4506 292.702 40.9583C291.961 39.9648 291.413 38.8422 291.085 37.6481C290.855 36.8292 290.702 35.9908 290.628 35.1436ZM262.119 2.0059C259.687 2.17867 257.297 2.72626 255.033 3.62916C254.345 3.90632 253.67 4.21634 253.011 4.55816C251.145 5.51377 249.45 6.76997 247.994 8.27616C246.114 10.2389 244.648 12.5412 243.597 15.183C242.536 17.8738 242.001 20.7422 242.019 23.6335C242.019 24.0694 242.03 24.5052 242.051 24.9405C242.187 28.311 243.091 31.6064 244.694 34.5766C245.176 35.4638 245.726 36.3124 246.339 37.115C248.013 39.2793 250.106 41.0862 252.493 42.4284C255.911 44.3912 259.839 45.3726 264.279 45.3726C265.294 45.3741 266.308 45.3203 267.318 45.2114C270.401 44.9018 273.385 43.9539 276.08 42.4284C276.187 42.3676 276.293 42.3059 276.399 42.2434C279.557 40.4191 282.154 37.7678 283.909 34.5766C284.523 33.455 285.035 32.2805 285.439 31.0675C286.224 28.668 286.615 26.1576 286.598 23.6335C286.616 20.7422 286.081 17.8738 285.02 15.183C283.969 12.5412 282.493 10.2389 280.595 8.27616C279.846 7.50423 279.031 6.79869 278.16 6.1675C276.725 5.13517 275.169 4.28267 273.526 3.62916C272.505 3.21812 271.456 2.88235 270.387 2.62457C268.386 2.14927 266.335 1.91419 264.279 1.92433C263.558 1.92387 262.837 1.95108 262.119 2.0059ZM178.718 18.9129V14.4549H188.358V44.5271H178.893V40.0393C178.145 41.292 177.136 42.3699 175.934 43.2002C175.639 43.4082 175.335 43.6034 175.022 43.7851C173.673 44.5622 172.171 45.0398 170.619 45.1856C170.155 45.2328 169.69 45.256 169.223 45.2552C167.26 45.2778 165.31 44.9239 163.48 44.2128C161.562 43.4382 159.838 42.2524 158.431 40.7395C155.828 37.999 154.317 34.4048 154.183 30.6319C154.162 30.2523 154.151 29.8722 154.151 29.492C154.132 27.5268 154.444 25.5725 155.076 23.7111C155.79 21.6702 156.934 19.8055 158.431 18.2425C159.745 16.8292 161.337 15.6998 163.106 14.9241C164.876 14.1484 166.786 13.743 168.719 13.7328C168.887 13.7285 169.055 13.7265 169.223 13.7268C170.285 13.7199 171.344 13.8395 172.378 14.0829C173.339 14.3123 174.263 14.6731 175.124 15.1551C175.871 15.5668 176.559 16.0789 177.166 16.677C177.816 17.3218 178.341 18.0796 178.718 18.9129ZM343.384 18.9129V14.4549H353.024V44.5271H343.56V40.0393C342.811 41.292 341.802 42.3699 340.6 43.2002C340.305 43.4082 340.001 43.6034 339.689 43.7851C338.34 44.5619 336.839 45.0396 335.288 45.1856C334.824 45.2328 334.358 45.256 333.892 45.2552C331.928 45.278 329.977 44.9241 328.147 44.2128C326.229 43.4382 324.505 42.2524 323.097 40.7395C320.494 37.999 318.984 34.4048 318.85 30.6319C318.828 30.2523 318.818 29.8722 318.818 29.492C318.798 27.5268 319.111 25.5725 319.743 23.7111C320.457 21.6702 321.6 19.8055 323.097 18.2425C324.412 16.8292 326.003 15.6998 327.773 14.9241C329.542 14.1484 331.453 13.743 333.385 13.7328C333.554 13.7285 333.723 13.7265 333.892 13.7268C334.954 13.7199 336.013 13.8395 337.047 14.0829C338.007 14.3123 338.931 14.6731 339.793 15.1551C340.539 15.567 341.226 16.079 341.833 16.677C342.482 17.3218 343.008 18.0796 343.384 18.9129ZM148.601 44.5271H138.786V0.963504H148.601V44.5271ZM114.566 13.8084C112.777 13.9553 111.02 14.3697 109.354 15.0378C107.203 15.9117 105.436 17.0868 104.053 18.5628C102.68 20.0236 101.595 21.7289 100.854 23.5898C100.105 25.465 99.7296 27.4324 99.7296 29.492C99.7296 31.5503 100.105 33.517 100.854 35.3923C101.595 37.2531 102.68 38.9584 104.053 40.4192C104.715 41.1231 105.452 41.7528 106.251 42.2971C107.223 42.9557 108.263 43.5079 109.354 43.9442C110.187 44.2818 111.046 44.5532 111.922 44.7559C113.413 45.0954 114.938 45.2629 116.467 45.2552C117.102 45.2559 117.737 45.2287 118.369 45.1736C120.158 45.0265 121.915 44.6121 123.58 43.9442C125.733 43.0703 127.5 41.8953 128.883 40.4192C130.255 38.9584 131.341 37.2531 132.081 35.3923C132.831 33.517 133.206 31.5503 133.206 29.492C133.206 27.4324 132.831 25.465 132.081 23.5898C131.341 21.7289 130.255 20.0236 128.883 18.5628C128.221 17.8589 127.484 17.2292 126.685 16.6849C125.712 16.0262 124.671 15.474 123.58 15.0378C122.747 14.7003 121.889 14.4289 121.014 14.2261C119.522 13.8865 117.997 13.719 116.467 13.7268C115.833 13.7262 115.198 13.7534 114.566 13.8084ZM58.3362 44.5271H48.5207V14.4549H58.3362V44.5271ZM482.842 44.5271H473.027V14.4549H482.842V44.5271ZM259.036 35.5673C260.272 36.1346 261.598 36.484 262.954 36.5998C263.395 36.64 263.836 36.6599 264.279 36.6594C265.372 36.6655 266.462 36.5359 267.523 36.2735C268.211 36.1014 268.88 35.8649 269.523 35.5673C270.463 35.1374 271.337 34.5775 272.12 33.9043C272.568 33.5156 272.98 33.0868 273.35 32.6232C274.334 31.3898 275.093 30.0013 275.628 28.4576C276.163 26.9126 276.431 25.3045 276.431 23.6335C276.431 21.944 276.163 20.3267 275.628 18.7816C275.093 17.2379 274.334 15.8587 273.35 14.6439C272.542 13.6566 271.556 12.8293 270.443 12.205C270.143 12.0338 269.836 11.8752 269.523 11.7296C268.287 11.1622 266.961 10.8129 265.605 10.6971C265.164 10.6568 264.721 10.6369 264.279 10.6375C263.193 10.6318 262.111 10.758 261.056 11.0134C260.362 11.1837 259.686 11.4188 259.036 11.7157C258.1 12.1375 257.228 12.6886 256.445 13.3528C255.995 13.7396 255.581 14.1672 255.209 14.63C254.217 15.8691 253.455 17.2751 252.96 18.7816C252.44 20.3466 252.179 21.9851 252.186 23.6335C252.178 25.2774 252.439 26.9116 252.96 28.4715C253.475 30.0059 254.225 31.3898 255.209 32.6232C256.054 33.6736 257.101 34.5454 258.288 35.1874C258.533 35.3225 258.782 35.4493 259.036 35.5673ZM171.182 37.1249C172.078 37.1347 172.97 36.9914 173.818 36.7012C174.824 36.3445 175.732 35.7564 176.468 34.9845C177.614 33.7982 178.323 32.2598 178.48 30.6199C178.522 30.2454 178.543 29.8689 178.542 29.492C178.542 27.2574 177.851 25.4259 176.468 23.9976C175.2 22.678 173.46 21.9121 171.628 21.867C171.48 21.8601 171.331 21.8568 171.182 21.8571C170.27 21.8471 169.364 22.0035 168.509 22.3186C167.546 22.6866 166.681 23.2713 165.981 24.0274C164.808 25.2731 164.101 26.8828 163.977 28.5869C163.949 28.8878 163.936 29.1898 163.937 29.492C163.928 30.3954 164.06 31.2946 164.328 32.1577C164.66 33.2026 165.225 34.1589 165.981 34.9546C166.608 35.6302 167.366 36.1709 168.21 36.5434C169.054 36.916 169.966 37.1125 170.888 37.121C170.986 37.1239 171.084 37.1252 171.182 37.1249ZM335.848 37.1249C336.745 37.1347 337.636 36.9914 338.484 36.7012C339.491 36.3445 340.399 35.7564 341.135 34.9845C342.281 33.7982 342.99 32.2598 343.147 30.6199C343.189 30.2454 343.21 29.8689 343.209 29.492C343.209 27.2574 342.517 25.4259 341.135 23.9976C339.867 22.678 338.127 21.9121 336.295 21.867C336.146 21.8601 335.997 21.8568 335.848 21.8571C334.937 21.8471 334.031 22.0035 333.176 22.3186C332.213 22.6868 331.349 23.2716 330.649 24.0274C329.477 25.2731 328.769 26.8828 328.645 28.5869C328.617 28.8878 328.603 29.1898 328.603 29.492C328.595 30.3955 328.728 31.2947 328.996 32.1577C329.328 33.2026 329.893 34.1589 330.649 34.9546C331.276 35.63 332.034 36.1705 332.878 36.543C333.722 36.9156 334.633 37.1122 335.555 37.121C335.653 37.1239 335.75 37.1252 335.848 37.1249ZM375.606 37.1249C376.502 37.1345 377.393 36.9912 378.241 36.7012C379.248 36.3448 380.156 35.7566 380.893 34.9845C382.039 33.7982 382.748 32.2598 382.905 30.6199C382.947 30.2454 382.968 29.8689 382.967 29.492C382.967 27.2574 382.276 25.4259 380.893 23.9976C379.624 22.6775 377.884 21.9116 376.051 21.867C375.903 21.8602 375.755 21.8569 375.606 21.8571C374.694 21.8468 373.788 22.0033 372.932 22.3186C371.969 22.6868 371.105 23.2716 370.406 24.0274C369.233 25.2731 368.526 26.8828 368.401 28.5869C368.374 28.8878 368.361 29.1898 368.362 29.492C368.353 30.3954 368.485 31.2946 368.752 32.1577C369.084 33.2026 369.65 34.1589 370.406 34.9546C371.032 35.6302 371.791 36.1709 372.635 36.5434C373.479 36.916 374.39 37.1125 375.313 37.121C375.411 37.1239 375.509 37.1252 375.606 37.1249ZM111.166 34.9109C112.131 36.043 113.476 36.7867 114.949 37.0036C115.451 37.0865 115.959 37.1271 116.467 37.1249C117.222 37.1326 117.974 37.0389 118.704 36.8464C119.901 36.5313 120.972 35.8554 121.769 34.9109C122.853 33.6325 123.5 32.0431 123.616 30.3733C123.641 30.0802 123.654 29.7862 123.654 29.492C123.662 28.5464 123.522 27.6054 123.239 26.703C122.929 25.7372 122.429 24.8426 121.769 24.0712C120.804 22.9386 119.459 22.1949 117.984 21.9784C117.483 21.8955 116.975 21.8549 116.467 21.8571C115.713 21.8497 114.961 21.9433 114.231 22.1356C113.034 22.4507 111.964 23.1267 111.166 24.0712C110.082 25.3493 109.435 26.9387 109.318 28.6088C109.293 28.9025 109.281 29.1972 109.282 29.492C109.273 30.4368 109.412 31.3772 109.695 32.279C110.005 33.245 110.506 34.1396 111.166 34.9109ZM58.6612 7.67539C58.937 6.98667 59.0745 6.25063 59.066 5.50905C59.0662 5.47854 59.0662 5.44804 59.066 5.41754C59.0703 4.70322 58.9287 3.9955 58.65 3.3375C58.3713 2.6795 57.9612 2.08497 57.4447 1.59013C56.9183 1.06707 56.2898 0.65743 55.5981 0.386608C54.9054 0.124007 54.1695 -0.00688919 53.4284 0.000684236C53.4225 0.000676277 53.4165 0.000676277 53.4105 0.000684236C52.6772 -0.0109162 51.949 0.125093 51.2695 0.400582C50.5901 0.676071 49.9733 1.08538 49.456 1.60406C49.4346 1.62513 49.4133 1.64634 49.3922 1.66771C48.8825 2.1681 48.4802 2.76668 48.2097 3.42705C47.9392 4.08743 47.8062 4.79579 47.8188 5.50905C47.8189 5.55812 47.8196 5.60719 47.8208 5.65625C47.8218 6.36723 47.9673 7.07062 48.2483 7.72399C48.5294 8.37736 48.9402 8.96716 49.456 9.4578C49.9777 9.97441 50.5983 10.3811 51.2807 10.6538C51.9631 10.9265 52.6935 11.0597 53.4284 11.0453C53.4564 11.0454 53.4843 11.0454 53.5122 11.0453C54.2405 11.054 54.9632 10.9181 55.6383 10.6456C56.3135 10.3731 56.9275 9.9693 57.4447 9.4578C57.9684 8.95314 58.3825 8.34644 58.6612 7.67539ZM483.167 7.67539C483.443 6.98667 483.581 6.25063 483.572 5.50905C483.572 5.47854 483.572 5.44804 483.572 5.41754C483.576 4.70322 483.435 3.9955 483.156 3.3375C482.877 2.6795 482.467 2.08497 481.951 1.59013C481.424 1.06707 480.796 0.65743 480.104 0.386608C479.411 0.124007 478.676 -0.00688919 477.934 0.000684236C477.928 0.000676277 477.923 0.000676277 477.917 0.000684236C477.183 -0.0109162 476.455 0.125093 475.776 0.400582C475.096 0.676071 474.479 1.08538 473.962 1.60406C473.941 1.62513 473.919 1.64634 473.898 1.66771C473.389 2.16827 472.987 2.76692 472.717 3.42729C472.447 4.08765 472.314 4.79593 472.327 5.50905C472.326 5.55812 472.326 5.60719 472.327 5.65625C472.328 6.36723 472.473 7.07062 472.754 7.72399C473.035 8.37736 473.446 8.96716 473.962 9.4578C474.484 9.97441 475.104 10.3811 475.787 10.6538C476.469 10.9265 477.199 11.0597 477.934 11.0453C477.962 11.0454 477.99 11.0454 478.018 11.0453C478.747 11.054 479.469 10.9181 480.144 10.6456C480.82 10.3731 481.434 9.9693 481.951 9.4578C482.474 8.95314 482.889 8.34644 483.167 7.67539Z" fill="white"/>
</svg>
