<svg width="331" height="39" viewBox="0 0 331 39" fill="none" xmlns="http://www.w3.org/2000/svg">
<path fill-rule="evenodd" clip-rule="evenodd" d="M158.105 1.83621L169.18 19.9229L180.253 1.83621H184.824V29.8442H178.261V16.2895L169.18 30.2349L160.097 16.2895V29.8442H153.535V1.83621H158.105ZM282.539 12.6762V9.68821H288.984V29.4535C288.984 31.1727 288.492 32.7353 287.509 34.1415C286.692 35.2987 285.63 36.2608 284.397 36.9589C284.088 37.1376 283.771 37.3022 283.447 37.4522C282.06 38.0881 280.573 38.4753 279.052 38.5962C278.601 38.6348 278.148 38.654 277.695 38.6535C276.622 38.6595 275.551 38.5626 274.497 38.3642C273.2 38.1127 272.033 37.6962 270.995 37.1149C270.837 37.0262 270.681 36.9333 270.528 36.8362C268.613 35.6255 267.298 33.8287 266.583 31.4455H273.105C273.779 32.7353 275.049 33.45 276.916 33.5895C277.149 33.6062 277.383 33.6142 277.617 33.6135C278.133 33.6174 278.647 33.5615 279.149 33.4469C279.853 33.2888 280.512 32.9719 281.075 32.5202C281.773 31.9537 282.23 31.1438 282.355 30.2535C282.4 29.9696 282.423 29.6824 282.421 29.3949V26.2122C282.128 26.7082 281.754 27.152 281.315 27.5255C280.968 27.826 280.57 28.1042 280.121 28.3602C280.074 28.3869 280.027 28.4131 279.98 28.4389C278.93 29.0076 277.761 29.3201 276.568 29.3509C276.462 29.3545 276.356 29.3563 276.249 29.3562C275.101 29.3679 273.958 29.1978 272.863 28.8522C271.441 28.3908 270.158 27.5803 269.131 26.4949C267.531 24.8287 266.574 22.6494 266.429 20.3442C266.401 19.9894 266.386 19.6335 266.387 19.2775C266.375 18.0619 266.558 16.8522 266.931 15.6949C267.381 14.3335 268.133 13.0914 269.131 12.0615C270.96 10.154 273.333 9.20021 276.251 9.20021C276.953 9.19582 277.654 9.27595 278.337 9.43888C278.974 9.59249 279.586 9.83439 280.156 10.1575C281.276 10.7949 282.07 11.6344 282.539 12.6762ZM223.164 18.3602V29.8442H216.601V9.68821H222.969V12.6762C223.328 11.9397 223.846 11.2925 224.487 10.7815C224.757 10.5629 225.042 10.3642 225.341 10.1869C226.386 9.56656 227.573 9.22797 228.788 9.20421C228.873 9.20159 228.958 9.20025 229.043 9.20021C231.387 9.20021 233.177 9.93577 234.415 11.4069C235.138 12.2826 235.655 13.3104 235.927 14.4135C236.155 15.2918 236.269 16.2624 236.269 17.3255V29.8442H229.727V18.3989C229.729 18.0518 229.698 17.7053 229.633 17.3642C229.552 16.9509 229.419 16.5824 229.233 16.2589C229.147 16.1078 229.047 15.9646 228.936 15.8309C228.606 15.4418 228.166 15.1627 227.673 15.0309C227.397 14.9509 227.092 14.9033 226.759 14.8882C226.68 14.8851 226.602 14.8838 226.524 14.8842C226.171 14.8809 225.819 14.9216 225.476 15.0055C224.945 15.1343 224.459 15.4064 224.072 15.7922C223.705 16.1648 223.443 16.6281 223.313 17.1349C223.23 17.4451 223.181 17.7842 223.168 18.1522C223.165 18.2215 223.164 18.2909 223.164 18.3602ZM123.965 17.4415H117.597C117.353 16.8068 116.969 16.235 116.475 15.7682C115.903 15.2447 115.189 14.9047 114.332 14.7482C113.946 14.6803 113.556 14.6473 113.164 14.6495C112.671 14.6449 112.181 14.7081 111.705 14.8375C110.934 15.0475 110.247 15.4898 109.736 16.1042C109.132 16.8316 108.739 17.7112 108.601 18.6469C108.543 19.0173 108.514 19.3919 108.516 19.7669C108.516 21.238 108.923 22.4584 109.736 23.4282C110.55 24.3989 111.693 24.8842 113.164 24.8842C113.748 24.8914 114.33 24.8127 114.891 24.6509C116.158 24.2678 117.06 23.4144 117.597 22.0909H123.965C123.538 24.2526 122.393 26.2068 120.717 27.6375C120.601 27.7407 120.482 27.8416 120.361 27.9402C118.758 29.2452 116.805 30.0481 114.747 30.2482C114.234 30.305 113.719 30.3331 113.203 30.3322C109.83 30.3322 107.125 29.3429 105.088 27.3642C103.05 25.3847 102.031 22.8522 102.031 19.7669C102.018 18.4986 102.215 17.237 102.616 16.0335C103.12 14.5663 103.967 13.241 105.088 12.1682C106.581 10.7314 108.473 9.77876 110.516 9.43488C111.402 9.27454 112.302 9.19598 113.203 9.20021C114.41 9.18985 115.613 9.35513 116.773 9.69088C118.085 10.0776 119.305 10.7242 120.361 11.5922C121.346 12.3836 122.182 13.3444 122.829 14.4295C123.375 15.3623 123.759 16.3807 123.965 17.4415ZM93.2613 23.5549H99.2973C98.6983 25.3174 97.5869 26.8611 96.1053 27.9882C95.9138 28.1378 95.7178 28.2814 95.5173 28.4189C93.6622 29.6944 91.4978 30.3322 89.024 30.3322C85.7129 30.3322 83.0884 29.4335 81.1507 27.6362C81.0684 27.5599 80.9875 27.4821 80.908 27.4029C79.3406 25.8342 78.348 23.7828 78.0907 21.5802C78.0084 20.9659 77.9678 20.3467 77.9693 19.7269C77.9572 18.5077 78.1349 17.2941 78.496 16.1295C78.9795 14.6093 79.8357 13.2342 80.9867 12.1295C82.6604 10.5085 84.8363 9.50593 87.156 9.28688C87.6788 9.22831 88.2046 9.19937 88.7307 9.20021C89.9357 9.18948 91.1362 9.3502 92.296 9.67754C93.8637 10.1256 95.296 10.9547 96.4653 12.0909C98.4573 14.018 99.4533 16.5895 99.4533 19.8055V21.7589H84.4147C84.5252 22.3563 84.7267 22.9332 85.012 23.4695C85.6467 24.6224 86.6667 25.3002 88.072 25.5029C88.3874 25.5469 88.7055 25.5683 89.024 25.5669C89.4739 25.5695 89.9229 25.5262 90.364 25.4375C90.7821 25.3524 91.1879 25.2153 91.572 25.0295C91.9503 24.8492 92.3006 24.6153 92.612 24.3349C92.863 24.1057 93.0815 23.8433 93.2613 23.5549ZM307.852 23.5549H313.887C313.288 25.3174 312.176 26.8611 310.695 27.9882C310.504 28.1378 310.308 28.2814 310.108 28.4189C308.252 29.6944 306.087 30.3322 303.613 30.3322C300.302 30.3322 297.678 29.4335 295.74 27.6362C295.658 27.5599 295.578 27.4821 295.499 27.4029C293.931 25.8344 292.938 23.7829 292.68 21.5802C292.598 20.9659 292.557 20.3467 292.559 19.7269C292.547 18.5077 292.724 17.2941 293.085 16.1295C293.569 14.6093 294.425 13.2342 295.576 12.1295C297.25 10.5083 299.427 9.50564 301.747 9.28688C302.269 9.22836 302.794 9.19942 303.32 9.20021C304.526 9.18936 305.726 9.35008 306.887 9.67754C308.454 10.1258 309.886 10.9548 311.055 12.0909C313.047 14.018 314.043 16.5895 314.043 19.8055V21.7589H299.004C299.115 22.3563 299.316 22.9332 299.601 23.4695C300.237 24.6224 301.257 25.3002 302.661 25.5029C302.977 25.5469 303.295 25.5683 303.613 25.5669C304.063 25.5695 304.512 25.5262 304.953 25.4375C305.372 25.3525 305.778 25.2154 306.163 25.0295C306.54 24.8491 306.89 24.6151 307.201 24.3349C307.453 24.1058 307.672 23.8434 307.852 23.5549ZM13.164 22.5989H6.816V29.8442H0V1.83621H13.164C14.4971 1.82562 15.8203 2.06485 17.0653 2.54154C17.5419 2.72709 18.0037 2.94861 18.4467 3.20421C20.0289 4.11532 21.2662 5.3651 22.1587 6.95354C23.0003 8.46346 23.4578 10.1572 23.4907 11.8855C23.4942 12.006 23.496 12.1264 23.496 12.2469C23.5112 13.6286 23.26 15.0003 22.756 16.2869C22.2494 17.5366 21.4947 18.6705 20.5373 19.6202C18.5649 21.606 16.1071 22.5989 13.164 22.5989ZM139.921 24.5709V29.7669C139.81 29.8114 139.696 29.8502 139.58 29.8829C139.24 29.9807 138.787 30.0722 138.223 30.1575C137.802 30.2211 137.378 30.2683 136.953 30.2989C136.648 30.3208 136.341 30.3319 136.035 30.3322C135.356 30.3375 134.678 30.2754 134.012 30.1469C132.642 29.8704 131.556 29.2878 130.752 28.3989C130.097 27.6608 129.621 26.7809 129.363 25.8282C129.176 25.1758 129.062 24.4593 129.021 23.6789C129.01 23.4555 129.004 23.2319 129.004 23.0082V15.0789H125.508V9.68821H129.004V3.65354H135.547V9.68821H140.117V15.0789H135.547V22.5989C135.542 22.904 135.58 23.2083 135.66 23.5029C135.924 24.4238 136.648 24.8842 137.832 24.8842C138.54 24.8831 139.244 24.7775 139.921 24.5709ZM205.371 12.6762V9.68821H211.816V29.8442H205.488V26.8362C204.988 27.6763 204.313 28.3993 203.509 28.9562C203.312 29.0951 203.109 29.2255 202.9 29.3469C201.998 29.8677 200.993 30.1879 199.956 30.2855C199.646 30.3171 199.335 30.3327 199.024 30.3322C197.711 30.3475 196.407 30.1103 195.183 29.6335C193.9 29.1143 192.748 28.3196 191.807 27.3055C190.066 25.4687 189.056 23.0597 188.967 20.5309C188.952 20.2765 188.945 20.0217 188.945 19.7669C188.932 18.4497 189.141 17.1398 189.564 15.8922C190.041 14.5243 190.806 13.2744 191.807 12.2269C192.686 11.2796 193.75 10.5226 194.933 10.0027C196.116 9.4828 197.393 9.21104 198.685 9.20421C198.798 9.20132 198.911 9.19999 199.024 9.20021C199.734 9.1956 200.442 9.27572 201.133 9.43888C201.776 9.59262 202.393 9.83447 202.969 10.1575C203.469 10.4336 203.927 10.7768 204.333 11.1775C204.768 11.6098 205.119 12.1176 205.371 12.6762ZM256.231 12.6762V9.68821H262.676V29.8442H256.348V26.8362C255.847 27.6765 255.172 28.3994 254.368 28.9562C254.171 29.0951 253.968 29.2255 253.76 29.3469C252.858 29.8677 251.853 30.1879 250.816 30.2855C250.506 30.3172 250.194 30.3328 249.883 30.3322C248.57 30.3473 247.266 30.1102 246.043 29.6335C244.76 29.1143 243.608 28.3196 242.667 27.3055C240.926 25.4689 239.915 23.0599 239.825 20.5309C239.812 20.2764 239.805 20.0217 239.805 19.7669C239.792 18.4498 240 17.1399 240.423 15.8922C240.9 14.5241 241.665 13.2743 242.667 12.2269C243.546 11.2796 244.61 10.5226 245.793 10.0027C246.976 9.4828 248.253 9.21104 249.545 9.20421C249.658 9.20133 249.77 9.2 249.883 9.20021C250.593 9.1956 251.301 9.27572 251.992 9.43888C252.634 9.59262 253.252 9.83447 253.828 10.1575C254.327 10.4336 254.786 10.7768 255.192 11.1775C255.627 11.6096 255.979 12.1175 256.231 12.6762ZM67.832 9.68821H74.3947V32.1682C74.4007 32.8737 74.3147 33.577 74.1387 34.2602C73.8884 35.231 73.3988 36.1235 72.7147 36.8562C72.0262 37.5815 71.1495 38.1009 70.1827 38.3562C69.6147 38.5171 68.9907 38.6127 68.3107 38.6429C68.1512 38.65 67.9916 38.6535 67.832 38.6535C67.4216 38.6544 67.0112 38.6441 66.6013 38.6229C65.7347 38.5758 65.0249 38.4753 64.472 38.3215V32.9695C64.9357 33.1269 65.4223 33.2062 65.912 33.2042C65.9138 33.2042 65.9156 33.2042 65.9173 33.2042C66.169 33.2076 66.42 33.178 66.664 33.1162C67.3031 32.9447 67.68 32.5215 67.7947 31.8469C67.8205 31.6887 67.833 31.5285 67.832 31.3682V9.68821ZM39.824 9.27754V15.8015H38.516C36.6991 15.8015 35.3996 16.2122 34.6173 17.0335C34.6147 17.0362 34.612 17.0389 34.6093 17.0415C33.8769 17.8167 33.488 19.0975 33.4427 20.8842C33.4393 21.0064 33.4375 21.1286 33.4373 21.2509V29.8442H26.8747V9.68821H33.2427V13.4775C33.9973 10.6775 35.9827 9.27754 39.1987 9.27754H39.824ZM330.781 9.27754V15.8015H329.472C327.655 15.8015 326.356 16.2122 325.575 17.0335C325.572 17.0362 325.569 17.0389 325.567 17.0415C324.834 17.8167 324.445 19.0975 324.399 20.8842C324.396 21.0064 324.394 21.1286 324.395 21.2509V29.8442H317.832V9.68821H324.199V13.4775C324.954 10.6775 326.94 9.27754 330.156 9.27754H330.781ZM51.6387 9.25488C50.4426 9.35347 49.2682 9.63124 48.1547 10.0789C46.7156 10.6647 45.5338 11.4522 44.6093 12.4415C43.6915 13.4207 42.966 14.5636 42.4707 15.8109C41.9693 17.0678 41.7187 18.3864 41.7187 19.7669C41.7187 21.1464 41.9693 22.4647 42.4707 23.7215C42.966 24.9688 43.6915 26.1118 44.6093 27.0909C45.0518 27.5627 45.5445 27.9847 46.0787 28.3495C46.729 28.791 47.425 29.1612 48.1547 29.4535C48.7115 29.6798 49.2852 29.8617 49.8707 29.9975C50.8678 30.2252 51.8879 30.3375 52.9107 30.3322C53.3348 30.3327 53.7588 30.3144 54.1813 30.2775C55.3778 30.1791 56.5527 29.9013 57.6667 29.4535C59.1049 28.8678 60.2862 28.0802 61.2107 27.0909C62.1285 26.1118 62.854 24.9688 63.3493 23.7215C63.8507 22.4647 64.1013 21.1464 64.1013 19.7669C64.1013 18.3864 63.8507 17.0678 63.3493 15.8109C62.854 14.5636 62.1285 13.4207 61.2107 12.4415C60.7681 11.9702 60.2754 11.5486 59.7413 11.1842C59.0915 10.7423 58.3959 10.3718 57.6667 10.0789C57.1094 9.8526 56.5352 9.6707 55.9493 9.53488C54.9526 9.30734 53.933 9.19505 52.9107 9.20021C52.4861 9.19973 52.0617 9.21797 51.6387 9.25488ZM6.816 16.7589H12.2067C13.4956 16.7589 14.5636 16.342 15.4107 15.5082C16.109 14.8191 16.5439 13.9072 16.64 12.9309C16.6668 12.7039 16.6802 12.4755 16.68 12.2469C16.6851 11.7037 16.6036 11.1631 16.4387 10.6455C16.2321 10.0129 15.88 9.43746 15.4107 8.96554C15.0182 8.56393 14.5504 8.24367 14.034 8.02311C13.5176 7.80255 12.9628 7.68603 12.4013 7.68021C12.3365 7.67776 12.2716 7.67643 12.2067 7.67621H6.816V16.7589ZM200.332 24.8842C200.932 24.8903 201.528 24.7938 202.095 24.5989C202.768 24.3598 203.375 23.9656 203.867 23.4482C204.633 22.6531 205.107 21.622 205.212 20.5229C205.24 20.2719 205.254 20.0195 205.253 19.7669C205.253 18.2691 204.791 17.0415 203.867 16.0842C203.019 15.1997 201.856 14.6864 200.631 14.6562C200.531 14.6516 200.432 14.6494 200.332 14.6495C199.723 14.6428 199.117 14.7477 198.545 14.9589C197.902 15.2057 197.324 15.5976 196.856 16.1042C196.072 16.9389 195.598 18.0179 195.515 19.1602C195.497 19.3619 195.488 19.5644 195.488 19.7669C195.482 20.3724 195.57 20.9751 195.749 21.5535C195.972 22.2541 196.35 22.895 196.856 23.4282C197.275 23.8809 197.782 24.2432 198.346 24.4929C198.91 24.7425 199.519 24.8744 200.136 24.8802C200.201 24.8826 200.267 24.884 200.332 24.8842ZM251.192 24.8842C251.791 24.8902 252.387 24.7937 252.953 24.5989C253.627 24.36 254.234 23.9658 254.727 23.4482C255.493 22.6531 255.967 21.622 256.072 20.5229C256.1 20.2719 256.114 20.0195 256.113 19.7669C256.113 18.2691 255.651 17.0415 254.727 16.0842C253.878 15.1994 252.715 14.6861 251.489 14.6562C251.39 14.6516 251.291 14.6494 251.192 14.6495C250.582 14.6427 249.976 14.7475 249.404 14.9589C248.76 15.2057 248.182 15.5976 247.715 16.1042C246.931 16.9391 246.458 18.018 246.375 19.1602C246.357 19.3619 246.348 19.5644 246.348 19.7669C246.342 20.3724 246.43 20.9751 246.609 21.5535C246.831 22.2539 247.209 22.8949 247.715 23.4282C248.134 23.8809 248.641 24.2432 249.205 24.4929C249.769 24.7425 250.378 24.8744 250.995 24.8802C251.06 24.8826 251.126 24.884 251.192 24.8842ZM49.3653 23.3989C50.0105 24.1577 50.9094 24.6562 51.8947 24.8015C52.2304 24.8576 52.5703 24.8853 52.9107 24.8842C53.4151 24.8888 53.9178 24.8255 54.4053 24.6962C55.2057 24.485 55.9214 24.0319 56.4547 23.3989C57.179 22.5421 57.6114 21.4768 57.6893 20.3575C57.7062 20.1611 57.7147 19.964 57.7147 19.7669C57.7207 19.1332 57.6276 18.5024 57.4387 17.8975C57.2309 17.2501 56.8964 16.6505 56.4547 16.1335C55.8095 15.3747 54.9106 14.8763 53.9253 14.7309C53.59 14.6753 53.2506 14.6481 52.9107 14.6495C52.4059 14.6444 51.9027 14.7072 51.4147 14.8362C50.6143 15.0474 49.8986 15.5005 49.3653 16.1335C48.641 16.9904 48.2086 18.0557 48.1307 19.1749C48.1137 19.3718 48.1053 19.5693 48.1053 19.7669C48.0998 20.4002 48.1934 21.0305 48.3827 21.6349C48.59 22.2822 48.9241 22.8818 49.3653 23.3989ZM274.151 22.6762C274.844 23.3825 275.757 23.8311 276.74 23.9482C277.018 23.9862 277.298 24.0049 277.579 24.0042C278.14 24.0098 278.7 23.9298 279.237 23.7669C279.926 23.5529 280.553 23.1755 281.064 22.6669C281.901 21.8475 282.386 20.7339 282.415 19.5629C282.419 19.4678 282.421 19.3727 282.421 19.2775C282.421 17.9104 281.972 16.7842 281.075 15.8989C280.343 15.1806 279.39 14.7301 278.371 14.6202C278.108 14.5871 277.843 14.5706 277.579 14.5709C277.059 14.5662 276.542 14.6339 276.041 14.7722C275.324 14.9723 274.672 15.3577 274.151 15.8895C273.422 16.6297 272.975 17.6005 272.885 18.6349C272.863 18.8484 272.852 19.0629 272.852 19.2775C272.847 19.8243 272.924 20.3688 273.083 20.8922C273.29 21.5639 273.657 22.1758 274.151 22.6762ZM74.628 5.07221C74.7886 4.63006 74.868 4.16258 74.8627 3.69221C74.8628 3.67577 74.8628 3.65932 74.8627 3.64288C74.8675 3.163 74.7749 2.68713 74.5904 2.24411C74.4059 1.80109 74.1334 1.40014 73.7893 1.06554C73.4351 0.709446 73.0099 0.431877 72.5413 0.250878C72.0848 0.0801555 71.6007 -0.00482405 71.1133 0.000211352C70.0716 0.000211352 69.1827 0.358434 68.4467 1.07488C68.4296 1.09162 68.4128 1.10851 68.396 1.12554C68.0554 1.45938 67.7864 1.85917 67.6055 2.30048C67.4247 2.74179 67.3357 3.21535 67.344 3.69221C67.3441 3.7251 67.3445 3.758 67.3453 3.79088C67.3462 4.26812 67.4443 4.74018 67.6337 5.17826C67.823 5.61633 68.0997 6.01124 68.4467 6.33888C69.1827 7.04821 70.0716 7.40288 71.1133 7.40288C71.1631 7.40277 71.2129 7.40188 71.2627 7.40021C72.2097 7.39173 73.1161 7.01434 73.7893 6.34821C74.1598 5.99013 74.4462 5.55433 74.628 5.07221ZM84.4147 17.7162H93.184C93.1288 17.2576 93.0173 16.8075 92.852 16.3762C92.627 15.786 92.2694 15.2555 91.8067 14.8255C91.2588 14.3247 90.5792 13.9907 89.848 13.8629C89.505 13.7996 89.1568 13.7688 88.808 13.7709C88.3845 13.7676 87.9619 13.8114 87.548 13.9015C86.956 14.0349 86.4427 14.2713 86.008 14.6109C85.9369 14.6664 85.868 14.7247 85.8013 14.7855C85.3623 15.1923 85.0197 15.692 84.7987 16.2482C84.6431 16.6269 84.5258 17.0469 84.4467 17.5082C84.435 17.5774 84.4244 17.6467 84.4147 17.7162ZM299.004 17.7162H307.773C307.719 17.2577 307.608 16.8076 307.443 16.3762C307.217 15.7859 306.859 15.2553 306.396 14.8255C305.848 14.3247 305.169 13.9907 304.437 13.8629C304.095 13.7997 303.747 13.7689 303.399 13.7709C302.975 13.7676 302.553 13.8114 302.139 13.9015C301.546 14.0349 301.032 14.2713 300.597 14.6109C300.526 14.6664 300.457 14.7247 300.391 14.7855C299.952 15.1924 299.61 15.6922 299.389 16.2482C299.233 16.6269 299.115 17.0469 299.036 17.5082C299.024 17.5774 299.014 17.6467 299.004 17.7162Z" fill="#56CE62"/>
</svg>
