<svg width="149" height="432" viewBox="0 0 149 432" fill="none" xmlns="http://www.w3.org/2000/svg">
<path fill-rule="evenodd" clip-rule="evenodd" d="M0 191.061C0 191.061 0 191.062 0 191.062C0.000229667 195.745 7.02748 197.32 9.09147 192.669L9.51089 191.724H16.2681H23.0242L23.0717 199.419L23.1182 207.113L31.6082 207.16L40.0981 207.207L40.2106 206.642C40.2733 206.332 40.3241 200.055 40.3241 192.694V179.31L47.9352 179.262L55.5474 179.216L55.6372 147.807L55.728 116.4L63.3402 116.354L70.9524 116.306L70.907 58.6677L70.8616 1.02923L70.1211 0.975233L69.3818 0.920157L69.265 1.76897C69.2012 2.2355 69.1493 27.6514 69.1493 58.2487C69.1504 88.846 69.1504 114.022 69.1504 114.195C69.1493 114.49 68.678 114.51 61.7782 114.51C57.7234 114.51 54.2773 114.56 54.1206 114.619C53.8622 114.719 53.8363 117.66 53.8363 146.115V177.502L46.224 177.548L38.6118 177.596L38.5221 191.454L38.4324 205.313L31.633 205.36L24.8337 205.408L24.7861 197.711L24.7397 190.015L17.0658 189.967L9.39198 189.921L9.18767 189.239C7.79754 184.606 0.78958 185.435 0.0566791 190.319C0.0183716 190.575 1.17356e-05 190.822 0 191.061ZM149 288.82L147.971 288.827L147.925 322.174L147.88 355.521L148.376 355.7C148.595 355.779 148.803 355.869 149 355.967V358.027C148.813 357.863 148.598 357.72 148.352 357.604C147.733 357.31 146.402 357.231 145.899 357.459C142.58 358.961 144.232 364.005 147.735 363.062C148.242 362.926 148.665 362.676 149 362.354V364.473C148.415 364.727 147.74 364.871 146.98 364.871C141.834 364.871 140.496 357.162 145.397 355.758L145.989 355.589L146.035 321.352L146.08 287.117H149V288.82ZM149 224.758V226.568C147.261 226.539 146.139 226.514 146.124 226.502C146.1 226.479 146.079 218.525 146.079 208.825V191.189L138.467 191.141L130.856 191.095L130.765 175.345L130.675 159.597H116.263H101.849L101.759 175.345L101.669 191.095L94.0572 191.141L86.4449 191.189V208.699C86.4449 222.079 86.3941 226.261 86.2288 226.425C86.0677 226.587 84.0992 226.641 78.4814 226.641H70.9492L70.9957 241.803L71.0411 256.964L71.9426 257.387C77.3734 259.936 74.3218 267.928 68.5743 266.207C64.553 265.003 64.4028 258.822 68.3581 257.312L69.1483 257.011L69.1937 240.972L69.2402 224.932L76.8967 224.842L84.5532 224.751L84.5997 207.07L84.6451 189.389L92.2563 189.341L99.8674 189.295L99.9139 173.734C99.9388 165.176 100.027 158.105 100.111 158.022C100.193 157.939 103.506 157.876 107.472 157.883C111.438 157.888 114.816 157.843 114.977 157.781C115.245 157.678 115.271 156.37 115.271 142.66V127.653L107.659 127.606L100.048 127.559L99.9571 108.764L99.8674 89.968L99.3507 89.8298C95.2441 88.7326 95.15 82.373 99.221 80.9194C100.68 80.3989 102.54 80.6883 103.774 81.6278C106.628 83.8028 105.902 88.6062 102.547 89.7585L101.849 89.9983L101.803 107.925L101.757 125.852L116.216 125.805L130.675 125.76V107.943V90.1278L129.775 89.7045C124.296 87.13 127.58 78.7898 133.225 80.9431C137.241 82.4766 137.264 88.6354 133.257 89.7833L132.657 89.9551L132.567 108.758L132.477 127.559L124.82 127.65L117.163 127.739L117.117 142.723C117.092 150.964 117.092 157.725 117.117 157.747C117.142 157.77 120.609 157.83 124.82 157.882L132.477 157.977L132.567 173.636L132.657 189.295L140.223 189.384L147.79 189.475L147.881 207.113L147.971 224.751L149 224.758ZM149 137.372L147.881 137.365L147.885 143.981L147.89 150.598L149 151.135V153.165C148.832 153.008 148.646 152.874 148.444 152.77C145.834 151.421 143.124 154.074 144.39 156.738C145.236 158.52 147.64 158.661 149 157.472V159.627C148.414 159.894 147.741 160.047 146.989 160.047C141.883 160.047 140.514 152.762 145.279 150.943L146.079 150.639V144.004V137.369H139.247H132.414L132.211 137.984C130.564 142.969 123.117 141.728 123.117 136.468C123.117 131.334 129.696 129.911 132.047 134.536L132.574 135.573L139.282 135.525L145.989 135.479L146.035 112.479L146.08 89.4799L145.313 89.1516C141.24 87.4065 141.385 81.5069 145.533 80.2293C146.863 79.8196 148.042 79.949 149 80.4193V82.5693C148.752 82.3411 148.455 82.1473 148.111 82.0004C146.167 81.1689 144.098 82.5717 144.098 84.7229C144.098 87.36 147.132 88.6624 148.978 86.8179C148.986 86.8106 148.993 86.8033 149 86.796V88.9882C148.892 89.0426 148.78 89.0946 148.665 89.144L147.881 89.4788V112.526V135.573L149 135.565V137.372ZM7.6689 37.1881C7.69269 17.498 7.75322 1.28301 7.80186 1.15342C7.86132 0.996831 8.14994 0.936355 8.658 0.973073L9.42549 1.02923L9.51629 37.0099L9.60601 72.9917L10.167 73.1872C15.1103 74.915 13.8694 82.306 8.63962 82.2887C3.39905 82.2714 2.01865 74.9258 6.936 73.225L7.62458 72.9874L7.6689 37.1881ZM23.0285 55.6914C23.0285 25.7097 23.0858 1.12102 23.1571 1.05083C23.2274 0.979552 23.6122 0.946075 24.0122 0.975233L24.7397 1.02923L24.8294 55.5942L24.9202 110.16L26.0747 110.761C29.9251 112.761 29.4214 118.265 25.2769 119.468C19.565 121.128 16.7815 112.878 22.261 110.532L23.0285 110.204V55.6914ZM38.4324 53.3685L38.4778 27.1535L38.5232 0.938515H39.3144C39.8744 0.938515 40.1371 1.02275 40.216 1.22793C40.2776 1.38776 40.3251 12.9893 40.3241 27.011C40.3219 41.0326 40.3208 52.6774 40.3219 52.889C40.323 53.1741 40.5759 53.3955 41.3099 53.7551C45.8889 55.9927 44.3918 62.7195 39.3144 62.7195C34.1625 62.7195 32.8816 55.2886 37.7438 53.6072L38.4324 53.3685ZM53.7898 45.1255C53.8146 21.0703 53.8741 1.28301 53.9238 1.15342C53.9822 0.996831 54.2708 0.936355 54.7799 0.973073L55.5474 1.02923V45.8458V90.6624L47.9352 90.7088L40.3241 90.7564V121.247C40.3241 138.017 40.2743 151.866 40.2149 152.022C40.1154 152.279 38.601 152.307 24.9461 152.311C16.6075 152.312 9.70546 152.373 9.60601 152.447C9.50656 152.52 9.17795 153.065 8.87527 153.658C6.43335 158.44 -1.03511 155.805 0.136671 150.576C1.18089 145.914 7.203 145.425 9.15957 149.843L9.53359 150.69L23.983 150.643L38.4324 150.598L38.5221 119.82L38.6118 89.0425L46.1786 88.9518L53.7455 88.8622L53.7898 45.1255ZM84.644 65.9139V33.4268V0.938515H85.4353C85.9909 0.938515 86.259 1.02383 86.3358 1.22361C86.3963 1.3802 86.4449 15.5941 86.4449 32.8112V64.1137H93.1956H99.9474L100.41 63.1364C102.59 58.5305 109.398 59.9549 109.388 65.0144C109.378 70.1062 102.448 71.5295 100.383 66.8643L99.9625 65.9139H92.3027H84.644ZM99.9571 18.5239C99.9571 8.98391 100.016 1.12102 100.086 1.05083C100.157 0.979552 100.542 0.946075 100.942 0.975233L101.669 1.02923L101.715 18.4451L101.761 35.862L102.711 36.2821C107.38 38.3447 105.952 45.2745 100.859 45.2745C95.7089 45.2745 94.3458 38.2605 99.1021 36.2335L99.9571 35.8695V18.5239ZM130.765 35.8393V18.3889V9.50023H131.557C131.796 9.50023 131.976 9.47599 132.111 9.5422C132.591 9.77669 132.515 11.1457 132.567 18.7442V35.9797L133.311 36.2022C138.202 37.6654 136.743 45.3015 131.576 45.2778C126.344 45.254 125.082 38.3512 129.92 36.213L130.765 35.8393ZM146.185 31.0399C146.193 31.0342 146.201 31.0288 146.208 31.0218C146.278 30.9506 146.664 30.9171 147.064 30.9462L147.79 31.0002V33.4268V65.8243L140.167 65.8707L132.545 65.9183L132.184 66.7325C130.048 71.5565 123.117 70.2433 123.117 65.0144C123.117 59.7541 130.564 58.5133 132.211 63.4982L132.414 64.1137H139.247H146.079V32.646C146.008 31.1643 146.112 31.091 146.185 31.0399ZM102.856 42.7216C104.41 41.1708 103.974 38.7518 101.99 37.9041C100.062 37.0801 97.9454 38.5045 97.9454 40.6255C97.9454 43.24 101.023 44.5532 102.856 42.7216ZM131.912 43.5262C134.613 43.2216 135.528 39.9117 133.365 38.2637C130.889 36.3782 127.559 39.227 129.018 41.983C129.593 43.0693 130.705 43.6622 131.912 43.5262ZM40.59 60.6968C42.6709 59.6893 42.8849 57.0003 40.9954 55.591C39.9349 54.8005 37.9113 55.091 37.0736 56.1547C35.1419 58.6083 37.8022 62.0446 40.59 60.6968ZM105.774 67.7498C108.078 66.7314 108.329 63.7779 106.22 62.4928C104.462 61.4226 102.041 62.6396 101.808 64.7109C101.557 66.928 103.781 68.631 105.774 67.7498ZM129.898 66.9798C131.149 65.6677 130.885 63.5608 129.342 62.5392C127.521 61.334 124.82 62.7865 124.82 64.9712C124.82 67.7368 127.984 68.9885 129.898 66.9798ZM10.2081 80.1235C12.0382 79.0112 11.9052 75.9345 9.98759 75.0252C7.65485 73.9194 5.08213 75.9183 5.7318 78.3319C6.27012 80.3265 8.44288 81.1969 10.2081 80.1235ZM83.6982 89.0685C79.5224 87.2142 79.971 81.2617 84.3738 80.1116C89.9722 78.6483 92.5027 87.1959 87.0535 89.1646L86.4449 89.3849V112.477V135.569H93.2032H99.9625L100.382 134.624C102.463 129.934 109.378 131.349 109.388 136.468C109.398 141.642 102.363 142.947 100.306 138.152L99.9701 137.369H93.2054H86.4406L86.4882 144.066L86.5358 150.764L87.1649 150.945C90.9396 152.026 91.1245 157.905 87.4362 159.624C81.7719 162.264 78.0231 153.939 83.5847 151.069L84.5532 150.568V144.014V137.458H77.7971H71.0411L70.9957 166.481L70.9503 195.504L63.6991 195.506C59.7114 195.508 56.2663 195.558 56.0425 195.617L55.6372 195.727V209.738V223.751L56.5344 224.137C60.6821 225.92 60.2432 231.78 55.8674 233.051C50.3955 234.64 47.6823 226.55 52.8893 224.168L53.8363 223.735V208.81V193.884H61.3923C66.0588 193.884 68.9894 193.817 69.0564 193.71C69.1818 193.506 69.1947 140.592 69.0683 140.467C69.0207 140.42 68.6759 140.529 68.3008 140.708C65.1886 142.201 61.5825 139.925 61.5825 136.468C61.5825 133.028 65.1043 130.739 68.224 132.153C68.6553 132.348 69.0402 132.509 69.0791 132.509C69.118 132.509 69.1493 131.575 69.1493 130.433V128.356L68.3829 128.028C63.138 125.782 65.5086 117.862 71.08 119.018C75.7022 119.977 76.0708 126.665 71.5815 128.132L71.0411 128.309V131.894V135.479H77.7971H84.5532L84.5997 112.483L84.6451 89.4885L83.6982 89.0685ZM84.096 87.2779C87.2827 88.9615 90.0911 84.5306 87.2233 82.3449C86.3498 81.6796 85.1586 81.604 84.1036 82.1462C82.0129 83.2207 82.0086 86.1753 84.096 87.2779ZM100.722 88.2326C103.825 88.2326 105.005 84.4475 102.404 82.8416C101.556 82.3179 100.034 82.3352 99.2286 82.8784C96.8504 84.4788 97.8979 88.2326 100.722 88.2326ZM134.294 86.576C134.934 85.3525 134.276 83.3514 133.041 82.7661C130.954 81.7768 128.694 83.1289 128.694 85.3665C128.694 88.5101 132.818 89.4011 134.294 86.576ZM25.3612 117.531C27.4572 116.407 27.467 113.508 25.3774 112.404C22.8112 111.049 20.1704 113.507 21.2978 116.202C21.9151 117.679 23.8835 118.322 25.3612 117.531ZM71.8302 126.046C73.6819 124.726 73.3122 121.761 71.1848 120.873C67.9765 119.534 65.6816 124.007 68.4986 126.109C69.2434 126.664 71.0086 126.631 71.8302 126.046ZM67.6392 139.056C69.5904 138.131 69.6585 134.867 67.7484 133.88C65.9691 132.961 63.8991 133.842 63.3878 135.735C62.7338 138.163 65.2978 140.166 67.6392 139.056ZM107.626 136.956C107.914 135.644 106.883 133.957 105.57 133.593C102.824 132.831 100.608 136.12 102.419 138.27C104.059 140.218 107.076 139.457 107.626 136.956ZM127.774 139.347C130.984 139.345 131.832 135.086 128.887 133.75C127.455 133.1 126.009 133.595 125.214 135.007C124.103 136.981 125.499 139.349 127.774 139.347ZM6.18256 154.059C8.18453 152.939 8.13697 149.959 6.09933 148.933C4.6011 148.178 2.98504 148.643 2.18079 150.061C0.732288 152.617 3.61309 155.494 6.18256 154.059ZM85.418 158.246C88.7074 158.249 89.5571 154.014 86.5433 152.645C85.6785 152.253 85.4905 152.246 84.5781 152.571C81.4346 153.691 82.1092 158.244 85.418 158.246ZM0.793904 169.355C-0.831882 166.567 0.29017 163.412 3.28771 162.343C5.54046 161.54 8.03427 162.695 9.10876 165.041L9.54223 165.987H23.9992H38.4561L38.8626 165.005C41.1618 159.463 49.4064 162.601 47.679 168.361C46.4705 172.39 39.9165 172.467 38.7686 168.467L38.5988 167.877L24.0122 167.831L9.42549 167.786L9.07633 168.635C7.63539 172.139 2.6694 172.572 0.793904 169.355ZM7.37056 168.074C8.04833 166.584 7.51973 164.991 6.10041 164.24C5.66802 164.013 5.05727 163.827 4.74162 163.827C3.28663 163.827 1.76894 165.361 1.76894 166.832C1.76894 169.871 6.11554 170.836 7.37056 168.074ZM44.6772 169.368C46.8196 168.165 46.5472 164.895 44.2307 164.018C42.1812 163.243 40.1965 164.821 40.3608 167.096C40.5176 169.267 42.7563 170.446 44.6772 169.368ZM113.575 175.975C109.532 174.064 109.857 168.304 114.076 167.083C119.772 165.433 122.601 174.214 116.972 176.069C116.62 176.185 116.348 176.418 116.284 176.658C116.127 177.238 116.153 204.917 116.31 205.153C116.383 205.262 116.808 205.513 117.255 205.708C122.64 208.07 119.646 216.15 113.97 214.574C109.939 213.456 109.663 206.666 113.609 205.677C113.768 205.637 113.901 205.625 114.011 205.568C114.588 205.274 114.55 203.777 114.55 190.808V176.436L113.575 175.975ZM117.559 173.611C118.783 172.313 118.54 170.293 117.025 169.163C115.867 168.3 113.689 168.744 112.922 170C111.047 173.07 115.094 176.222 117.559 173.611ZM6.74143 192.966C8.20831 191.547 7.87861 189.137 6.09284 188.215C4.86377 187.58 3.158 188.014 2.33321 189.171C0.309627 192.009 4.23789 195.391 6.74143 192.966ZM115.379 212.962C118.493 212.964 119.46 208.756 116.658 207.4C115.433 206.809 114.38 206.993 113.33 207.985C111.419 209.791 112.725 212.96 115.379 212.962ZM37.5773 218.674C33.4793 216.789 33.7128 211.368 37.96 209.781C43.3616 207.761 46.5159 216.318 41.2191 218.623C40.7759 218.815 40.39 218.988 40.3608 219.006C40.3306 219.024 40.3122 227.147 40.3197 237.057C40.3262 246.966 40.2808 255.278 40.2181 255.525L40.1057 255.975L32.513 256.023L24.9202 256.069L24.8705 259.057L24.8207 262.045L25.9763 262.613C29.9002 264.543 29.4603 270.162 25.2899 271.374C19.7607 272.98 16.8291 265.018 22.0415 262.554L23.0285 262.089L23.0306 258.359C23.0328 256.308 23.0977 254.529 23.1755 254.407C23.2836 254.236 25.1039 254.173 30.8742 254.137L38.4324 254.09L38.4778 236.599L38.5242 219.11L37.5773 218.674ZM22.2621 220.438C18.4441 218.93 18.2787 213.679 21.9875 211.753C22.5496 211.461 23.075 211.352 23.9289 211.35C29.1046 211.335 30.5348 218.16 25.8206 220.375L24.9202 220.798L24.8737 234.696L24.8272 248.596L17.2172 248.644L9.60601 248.69V261.469V274.248H24.0143H38.4237L38.9069 273.242C41.0786 268.714 47.8801 270.073 47.8887 275.037C47.8985 280.256 40.9954 281.771 38.8918 277.012C38.8066 276.819 38.772 276.662 38.6915 276.533C38.2968 275.901 36.7983 275.958 22.8328 275.958H7.71431V261.488C7.71431 248.46 7.74241 247.008 7.99968 246.909C8.15642 246.85 11.6015 246.8 15.6562 246.8H23.0285V233.771V220.742L22.2621 220.438ZM40.6765 216.926C42.6309 215.93 42.8546 213.271 41.0959 211.932C39.6809 210.853 37.6314 211.341 36.7644 212.963C35.4229 215.474 38.134 218.222 40.6765 216.926ZM26.84 216.718C27.1935 215.541 26.5146 213.994 25.3991 213.435C23.3117 212.386 21.046 213.733 21.046 216.023C21.046 219.503 25.8325 220.078 26.84 216.718ZM56.0036 231.096C58.118 230.029 58.2174 227.335 56.1917 225.971C55.0383 225.194 53.1725 225.55 52.3499 226.704C50.5912 229.172 53.3185 232.451 56.0036 231.096ZM99.0502 236.701C94.8863 234.911 95.2927 229.227 99.6869 227.785C105.094 226.011 107.907 234.296 102.706 236.674L101.759 237.107V255.539V273.971L102.2 274.082C102.443 274.143 108.949 274.124 116.658 274.04L130.675 273.888L130.725 255.799C130.772 238.67 130.822 237.1 130.27 236.846C130.171 236.801 130.053 236.798 129.913 236.756C126.024 235.585 125.968 229.436 129.833 227.959C135.594 225.758 139.065 234.231 133.423 236.72L132.567 237.098L132.564 256.213C132.563 266.726 132.498 275.429 132.42 275.551C132.312 275.721 130.491 275.785 124.72 275.821L117.163 275.868V298.817V321.765L124.82 321.854L132.477 321.944L132.523 345.836L132.568 369.727L140.179 369.774L147.79 369.821V400.599V401.455H146.98H146.169H146.123L146.078 371.535L138.467 371.487L130.856 371.441L130.765 347.592L130.675 323.744H116.263H101.849L101.759 347.683L101.669 371.62L94.0572 371.668L86.4449 371.714L86.4428 401.545C86.4406 417.952 86.3714 431.483 86.2893 431.614C86.1942 431.762 85.8764 431.83 85.4364 431.793L84.7338 431.736V400.869V370L92.3449 369.954L99.9561 369.906L100.001 346.015L100.048 322.124L107.615 322.035L115.182 321.944V298.906V275.868L107.615 275.778L100.048 275.688L100.001 256.389L99.9561 237.091L99.0502 236.701ZM100.836 235.281C104.056 235.281 104.977 231.014 102.043 229.682C99.4934 228.526 97.0299 231.166 98.2546 233.744C98.6556 234.587 99.8199 235.281 100.836 235.281ZM131.712 235.281C134.738 235.281 135.624 230.94 132.854 229.685C131.517 229.078 130.379 229.338 129.375 230.482C127.681 232.408 129.08 235.281 131.712 235.281ZM52.9293 258.299C48.9621 256.595 49.201 250.718 53.2904 249.406C58.9385 247.593 61.9306 255.919 56.4933 258.319L55.6372 258.697V282.625V306.555H62.3933C68.7062 306.555 69.1504 306.535 69.1547 306.241C69.158 306.067 69.1547 302.094 69.1493 297.412C69.1439 292.729 69.1937 288.496 69.2585 288.005L69.3764 287.113L77.8663 287.16L86.3552 287.207L86.4006 321.354L86.446 355.503L87.353 355.892C91.9882 357.884 90.5472 364.85 85.498 364.868C80.3558 364.884 78.9484 358.285 83.5847 355.892L84.5532 355.392V322.109V288.827H77.7971H71.0411L70.9513 298.547L70.8616 308.266H62.3933H53.926L53.8806 283.477L53.8341 258.689L52.9293 258.299ZM54.7367 256.789C57.6629 256.789 58.7266 253.202 56.3268 251.427C55.768 251.013 54.3195 250.853 53.6557 251.133C50.6939 252.377 51.537 256.789 54.7367 256.789ZM72.3015 263.688C73.5338 262.224 73.1479 259.977 71.521 259.147C68.3484 257.528 65.6167 261.526 68.2229 263.974C69.2758 264.962 71.3502 264.816 72.3015 263.688ZM25.8509 269.067C27.4616 267.656 27.281 265.405 25.4726 264.347C23.4382 263.156 21.046 264.534 21.046 266.899C21.046 269.368 23.9916 270.699 25.8509 269.067ZM45.1906 277.284C46.6089 276.004 46.4229 273.88 44.7853 272.659C43.3757 271.608 40.8256 272.543 40.3922 274.272C39.6485 277.229 42.9541 279.302 45.1906 277.284ZM99.341 285.862C95.0279 284.44 95.2019 278.275 99.5961 276.835C105.057 275.045 107.963 283.719 102.589 285.77L101.759 286.086V298.215V310.345L102.254 310.524C107.382 312.378 106.257 319.695 100.844 319.695C95.7511 319.695 94.3577 312.885 99.0113 310.744L99.9571 310.309V298.187V286.065L99.341 285.862ZM129.779 285.746C125.747 283.839 126.073 278.167 130.29 276.863C135.679 275.197 138.77 283.245 133.654 285.623L132.57 286.128L132.569 298.226L132.567 310.325L133.464 310.711C138.113 312.709 136.716 319.687 131.666 319.687C126.431 319.687 125.057 312.298 129.978 310.608L130.675 310.368L130.722 298.292L130.768 286.214L129.779 285.746ZM6.76737 287.233C2.66399 285.415 3.11692 279.413 7.44406 278.275C13.0522 276.802 15.6497 285.017 10.3 287.309L9.51629 287.644V307.537V327.43L17.1274 327.478L24.7397 327.524V344.263V361.001L17.1274 361.048L9.51629 361.095V383.297V405.499L10.3508 405.818C15.1611 407.653 13.7245 414.922 8.5553 414.903C3.49634 414.885 2.09756 408.281 6.65495 405.929L7.62458 405.428L7.71431 382.405L7.80403 359.382L15.4163 359.335L23.0285 359.288V344.263V329.238L15.4163 329.19L7.80403 329.144L7.75863 308.398L7.71322 287.652L6.76737 287.233ZM102.124 284.012C104.263 282.933 104.347 280.027 102.275 278.85C100.344 277.753 97.9757 279.184 97.9757 281.447C97.9757 283.645 100.168 285 102.124 284.012ZM133.235 283.883C135.01 282.802 134.942 280.129 133.11 278.882C132.023 278.145 130.151 278.458 129.316 279.518C127.239 282.158 130.361 285.636 133.235 283.883ZM10.4178 285.199C11.9701 283.894 11.8696 281.635 10.2049 280.404C8.68178 279.277 6.14905 280.318 5.7145 282.25C5.11672 284.906 8.35208 286.935 10.4178 285.199ZM22.1194 292.857C18.07 291.116 18.5208 285.129 22.7885 283.948C28.429 282.39 31.1379 291.033 25.6088 292.945L24.9202 293.183V305.404V317.624L32.4773 317.672C38.2486 317.708 40.0679 317.771 40.176 317.942C40.2549 318.064 40.3198 323.803 40.3208 330.695L40.3241 343.224L41.0937 343.518C45.7776 345.305 44.6091 352.231 39.5631 352.593C34.369 352.966 32.7735 345.799 37.5481 343.542L38.5242 343.081L38.4788 331.253L38.4324 319.425L30.7747 319.335L23.1182 319.244L23.0717 306.245L23.0252 293.245L22.1194 292.857ZM26.9103 289.051C27.2227 287.771 26.1709 286.047 24.8575 285.682C22.7874 285.107 20.9487 286.584 21.0989 288.7C21.3443 292.123 26.092 292.41 26.9103 289.051ZM100.859 317.964C103.785 317.964 104.896 314.042 102.404 312.505C101.102 311.7 99.1388 312.188 98.3843 313.503C97.2147 315.542 98.5583 317.964 100.859 317.964ZM134.151 316.484C134.946 315.07 134.534 313.496 133.121 312.544C131.714 311.596 129.794 312.182 128.989 313.803C127.331 317.142 132.322 319.735 134.151 316.484ZM68.29 332.65C63.979 330.746 64.7022 324.357 69.3072 323.675C74.8828 322.848 77.088 330.941 71.7685 332.711L71.0411 332.954L70.9513 342.478L70.8616 352.003L63.2494 352.049L55.6372 352.096V358.644C55.6372 364.45 55.6696 365.204 55.9225 365.302C56.0793 365.362 59.5243 365.411 63.5791 365.411H70.9513V374.307V383.203L71.8983 383.637C77.3356 386.124 74.4429 394.174 68.7105 392.51C64.6071 391.318 64.2396 385.62 68.1419 383.712L69.1537 383.216L69.1061 375.169L69.0596 367.121L61.4463 367.074L53.8319 367.027L53.8795 358.704L53.926 350.383L61.5177 350.335L69.1083 350.289L69.1742 349.886C69.2099 349.663 69.2175 345.78 69.1915 341.255L69.1429 333.027L68.29 332.65ZM72.7933 329.455C73.4895 327.883 72.5923 325.906 70.9784 325.459C68.9234 324.888 67.0706 326.376 67.2209 328.476C67.4403 331.553 71.5448 332.275 72.7933 329.455ZM42.2569 348.255C42.3747 347.212 41.8028 345.957 40.9781 345.447C38.2475 343.762 35.2251 346.786 36.8995 349.53C38.3027 351.826 41.952 350.958 42.2569 348.255ZM87.0827 362.706C88.8847 361.599 88.835 358.972 86.9876 357.716C85.9055 356.981 84.0452 357.271 83.2323 358.305C81.1417 360.959 84.2116 364.467 87.0827 362.706ZM22.1194 376.729C18.0711 374.99 18.523 368.982 22.7885 367.827C28.4409 366.296 31.1401 374.905 25.6088 376.818L24.9202 377.057V388.558V400.059H31.6763H38.4324L38.4799 393.893L38.5264 387.726L47.0369 387.773L55.5474 387.819L55.5896 405.178L55.6318 422.535L56.476 422.855C62.0311 424.962 58.8823 433.641 53.2579 431.726C49.0929 430.308 49.0086 424.328 53.1325 422.755L53.926 422.452L53.8795 405.991L53.8319 389.53H47.078H40.3241L40.3208 395.424C40.3198 398.666 40.2538 401.421 40.1738 401.545C40.0603 401.723 38.2194 401.762 31.5736 401.725L23.1182 401.679L23.0717 389.399L23.0252 377.119L22.1194 376.729ZM26.6714 373.552C27.3675 371.98 26.4703 370.003 24.8575 369.555C22.7874 368.981 20.9487 370.457 21.0989 372.573C21.3195 375.651 25.4228 376.371 26.6714 373.552ZM92.7449 383.556C90.2273 381.04 91.638 376.375 95.1263 375.681C97.3887 375.23 99.3583 376.228 100.477 378.391L100.978 379.36L115.408 379.406L129.837 379.452L130.271 378.505C132.421 373.814 139.248 375.133 139.287 380.248C139.325 385.384 131.669 386.855 130.21 381.993L129.988 381.25H115.428H100.868L100.482 382.146C99.1605 385.215 95.1392 385.949 92.7449 383.556ZM96.3997 383.185C99.3637 382.9 100.097 379.036 97.4406 377.695C95.7921 376.863 94.2301 377.466 93.4302 379.243C92.5416 381.219 94.1826 383.398 96.3997 383.185ZM137.291 381.471C137.956 379.971 137.222 378.175 135.683 377.534C133.725 376.716 131.565 378.329 131.719 380.493C131.937 383.538 136.056 384.262 137.291 381.471ZM113.462 391.49C109.643 389.66 109.812 384.235 113.733 382.786C119.441 380.674 122.744 389.353 117.094 391.612C116.977 391.659 116.874 391.695 116.785 391.751C116.157 392.148 116.172 393.563 116.172 406.992C116.172 419.081 116.1 420.652 116.792 421.139C116.961 421.258 117.177 421.313 117.452 421.441C122.121 423.633 120.101 430.86 114.966 430.331C109.993 429.818 109.113 423.189 113.756 421.2L114.552 420.859L114.507 406.413L114.461 391.968L113.462 391.49ZM115.94 390.141C118.609 389.513 119.179 386.268 116.895 384.714C114.742 383.251 111.785 385.547 112.547 388.09C112.929 389.359 114.703 390.432 115.94 390.141ZM72.709 389.349C73.4851 387.897 72.9079 386.118 71.428 385.402C69.4866 384.464 67.4133 385.599 67.2101 387.712C66.8998 390.94 71.1773 392.213 72.709 389.349ZM11.128 411.773C11.929 410.478 11.4675 408.51 10.1822 407.74C8.14129 406.518 5.6637 407.882 5.6637 410.227C5.6637 413.152 9.58872 414.261 11.128 411.773ZM115.497 428.586C118.492 428.586 119.381 424.233 116.64 422.99C115.303 422.383 114.164 422.643 113.16 423.787C111.466 425.713 112.865 428.586 115.497 428.586ZM54.7367 430.116C57.6672 430.116 58.7255 426.529 56.3203 424.749C55.5474 424.177 54.0752 424.133 53.3001 424.659C50.7339 426.402 51.7121 430.116 54.7367 430.116Z" fill="#030D18"/>
</svg>
