<svg width="481" height="58" viewBox="0 0 481 58" fill="none" xmlns="http://www.w3.org/2000/svg">
<path fill-rule="evenodd" clip-rule="evenodd" d="M213.194 11.2802V2.52015H243.076V30.7922C243.08 32.6687 242.707 34.5269 241.978 36.2562C241.259 37.9839 240.226 39.5632 238.93 40.9142C237.632 42.2716 235.991 43.3556 234.008 44.1662C232.027 44.9756 229.874 45.3802 227.548 45.3802C225.048 45.3802 222.822 45.0049 220.87 44.2542C219.851 43.8685 218.881 43.3629 217.98 42.7482C217.282 42.2679 216.639 41.7111 216.064 41.0882C214.836 39.7447 213.87 38.1831 213.216 36.4842C213.194 36.4277 213.172 36.371 213.15 36.3142C212.688 35.08 212.357 33.8002 212.164 32.4962C212.05 31.7371 211.973 30.9729 211.934 30.2062H221.542C221.576 30.929 221.689 31.6459 221.878 32.3442C222.117 33.2342 222.526 34.0695 223.082 34.8042C223.727 35.6414 224.647 36.2227 225.68 36.4442C226.216 36.5669 226.765 36.6266 227.314 36.6222C227.904 36.6272 228.491 36.556 229.062 36.4102C229.949 36.1861 230.755 35.7161 231.386 35.0542C232.38 34.0115 232.878 32.5955 232.88 30.8062C232.88 30.8015 232.88 30.7969 232.88 30.7922V11.2802H213.194ZM61.8461 33.8382L68.3501 14.2962H78.4862L66.4161 44.5322L61.8461 57.0703H51.5921L56.8061 43.3302L45.2341 14.2962H55.3721L61.8461 33.8382ZM171.768 27.3042V44.5322H161.924V14.2962H171.474V18.7802C172.013 17.6753 172.791 16.7043 173.752 15.9382C174.158 15.6096 174.586 15.3108 175.034 15.0442C176.601 14.1137 178.383 13.6058 180.204 13.5702C180.332 13.5662 180.459 13.5642 180.586 13.5642C184.102 13.5642 186.788 14.6682 188.642 16.8762C189.728 18.189 190.504 19.7299 190.912 21.3842C191.255 22.7015 191.426 24.1575 191.426 25.7522V44.5322H181.612V27.3642C181.616 26.8436 181.569 26.3238 181.472 25.8122C181.351 25.1922 181.151 24.6389 180.872 24.1522C180.742 23.9255 180.592 23.7107 180.424 23.5102C179.93 22.9277 179.27 22.5097 178.532 22.3122C178.118 22.1922 177.66 22.1209 177.16 22.0982C177.042 22.0929 176.924 22.0902 176.806 22.0902C176.277 22.086 175.75 22.1478 175.236 22.2742C174.44 22.4667 173.711 22.8742 173.13 23.4522C172.579 24.0117 172.187 24.7073 171.992 25.4682C171.866 25.9322 171.793 26.4409 171.774 26.9942C171.771 27.0975 171.769 27.2008 171.768 27.3042ZM105.03 18.7802V0.732143H114.874V44.5322H105.38V40.0202C104.63 41.2797 103.617 42.3634 102.412 43.1982C102.117 43.4066 101.812 43.6021 101.5 43.7842C100.146 44.5655 98.6403 45.0457 97.0842 45.1922C96.6191 45.2404 96.1518 45.2644 95.6842 45.2642C93.7141 45.2872 91.758 44.9314 89.9222 44.2162C87.9985 43.4368 86.2697 42.244 84.8582 40.7222C82.2476 37.967 80.7328 34.3534 80.5982 30.5602C80.5768 30.1786 80.5661 29.7964 80.5662 29.4142C80.5467 27.4391 80.8604 25.4749 81.4942 23.6042C82.2099 21.5523 83.357 19.6775 84.8582 18.1062C86.1767 16.6852 87.7726 15.5497 89.5473 14.7699C91.322 13.99 93.2377 13.5824 95.1762 13.5722C95.3455 13.5672 95.5148 13.5645 95.6842 13.5642C96.673 13.5585 97.6592 13.6645 98.6242 13.8802C99.6338 14.1064 100.603 14.484 101.5 15.0002C102.285 15.4468 102.999 16.0068 103.62 16.6622C104.204 17.2854 104.68 18.0011 105.03 18.7802ZM32.7541 44.5322L30.6161 38.5842H13.154L11.044 44.5322H0L18.076 2.52015H25.7521L43.7981 44.5322H32.7541ZM309.229 0.616143V8.64216C308.911 8.53326 308.585 8.44966 308.255 8.39216C307.921 8.33216 307.56 8.28949 307.171 8.26416C306.851 8.24272 306.531 8.23204 306.211 8.23216C305.861 8.23077 305.512 8.25214 305.165 8.29616C304.399 8.39616 303.804 8.61749 303.379 8.96016C303.314 9.01188 303.253 9.06731 303.195 9.12616C302.946 9.38605 302.753 9.69447 302.629 10.0322C302.433 10.5402 302.329 11.1688 302.317 11.9182C302.316 11.9688 302.315 12.0195 302.315 12.0702V14.2962H308.791V22.1482H302.315V44.5322H292.471V22.1482H287.931V14.2962H292.471V11.8362C292.464 10.7113 292.558 9.58811 292.753 8.48016C293.171 6.18015 294.059 4.34482 295.417 2.97415C296.381 2.02275 297.548 1.30148 298.831 0.864143C299.783 0.522809 300.847 0.282142 302.025 0.142142C302.88 0.0444718 303.74 -0.00294305 304.601 0.000141294C305.093 -0.000944979 305.585 0.0117267 306.077 0.0381414C307.446 0.115475 308.497 0.308142 309.229 0.616143ZM427.443 33.3702L434.093 14.2962H444.229L431.983 44.5322H422.873L410.627 14.2962H420.763L427.443 33.3702ZM145.078 18.7802V14.2962H154.746V44.5322H145.254V40.0202C144.504 41.2797 143.492 42.3634 142.286 43.1982C141.99 43.4066 141.685 43.6021 141.372 43.7842C140.019 44.5655 138.512 45.0457 136.956 45.1922C136.491 45.2404 136.024 45.2644 135.556 45.2642C133.587 45.2869 131.631 44.9311 129.796 44.2162C127.873 43.4368 126.144 42.244 124.732 40.7222C122.122 37.967 120.607 34.3534 120.472 30.5602C120.451 30.1786 120.44 29.7964 120.44 29.4142C120.42 27.4392 120.733 25.475 121.366 23.6042C122.083 21.5521 123.23 19.6773 124.732 18.1062C126.051 16.6852 127.647 15.5497 129.421 14.7699C131.196 13.99 133.112 13.5824 135.05 13.5722C135.219 13.5672 135.388 13.5645 135.556 13.5642C136.622 13.5579 137.684 13.6788 138.72 13.9242C139.683 14.1542 140.61 14.5163 141.474 15.0002C142.224 15.4141 142.913 15.9289 143.522 16.5302C144.174 17.1791 144.701 17.9416 145.078 18.7802ZM273.781 18.7802V14.2962H283.449V44.5322H273.957V40.0202C273.205 41.2799 272.193 42.3636 270.987 43.1982C270.691 43.4066 270.387 43.6021 270.075 43.7842C268.721 44.5655 267.215 45.0457 265.659 45.1922C265.193 45.2404 264.726 45.2644 264.259 45.2642C262.289 45.2869 260.334 44.9311 258.499 44.2162C256.574 43.4371 254.845 42.2443 253.433 40.7222C250.822 37.967 249.307 34.3534 249.173 30.5602C249.151 30.1786 249.14 29.7964 249.141 29.4142C249.121 27.4391 249.435 25.4749 250.068 23.6042C250.784 21.5523 251.931 19.6775 253.433 18.1062C254.751 16.6852 256.347 15.5497 258.122 14.7699C259.896 13.99 261.812 13.5824 263.751 13.5722C263.92 13.5672 264.089 13.5645 264.259 13.5642C265.324 13.5579 266.386 13.6788 267.423 13.9242C268.386 14.1542 269.313 14.5163 270.177 15.0002C270.925 15.4142 271.614 15.929 272.223 16.5302C272.875 17.1789 273.403 17.9415 273.781 18.7802ZM335.831 18.7802V14.2962H345.499V44.5322H336.007V40.0202C335.256 41.2797 334.244 42.3634 333.039 43.1982C332.743 43.4066 332.438 43.6021 332.125 43.7842C330.771 44.5655 329.265 45.0457 327.709 45.1922C327.244 45.2404 326.776 45.2644 326.309 45.2642C324.339 45.2869 322.384 44.9311 320.549 44.2162C318.625 43.4368 316.896 42.244 315.485 40.7222C312.874 37.967 311.359 34.3534 311.225 30.5602C311.203 30.1786 311.193 29.7964 311.193 29.4142C311.173 27.4392 311.486 25.475 312.119 23.6042C312.835 21.5521 313.983 19.6773 315.485 18.1062C316.803 16.6852 318.399 15.5497 320.174 14.7699C321.948 13.99 323.864 13.5824 325.803 13.5722C325.971 13.5672 326.14 13.5645 326.309 13.5642C327.374 13.5579 328.436 13.6788 329.473 13.9242C330.436 14.1542 331.363 14.5163 332.227 15.0002C332.976 15.4141 333.665 15.9289 334.275 16.5302C334.926 17.1791 335.453 17.9416 335.831 18.7802ZM470.977 18.7802V14.2962H480.645V44.5322H471.153V40.0202C470.402 41.2797 469.39 42.3634 468.185 43.1982C467.889 43.4066 467.584 43.6021 467.271 43.7842C465.917 44.5655 464.411 45.0457 462.855 45.1922C462.391 45.2403 461.924 45.2643 461.457 45.2642C459.487 45.2872 457.531 44.9314 455.695 44.2162C453.771 43.4368 452.042 42.244 450.631 40.7222C448.02 37.967 446.505 34.3534 446.371 30.5602C446.35 30.1786 446.339 29.7964 446.339 29.4142C446.319 27.4391 446.633 25.4749 447.267 23.6042C447.983 21.5523 449.13 19.6775 450.631 18.1062C451.949 16.6852 453.545 15.5497 455.32 14.7699C457.095 13.99 459.01 13.5824 460.949 13.5722C461.118 13.5672 461.288 13.5645 461.457 13.5642C462.522 13.5579 463.584 13.6788 464.621 13.9242C465.584 14.1542 466.511 14.5163 467.375 15.0002C468.124 15.4142 468.812 15.929 469.421 16.5302C470.072 17.1791 470.6 17.9416 470.977 18.7802ZM372.101 13.6822V23.4662H370.137C367.411 23.4662 365.462 24.0822 364.289 25.3142C364.285 25.3189 364.282 25.3235 364.279 25.3282C363.18 26.4895 362.596 28.4109 362.527 31.0922C362.522 31.2748 362.52 31.4575 362.521 31.6402V44.5322H352.677V14.2962H362.227V19.9802C363.36 15.7815 366.339 13.6822 371.163 13.6822H372.101ZM389.823 13.6462C388.028 13.7939 386.266 14.2105 384.595 14.8822C382.437 15.7622 380.665 16.9442 379.279 18.4282C377.902 19.8969 376.814 21.6113 376.071 23.4822C375.319 25.3662 374.943 27.3435 374.943 29.4142C374.943 31.4849 375.319 33.4622 376.071 35.3462C376.814 37.2171 377.902 38.9316 379.279 40.4002C379.943 41.1079 380.682 41.741 381.483 42.2882C382.458 42.951 383.501 43.5069 384.595 43.9462C385.431 44.2856 386.292 44.5585 387.171 44.7622C388.666 45.1035 390.195 45.272 391.729 45.2642C392.366 45.2649 393.002 45.2376 393.637 45.1822C395.431 45.0343 397.193 44.6177 398.863 43.9462C401.021 43.0676 402.794 41.8856 404.181 40.4002C405.558 38.9316 406.646 37.2171 407.389 35.3462C408.141 33.4622 408.517 31.4849 408.517 29.4142C408.517 27.3435 408.141 25.3662 407.389 23.4822C406.646 21.6113 405.558 19.8969 404.181 18.4282C403.517 17.7205 402.778 17.0874 401.977 16.5402C401.001 15.8772 399.957 15.3214 398.863 14.8822C398.028 14.5429 397.167 14.27 396.289 14.0662C394.793 13.7247 393.263 13.5563 391.729 13.5642C391.093 13.5635 390.457 13.5909 389.823 13.6462ZM97.6462 37.0902C98.5455 37.0994 99.4397 36.9546 100.29 36.6622C101.3 36.3039 102.211 35.7125 102.95 34.9362C104.099 33.7433 104.809 32.1966 104.966 30.5482C105.009 30.1717 105.03 29.7931 105.03 29.4142C105.03 27.1689 104.337 25.3282 102.95 23.8922C101.678 22.565 99.9322 21.795 98.0942 21.7502C97.945 21.7426 97.7956 21.7386 97.6462 21.7382C96.732 21.7281 95.8238 21.8854 94.9662 22.2022C94.0005 22.573 93.1333 23.1616 92.4322 23.9222C91.2565 25.1746 90.5469 26.793 90.4222 28.5062C90.3944 28.8081 90.3804 29.1111 90.3802 29.4142C90.3721 30.3232 90.505 31.2279 90.7742 32.0962C91.1072 33.1468 91.6741 34.1082 92.4322 34.9082C93.0607 35.5872 93.8213 36.1307 94.6673 36.5052C95.5134 36.8797 96.427 37.0774 97.3522 37.0862C97.4502 37.0892 97.5482 37.0905 97.6462 37.0902ZM137.52 37.0902C138.42 37.0994 139.314 36.9546 140.164 36.6622C141.174 36.3036 142.084 35.7123 142.822 34.9362C143.971 33.7436 144.683 32.1969 144.84 30.5482C144.882 30.1717 144.903 29.7931 144.902 29.4142C144.902 27.1689 144.209 25.3282 142.822 23.8922C141.55 22.5655 139.806 21.7955 137.968 21.7502C137.819 21.7426 137.67 21.7386 137.52 21.7382C136.606 21.7281 135.698 21.8854 134.84 22.2022C133.874 22.5727 133.006 23.1613 132.304 23.9222C131.129 25.1746 130.419 26.793 130.294 28.5062C130.267 28.8081 130.254 29.1111 130.254 29.4142C130.245 30.3231 130.378 31.2278 130.646 32.0962C130.979 33.1468 131.546 34.1082 132.304 34.9082C132.933 35.5875 133.694 36.131 134.54 36.5056C135.387 36.8801 136.301 37.0777 137.226 37.0862C137.324 37.0892 137.422 37.0905 137.52 37.0902ZM266.221 37.0902C267.12 37.0994 268.014 36.9546 268.865 36.6622C269.875 36.3039 270.786 35.7125 271.525 34.9362C272.673 33.7433 273.384 32.1966 273.541 30.5482C273.583 30.1717 273.605 29.7931 273.605 29.4142C273.605 27.1689 272.911 25.3282 271.525 23.8922C270.252 22.565 268.507 21.795 266.669 21.7502C266.519 21.7426 266.37 21.7386 266.221 21.7382C265.306 21.7281 264.398 21.8854 263.541 22.2022C262.575 22.573 261.708 23.1616 261.007 23.9222C259.831 25.1746 259.121 26.793 258.997 28.5062C258.969 28.8081 258.956 29.1111 258.957 29.4142C258.948 30.3231 259.08 31.2278 259.349 32.0962C259.682 33.1468 260.248 34.1082 261.007 34.9082C261.635 35.5872 262.396 36.1307 263.242 36.5052C264.088 36.8797 265.001 37.0774 265.927 37.0862C266.025 37.0892 266.123 37.0905 266.221 37.0902ZM328.273 37.0902C329.172 37.0994 330.066 36.9546 330.917 36.6622C331.926 36.3036 332.836 35.7123 333.575 34.9362C334.724 33.7436 335.435 32.1969 335.593 30.5482C335.635 30.1717 335.656 29.7931 335.655 29.4142C335.655 27.1689 334.961 25.3282 333.575 23.8922C332.303 22.5655 330.558 21.7955 328.721 21.7502C328.571 21.7426 328.422 21.7386 328.273 21.7382C327.359 21.7281 326.45 21.8854 325.593 22.2022C324.626 22.5727 323.758 23.1613 323.057 23.9222C321.881 25.1746 321.171 26.793 321.047 28.5062C321.02 28.8081 321.006 29.1111 321.007 29.4142C320.998 30.3231 321.13 31.2278 321.399 32.0962C321.732 33.1468 322.299 34.1082 323.057 34.9082C323.685 35.5875 324.446 36.131 325.293 36.5056C326.139 36.8801 327.053 37.0777 327.979 37.0862C328.077 37.0892 328.175 37.0905 328.273 37.0902ZM463.419 37.0902C464.318 37.0994 465.212 36.9546 466.063 36.6622C467.072 36.3036 467.983 35.7123 468.721 34.9362C469.87 33.7436 470.581 32.1969 470.739 30.5482C470.781 30.1717 470.802 29.7931 470.801 29.4142C470.801 27.1689 470.108 25.3282 468.721 23.8922C467.449 22.5655 465.704 21.7955 463.867 21.7502C463.718 21.7426 463.568 21.7386 463.419 21.7382C462.505 21.7281 461.597 21.8854 460.739 22.2022C459.773 22.573 458.906 23.1616 458.205 23.9222C457.029 25.1743 456.318 26.7927 456.193 28.5062C456.166 28.8081 456.152 29.1111 456.153 29.4142C456.144 30.3231 456.276 31.2278 456.545 32.0962C456.879 33.147 457.446 34.1084 458.205 34.9082C458.833 35.5872 459.594 36.1307 460.44 36.5052C461.286 36.8797 462.2 37.0774 463.125 37.0862C463.223 37.0892 463.321 37.0905 463.419 37.0902ZM386.413 34.8642C387.38 36.0024 388.729 36.7502 390.207 36.9682C390.71 37.0516 391.219 37.0924 391.729 37.0902C392.486 37.0972 393.241 37.0024 393.973 36.8082C395.173 36.4919 396.247 35.8131 397.047 34.8642C398.134 33.5785 398.782 31.9797 398.899 30.3002C398.924 30.0055 398.937 29.7099 398.937 29.4142C398.945 28.4642 398.805 27.5188 398.521 26.6122C398.21 25.6405 397.709 24.7403 397.047 23.9642C396.079 22.8256 394.729 22.0778 393.251 21.8602C392.748 21.7768 392.239 21.736 391.729 21.7382C390.972 21.7314 390.218 21.8262 389.487 22.0202C388.286 22.3365 387.213 23.0153 386.413 23.9642C385.325 25.2497 384.676 26.8484 384.559 28.5282C384.534 28.8229 384.522 29.1185 384.523 29.4142C384.514 30.3641 384.654 31.3095 384.937 32.2162C385.248 33.1881 385.75 34.0882 386.413 34.8642ZM21.914 14.4142L16.142 30.2642H27.5981L21.914 14.4142Z" fill="white"/>
</svg>
