<svg width="388" height="46" viewBox="0 0 388 46" fill="none" xmlns="http://www.w3.org/2000/svg">
<path fill-rule="evenodd" clip-rule="evenodd" d="M314.268 27.5394V44.7661H304.424V14.5314H313.975V19.0141C314.555 17.8195 315.404 16.7755 316.455 15.9634C316.768 15.7171 317.094 15.4883 317.432 15.2781C318.827 14.4153 320.417 13.9156 322.055 13.8247C322.32 13.8075 322.586 13.799 322.852 13.7994C324.06 13.7858 325.265 13.9384 326.432 14.2527C327.666 14.5812 328.812 15.1784 329.789 16.0015C330.765 16.8246 331.548 17.8533 332.08 19.0141C332.978 17.54 334.23 16.3139 335.723 15.4474C335.855 15.3689 335.988 15.2929 336.123 15.2194C337.359 14.5551 338.705 14.121 340.096 13.9381C340.78 13.844 341.469 13.7977 342.159 13.7994C343.236 13.7901 344.311 13.9092 345.36 14.1541C347.25 14.5732 348.947 15.6077 350.185 17.0954C351.208 18.3536 351.946 19.8176 352.351 21.3874C352.724 22.7634 352.911 24.2963 352.911 25.9861V44.7661H343.067V27.5981C343.074 26.9288 343.005 26.2608 342.86 25.6074C342.346 23.4189 340.872 22.3247 338.437 22.3247C337.923 22.3204 337.41 22.3813 336.911 22.5061C336.147 22.6943 335.449 23.0871 334.892 23.6421C334.294 24.2475 333.885 25.0144 333.716 25.8487C333.619 26.308 333.571 26.7765 333.575 27.2461V44.7661H323.731V27.5981C323.738 26.9288 323.669 26.261 323.525 25.6074C323.015 23.4189 321.55 22.3247 319.131 22.3247C318.637 22.3205 318.144 22.3738 317.663 22.4834C316.873 22.6701 316.211 23.0212 315.676 23.5367C315.63 23.5805 315.585 23.6255 315.541 23.6714C315.077 24.1729 314.736 24.7767 314.548 25.4341C314.361 26.0501 314.268 26.7518 314.268 27.5394ZM190.957 2.75405V22.5007L205.283 2.75405H216.856L202.148 23.1741L217.647 44.7661H205.693L190.957 23.8767V44.7661H180.732V2.75405H190.957ZM62.4613 31.8754V14.5314H72.3053V44.7661H62.7533V40.2541C62.1933 41.4045 61.3817 42.4143 60.3787 43.2087C60.0207 43.497 59.6448 43.7624 59.2533 44.0034C57.6418 44.9998 55.8107 45.4981 53.76 45.4981C52.6874 45.5074 51.6176 45.3883 50.5733 45.1434C48.6883 44.7219 46.996 43.6875 45.7613 42.2021C44.7391 40.9439 44.0005 39.4799 43.596 37.9101C43.2236 36.5341 43.0373 35.0007 43.0373 33.3101V14.5314H52.8813V31.8167C52.8734 32.4856 52.9428 33.1531 53.088 33.8061C53.5129 35.6069 54.5924 36.6669 56.3267 36.9861C56.7267 37.0574 57.1324 37.0922 57.5387 37.0901C58.0388 37.094 58.5377 37.0399 59.0253 36.9287C59.804 36.7447 60.4604 36.4029 60.9947 35.9034C61.0556 35.8465 61.1147 35.7878 61.172 35.7274C61.948 34.9078 62.3738 33.7821 62.4493 32.3501C62.4575 32.192 62.4615 32.0337 62.4613 31.8754ZM126.563 31.8754V14.5314H136.407V44.7661H126.856V40.2541C126.296 41.4047 125.484 42.4145 124.48 43.2087C124.122 43.497 123.746 43.7624 123.355 44.0034C121.743 44.9998 119.912 45.4981 117.861 45.4981C116.789 45.5074 115.719 45.3883 114.675 45.1434C112.79 44.7219 111.097 43.6875 109.863 42.2021C108.841 40.9438 108.103 39.4798 107.699 37.9101C107.325 36.5341 107.139 35.0007 107.139 33.3101V14.5314H116.983V31.8167C116.975 32.4856 117.044 33.1531 117.189 33.8061C117.615 35.6069 118.695 36.6669 120.428 36.9861C120.828 37.0574 121.234 37.0922 121.64 37.0901C122.14 37.094 122.639 37.0399 123.127 36.9287C123.905 36.7447 124.562 36.4029 125.097 35.9034C125.158 35.8465 125.216 35.7878 125.273 35.7274C126.049 34.9078 126.475 33.7821 126.551 32.3501C126.559 32.192 126.563 32.0337 126.563 31.8754ZM39.2573 2.75405L24.7267 29.6487V44.7661H14.5307V29.6487L0 2.75405H10.928L19.6293 20.1567L28.3307 2.75405H39.2573ZM77.5493 35.3327H85.664C85.7618 36.4456 86.1622 37.3145 86.8653 37.9394C87.2445 38.2702 87.6914 38.5141 88.1747 38.6541C88.5116 38.7563 88.8813 38.8234 89.284 38.8554C89.4734 38.87 89.6634 38.8771 89.8533 38.8767C90.9476 38.8767 91.8218 38.6132 92.476 38.0861C92.7568 37.8657 92.9907 37.5914 93.164 37.2794C93.3628 36.9058 93.4637 36.4879 93.4573 36.0647C93.4573 34.7563 92.6369 33.8967 90.996 33.4861L86.8653 32.4021C86.0117 32.1957 85.1722 31.9347 84.352 31.6207C82.68 30.9709 81.384 30.1523 80.464 29.1647C79.1671 27.7736 78.4987 25.8909 78.4587 23.5167C78.4576 23.4416 78.4572 23.3665 78.4573 23.2914C78.4436 22.15 78.6407 21.0159 79.0387 19.9461C79.5902 18.5329 80.5191 17.2983 81.724 16.3767C83.3768 15.0855 85.3421 14.2551 87.42 13.9701C88.2062 13.854 89 13.7969 89.7947 13.7994C90.8841 13.7913 91.9712 13.9004 93.0373 14.1247C94.8409 14.5185 96.3627 15.2692 97.6027 16.3767C99.2453 17.8474 100.344 19.8286 100.723 22.0007C100.801 22.4084 100.86 22.8195 100.899 23.2327H92.812C92.7963 22.8453 92.7161 22.4631 92.5747 22.1021C92.4486 21.7881 92.2716 21.497 92.0507 21.2407C91.7428 20.8856 91.3316 20.6357 90.8747 20.5261C90.6027 20.4549 90.3013 20.4194 89.9707 20.4194C89.7111 20.4181 89.4519 20.4395 89.196 20.4834C88.7009 20.5705 88.2951 20.7496 87.9787 21.0207C87.5985 21.3443 87.3558 21.8006 87.3 22.2967C87.2835 22.4223 87.2755 22.5488 87.276 22.6754C87.2645 23.1089 87.3814 23.5361 87.612 23.9034C87.98 24.4678 88.6489 24.8594 89.6187 25.0781L94.9507 26.5141C99.4316 27.6785 101.856 30.1838 102.225 34.0301C102.259 34.385 102.276 34.7415 102.276 35.0981C102.276 37.1096 101.695 38.9212 100.532 40.5327C99.3702 42.1434 97.8564 43.3736 95.9907 44.2234C94.1258 45.0732 92.1191 45.4981 89.9707 45.4981C87.7049 45.4981 85.708 45.166 83.98 44.5021C82.2424 43.8312 80.7328 42.6774 79.6293 41.1767C78.886 40.1784 78.3353 39.0502 78.0053 37.8501C77.7756 37.0269 77.6229 36.1842 77.5493 35.3327ZM162.188 0.850053V8.87672C161.87 8.76801 161.544 8.68464 161.213 8.62739C160.88 8.56694 160.519 8.52383 160.129 8.49805C159.81 8.47706 159.49 8.46683 159.169 8.46739C157.883 8.46739 156.939 8.70961 156.336 9.19405C156.271 9.24599 156.21 9.30164 156.152 9.36072C155.588 9.93405 155.296 10.8647 155.275 12.1527C155.274 12.2034 155.273 12.2541 155.273 12.3047V14.5314H161.748V22.3834H155.273V44.7661H145.429V22.3834H140.889V14.5314H145.429V12.0701C145.422 10.9452 145.516 9.82203 145.711 8.71405C146.129 6.4145 147.017 4.57939 148.375 3.20872C149.907 1.66028 152.11 0.716275 154.984 0.376719C155.839 0.278878 156.698 0.23124 157.559 0.234053C158.051 0.233188 158.543 0.246082 159.035 0.272719C160.404 0.350053 161.456 0.542497 162.188 0.850053ZM246.064 19.0141V14.5314H255.732V44.7661H246.24V40.2541C245.341 41.7776 244.048 43.0323 242.359 44.0181C241.005 44.7997 239.499 45.2804 237.943 45.4274C237.478 45.4751 237.01 45.4987 236.543 45.4981C232.187 45.4981 228.579 43.9843 225.717 40.9567C223.107 38.2017 221.592 34.5884 221.457 30.7954C221.436 30.4135 221.425 30.0312 221.425 29.6487C221.406 27.6734 221.72 25.709 222.353 23.8381C223.069 21.7859 224.216 19.9109 225.717 18.3394C227.036 16.9185 228.632 15.7831 230.407 15.0034C232.182 14.2237 234.098 13.8162 236.036 13.8061C236.205 13.8015 236.374 13.7993 236.543 13.7994C237.608 13.7927 238.67 13.9131 239.707 14.1581C240.67 14.388 241.597 14.7501 242.461 15.2341C243.21 15.6483 243.899 16.1633 244.508 16.7647C245.159 17.4134 245.687 18.1757 246.064 19.0141ZM369.639 44.7661H359.795V0.967386H369.639V44.7661ZM282.333 13.9167V23.7007H280.371C279.679 23.6972 278.988 23.744 278.303 23.8407C276.634 24.0861 275.375 24.6554 274.524 25.5487C274.52 25.5532 274.516 25.5576 274.512 25.5621C274.049 26.0673 273.688 26.6572 273.449 27.2994C273.032 28.3643 272.803 29.7065 272.761 31.3261C272.756 31.5091 272.754 31.6922 272.753 31.8754V44.7661H262.911V14.5314H272.461V20.2154C272.762 19.0138 273.305 17.8864 274.057 16.9021C275.113 15.5643 276.564 14.6763 278.409 14.2381C279.389 14.0152 280.391 13.9073 281.396 13.9167H282.333ZM296.924 44.7661H287.08V14.5314H296.924V44.7661ZM386.953 44.7661H377.109V14.5314H386.953V44.7661ZM238.505 37.3247C239.405 37.3339 240.299 37.1891 241.149 36.8967C242.159 36.5384 243.07 35.9473 243.808 35.1714C244.957 33.9787 245.668 32.432 245.825 30.7834C245.868 30.4067 245.89 30.0279 245.889 29.6487C245.889 27.4025 245.196 25.5616 243.808 24.1261C242.536 22.799 240.791 22.0288 238.953 21.9834C238.804 21.9762 238.655 21.9727 238.505 21.9727C237.591 21.9627 236.683 22.1199 235.825 22.4367C234.86 22.807 233.992 23.3952 233.291 24.1554C231.924 25.6105 231.24 27.4416 231.24 29.6487C231.232 30.557 231.365 31.4611 231.633 32.3287C231.966 33.3797 232.533 34.3416 233.291 35.1421C234.658 36.5972 236.396 37.3247 238.505 37.3247ZM297.656 5.53672C297.656 7.11894 297.114 8.4425 296.031 9.50739C295.512 10.0216 294.896 10.4276 294.219 10.7016C293.542 10.9756 292.817 11.1122 292.087 11.1034C292.058 11.1036 292.03 11.1036 292.001 11.1034C291.264 11.1179 290.532 10.9841 289.847 10.7099C289.163 10.4357 288.541 10.0268 288.017 9.50739C287.5 9.01386 287.088 8.42072 286.807 7.76374C286.525 7.10675 286.38 6.39953 286.379 5.68472C286.378 5.63539 286.377 5.58606 286.377 5.53672C286.377 3.99361 286.924 2.68516 288.017 1.61139C288.536 1.09008 289.155 0.678765 289.837 0.402022C290.518 0.12528 291.249 -0.0112075 291.984 0.000719389C291.99 0.000712048 291.996 0.000712048 292.001 0.000719389C293.603 0.000719389 294.946 0.532719 296.031 1.59672C296.549 2.09443 296.96 2.6924 297.239 3.35418C297.519 4.01596 297.661 4.72771 297.656 5.44605C297.656 5.47627 297.656 5.5065 297.656 5.53672ZM387.685 5.53672C387.685 7.11894 387.144 8.4425 386.06 9.50739C385.541 10.0216 384.925 10.4276 384.248 10.7016C383.571 10.9756 382.846 11.1122 382.116 11.1034C382.088 11.1036 382.059 11.1036 382.031 11.1034C381.294 11.1179 380.561 10.9841 379.877 10.7099C379.192 10.4357 378.57 10.0268 378.047 9.50739C377.53 9.01386 377.118 8.42072 376.836 7.76374C376.555 7.10675 376.409 6.39953 376.408 5.68472C376.407 5.63539 376.407 5.58606 376.407 5.53672C376.407 3.99361 376.953 2.68516 378.047 1.61139C378.566 1.09008 379.184 0.678765 379.866 0.402022C380.547 0.12528 381.278 -0.0112075 382.013 0.000719389C382.019 0.000712048 382.025 0.000712048 382.031 0.000719389C383.632 0.000719389 384.976 0.532719 386.06 1.59672C386.578 2.09443 386.989 2.6924 387.269 3.35418C387.548 4.01596 387.69 4.72771 387.685 5.44605C387.686 5.47627 387.686 5.5065 387.685 5.53672Z" fill="white"/>
</svg>
